<svg width="76" height="72" viewBox="0 0 76 72" fill="none" xmlns="http://www.w3.org/2000/svg">
<rect x="0.924072" y="0.645508" width="75" height="71.2025" rx="30" fill="white"/>
<path d="M31.5685 23.4304C33.8577 23.5153 35.7093 24.1776 37.2579 25.655C37.7124 26.0965 38.1669 26.538 38.6045 26.9965C38.8233 27.2342 39.0085 27.2342 39.2273 26.9965C39.6481 26.555 40.0858 26.1134 40.5234 25.6889C42.9137 23.3795 46.4485 22.8021 49.4784 24.2116C52.4073 25.587 54.2757 28.7116 54.0737 31.9889C53.9559 33.9078 53.2826 35.6569 51.9191 37.0323C47.7278 41.2946 43.5028 45.5399 39.3115 49.7852C38.9917 50.1078 38.7897 50.0739 38.4867 49.7682C34.329 45.5739 30.1208 41.4305 26.0305 37.1512C23.6403 34.672 23.0848 31.6323 24.4146 28.4229C25.7444 25.1965 28.3366 23.6342 31.5685 23.4304ZM51.8855 31.5984C51.8855 29.1361 50.5557 27.0644 48.3001 26.0795C46.2129 25.1625 43.688 25.638 41.9879 27.3021C41.0789 28.1851 40.1868 29.0851 39.3115 30.0021C39.0085 30.3248 38.7897 30.3078 38.4867 30.0021C37.5609 29.0512 36.6351 28.1002 35.6588 27.1833C34.2785 25.8757 32.5952 25.4172 30.7605 25.7568C28.4881 26.1814 26.9058 27.5399 26.2157 29.7644C25.5087 32.0229 26.0305 34.0606 27.6633 35.7418C31.2486 39.3927 34.8508 43.0097 38.4362 46.6437C38.7728 46.9833 39.0085 47.0173 39.362 46.6607C42.9978 42.9757 46.6337 39.3078 50.2695 35.6229C51.3637 34.5021 51.8855 33.1606 51.8855 31.5984Z" fill="#D40002"/>
</svg>
