<svg width="112" height="113" viewBox="0 0 112 113" fill="none" xmlns="http://www.w3.org/2000/svg">
<path d="M48.2495 75.4604C47.8639 75.147 47.43 74.8518 47.0685 74.4902C42.1154 69.5492 37.1924 64.578 32.2092 59.6671C31.1065 58.5825 31.0041 57.763 32.1851 56.7025C33.5228 55.4973 34.8002 54.2078 36.0174 52.8762C37.0297 51.7735 37.8251 51.894 38.8193 52.9244C41.2236 55.413 43.7001 57.8293 46.1466 60.2757C48.2857 62.4088 48.2857 62.4148 50.5091 60.1974C57.8484 52.8581 65.1877 45.5128 72.5269 38.1796C74.648 36.0585 74.66 36.0646 76.7871 38.1856C77.8536 39.2461 78.8659 40.3669 79.9927 41.3611C81.1798 42.4156 81.0774 43.2351 79.9686 44.3197C75.2987 48.9053 70.6951 53.5571 66.0674 58.1848C60.7468 63.5054 55.4321 68.8261 50.1054 74.1347C49.5932 74.6529 49.1473 75.3037 48.2495 75.4604Z" fill="#D40002"/>
<path d="M58.2219 100.937C58.2219 103.721 58.2339 106.511 58.2159 109.294C58.2098 110.789 57.7338 112.139 56.0346 112.169C54.3534 112.199 53.7087 110.867 53.6966 109.391C53.6484 103.673 53.6424 97.9482 53.7087 92.2298C53.7267 90.7957 54.3233 89.4098 56.0466 89.47C57.7519 89.5303 58.2098 90.862 58.2098 92.3623C58.2279 95.2185 58.2219 98.0747 58.2219 100.937Z" fill="#D40002"/>
<path d="M58.222 11.1966C58.222 14.0528 58.2341 16.909 58.222 19.7651C58.216 21.2957 57.6978 22.4827 55.9323 22.4767C54.2812 22.4767 53.7209 21.2776 53.7088 19.9037C53.6606 14.1914 53.6546 8.48508 53.7148 2.77275C53.7329 1.33864 54.3114 -0.0412368 56.0347 0.000942829C57.74 0.0431225 58.21 1.36274 58.216 2.86314C58.2281 5.63494 58.222 8.4188 58.222 11.1966Z" fill="#D40002"/>
<path d="M11.2217 58.2149C8.44386 58.2149 5.66001 58.2209 2.88217 58.2089C1.38781 58.2089 0.0621605 57.7449 0.00190379 56.0457C-0.0583529 54.3223 1.32153 53.7258 2.75563 53.7077C8.46194 53.6414 14.1743 53.6414 19.8866 53.6957C21.3749 53.7077 22.5921 54.3585 22.4776 56.13C22.3752 57.757 21.2062 58.2089 19.7842 58.2149C16.934 58.227 14.0779 58.2149 11.2217 58.2149Z" fill="#D40002"/>
<path d="M100.817 58.2149C97.9611 58.2149 95.1049 58.227 92.2488 58.2089C90.7363 58.1969 89.4709 57.6606 89.4709 55.9493C89.4709 54.3525 90.7604 53.7439 92.1042 53.7258C97.8888 53.6535 103.673 53.6595 109.458 53.7138C110.85 53.7258 111.989 54.3706 111.953 56.0156C111.917 57.6365 110.832 58.2029 109.38 58.2089C106.524 58.227 103.673 58.2149 100.817 58.2149Z" fill="#D40002"/>
<path d="M96.4307 93.9773C96.4066 94.8992 95.9427 95.5439 95.1232 95.9055C94.1169 96.3574 93.195 96.0923 92.4357 95.3511C90.5015 93.4651 88.5974 91.5549 86.6872 89.6508C84.512 87.4756 82.3247 85.3184 80.1856 83.113C79.1732 82.0705 78.4863 80.8293 79.7879 79.588C81.005 78.425 82.2704 78.8348 83.3611 79.9194C87.344 83.8903 91.321 87.8672 95.2919 91.8442C95.8824 92.4347 96.3645 93.0975 96.4307 93.9773Z" fill="#D40002"/>
<path d="M31.9921 80.3652C31.9801 81.3595 31.3655 82.0283 30.7207 82.6731C26.9426 86.4512 23.1645 90.2232 19.3925 94.0013C18.2235 95.1703 16.8496 95.9597 15.4637 94.6039C13.9754 93.1457 15.0962 91.8803 16.2109 90.7655C20.0914 86.885 23.978 82.9985 27.8646 79.1179C28.7142 78.2743 29.6542 77.6898 30.8834 78.3105C31.7029 78.7263 32.0042 79.4674 31.9921 80.3652Z" fill="#D40002"/>
<path d="M80.3482 31.9852C79.4564 31.9972 78.7212 31.6839 78.2994 30.8584C77.7812 29.8461 78.0885 28.9362 78.8237 28.183C80.7639 26.1945 82.7343 24.2302 84.6987 22.2658C86.7715 20.193 88.8443 18.1262 90.9172 16.0533C92.0078 14.9627 93.2371 14.101 94.6049 15.4568C95.816 16.6619 95.2798 18.0177 94.2554 19.0601C90.2543 23.1335 86.1991 27.1586 82.1619 31.1898C81.6738 31.6719 81.0712 31.9792 80.3482 31.9852Z" fill="#D40002"/>
<path d="M32.878 30.5451C32.8901 31.6478 32.5285 32.2805 31.8356 32.6962C30.9619 33.2144 30.058 33.118 29.3048 32.5155C28.4311 31.8165 27.6417 31.003 26.8463 30.2076C23.8154 27.1888 20.7905 24.1639 17.7656 21.133C17.2896 20.6569 16.8015 20.1749 16.3978 19.6446C15.5844 18.5721 15.3795 17.4151 16.446 16.4028C17.5306 15.3724 18.6574 15.6436 19.6336 16.6137C23.7853 20.7413 27.9249 24.887 32.0585 29.0326C32.5406 29.5207 32.8901 30.0931 32.878 30.5451Z" fill="#D40002"/>
<path d="M74.9191 15.6737C74.1538 18.1563 73.2982 21.1992 72.2557 24.1699C71.8882 25.2123 70.9 25.8631 69.6828 25.3389C68.6102 24.8809 67.9775 23.9831 68.3029 22.7961C69.0923 19.8917 69.9539 17.0054 70.8578 14.1311C71.2494 12.8899 72.2196 12.3415 73.5151 12.6006C74.895 12.8778 74.889 13.9986 74.9191 15.6737Z" fill="#E98283"/>
<path d="M44.5797 22.8081C44.5978 23.7903 44.2724 24.6037 43.3023 24.9653C42.2478 25.3569 41.2656 25.0316 40.7896 24.0614C39.3374 21.1028 38.084 18.0478 37.1501 14.8843C36.8729 13.9443 37.373 13.0827 38.3251 12.703C39.2169 12.3475 40.0906 12.468 40.7956 13.2273C41.368 13.86 44.5677 21.9223 44.5797 22.8081Z" fill="#E98283"/>
<path d="M15.2047 75.5327C14.3912 75.4604 13.8067 75.0446 13.4271 74.3336C13.0294 73.5924 13.0053 72.797 13.638 72.2607C16.2953 70.0252 19.3503 68.4405 22.5138 67.0666C23.267 66.7412 23.9841 67.1932 24.4782 67.8198C24.9723 68.4465 25.1711 69.1334 24.7855 69.9107C24.2612 70.9652 16.4098 75.5869 15.2047 75.5327Z" fill="#E98283"/>
<path d="M43.1035 89.1989C42.037 91.7056 40.8801 94.628 39.5363 97.4661C39.0061 98.5929 37.7889 98.5628 36.7585 98.129C35.6859 97.677 35.4148 96.7009 35.8185 95.6825C36.8911 92.971 37.9998 90.2715 39.1869 87.6021C39.6508 86.5536 40.5487 85.9692 41.7598 86.4392C42.7962 86.8308 43.2301 87.6563 43.1035 89.1989Z" fill="#E98283"/>
<path d="M74.4008 98.3398C73.3343 98.4182 72.6956 97.7312 72.2798 96.7732C71.2614 94.4352 70.207 92.1093 69.279 89.7291C68.7849 88.4698 68.7307 87.0899 70.2371 86.4512C71.6411 85.8546 72.5268 86.7766 73.0691 87.9576C74.1959 90.41 75.3529 92.8565 76.323 95.3752C77.0099 97.1467 76.1784 98.3218 74.4008 98.3398Z" fill="#E98283"/>
<path d="M95.9305 36.0646C97.2803 36.0646 98.0094 36.5286 98.3589 37.4686C98.7264 38.4748 98.2685 39.3004 97.455 39.7824C94.8037 41.3431 91.9717 42.5422 89.0613 43.5183C88.0972 43.8437 87.2596 43.4159 86.8559 42.4578C86.4823 41.5781 86.416 40.4995 87.2656 39.9873C90.0796 38.288 93.1286 37.0588 95.9305 36.0646Z" fill="#E98283"/>
<path d="M22.2968 45.0127C19.7118 44.0967 16.7291 43.3194 14.0778 41.7287C13.2703 41.2406 12.951 40.3006 13.4029 39.3485C13.8729 38.3543 14.7346 37.7999 15.7891 38.1494C18.4825 39.0533 21.1579 40.0174 23.7851 41.096C24.7432 41.4876 25.2253 42.4397 24.8938 43.5303C24.5685 44.6029 23.7068 44.9946 22.2968 45.0127Z" fill="#E98283"/>
<path d="M95.7858 74.2553C93.2851 73.1947 90.447 72.2005 87.8861 70.6459C86.922 70.0614 86.9341 68.9949 87.4402 68.0308C87.9102 67.1329 88.7418 66.6569 89.6938 67.0425C92.2607 68.0729 94.8096 69.1636 97.3163 70.3326C98.4371 70.8568 98.5937 71.9595 98.2201 73.0501C97.8827 74.0263 97.0933 74.3878 95.7858 74.2553Z" fill="#E98283"/>
</svg>
