<svg width="75" height="72" viewBox="0 0 75 72" fill="none" xmlns="http://www.w3.org/2000/svg">
<rect width="75" height="71.2025" rx="30" fill="white"/>
<path d="M33.6338 43.8678C33.8009 43.7089 33.8186 43.5469 33.8685 43.4013C35.1264 39.7686 36.3811 36.1343 37.639 32.5008C37.713 32.2863 37.7411 32.0445 38.0675 32.0069C38.4726 31.9607 38.6317 32.1486 38.7483 32.4946C39.9564 36.0889 41.1765 39.6794 42.3951 43.2698C42.4529 43.4412 42.4843 43.6252 42.6081 43.7739C42.7769 43.7668 42.7777 43.6259 42.813 43.525C43.7575 40.8073 44.7019 38.0896 45.6383 35.3696C45.779 34.961 45.8682 34.5391 45.8538 34.1023C45.8345 33.5364 45.5982 33.2116 45.0492 33.0127C44.6151 32.8554 44.1562 32.8429 43.7044 32.8061C43.4207 32.7826 43.2953 32.6699 43.2969 32.392C43.2993 32.104 43.4456 32.0061 43.7245 32.0061C46.0017 32.01 48.2788 32.0093 50.5559 32.0069C50.8204 32.0069 50.9916 32.0742 50.9996 32.3764C51.0085 32.6809 50.8662 32.7975 50.5696 32.8069C50.3293 32.8147 50.0889 32.846 49.8494 32.8726C48.8591 32.9822 48.1212 33.4534 47.647 34.316C47.2596 35.0213 46.9807 35.768 46.7218 36.5226C45.2509 40.8151 43.7824 45.1092 42.3123 49.4018C42.2656 49.538 42.2142 49.6718 42.162 49.8065C42.1073 49.9474 41.9948 49.9983 41.8461 49.999C41.6966 49.9998 41.5832 49.9482 41.527 49.8096C41.4731 49.6765 41.4265 49.5403 41.3807 49.4041C40.1203 45.6345 38.8608 41.8648 37.6005 38.0951C37.5554 37.9605 37.5016 37.8289 37.4421 37.6724C37.2243 37.7632 37.2267 37.9542 37.1769 38.0982C35.8844 41.8718 34.5975 45.647 33.3098 49.4214C33.2761 49.52 33.2431 49.6202 33.2077 49.718C33.1507 49.8738 33.0695 49.9951 32.8702 49.9998C32.6547 50.0053 32.5575 49.8879 32.498 49.711C32.2737 49.0417 32.0463 48.3733 31.8228 47.7032C30.5231 43.8091 29.225 39.915 27.9228 36.0208C27.7114 35.3876 27.4623 34.7692 27.1198 34.1892C26.644 33.3822 25.9294 32.9439 24.9777 32.864C24.7776 32.8476 24.5791 32.8084 24.3789 32.8022C24.0767 32.792 23.9939 32.6268 24.0003 32.3646C24.0076 32.0922 24.1603 32.0077 24.4151 32.0077C27.1753 32.01 29.9347 32.01 32.6941 32.0069C32.9674 32.0069 33.1258 32.093 33.129 32.3858C33.1322 32.6605 33.0164 32.7834 32.7287 32.8053C32.3163 32.8374 31.8992 32.8546 31.4981 32.9744C30.8542 33.1669 30.5769 33.5262 30.5617 34.1767C30.5504 34.6401 30.6517 35.0839 30.7972 35.5199C31.695 38.1976 32.5945 40.8746 33.4955 43.5508C33.5285 43.6471 33.5767 43.7379 33.6338 43.8678Z" fill="#D40002"/>
</svg>
