<svg width="79" height="75" viewBox="0 0 79 75" fill="none" xmlns="http://www.w3.org/2000/svg">
<rect width="79" height="75" rx="30" fill="white"/>
<path d="M46.925 30.075L49.046 27.954M39.5 43.5C42.8137 43.5 45.5 40.8137 45.5 37.5C45.5 34.1863 42.8137 31.5 39.5 31.5C36.1863 31.5 33.5 34.1863 33.5 37.5C33.5 40.8137 36.1863 43.5 39.5 43.5ZM39.5 24V27V24ZM39.5 48V51V48ZM53 37.5H50H53ZM29 37.5H26H29ZM49.046 47.046L46.925 44.925L49.046 47.046ZM32.075 30.075L29.954 27.954L32.075 30.075ZM29.954 47.046L32.075 44.925L29.954 47.046Z" stroke="#D40002" stroke-width="2.25" stroke-linecap="round" stroke-linejoin="round"/>
</svg>
