<svg width="76" height="72" viewBox="0 0 76 72" fill="none" xmlns="http://www.w3.org/2000/svg">
<rect x="0.822784" y="0.645508" width="75" height="71.2025" rx="30" fill="white"/>
<path d="M38.0284 49.2491C38.0284 49.1966 38.0284 49.1267 38.0284 49.0743C38.0284 48.1129 38.0284 48.1479 37.1019 48.008C33.0466 47.3788 29.9877 45.2637 27.96 41.6978C27.1909 40.3344 26.7015 38.8661 26.5442 37.3104C26.4917 36.7336 26.2645 36.4365 25.6352 36.5064C25.3031 36.5588 24.9535 36.5239 24.6039 36.5064C24.1145 36.4889 23.7824 36.2791 23.7824 35.7373C23.7824 35.2478 24.132 35.0381 24.5865 35.0206C24.9535 35.0031 25.3206 34.9682 25.6702 35.0206C26.282 35.108 26.4743 34.8283 26.5442 34.269C26.8413 31.8043 27.8027 29.6194 29.4283 27.749C31.4385 25.3893 34.008 23.9909 37.067 23.5189C38.0284 23.3791 38.0284 23.3966 38.0284 22.4177C38.0284 22.1031 38.0109 21.771 38.0458 21.4563C38.0983 21.0193 38.3255 20.7397 38.7975 20.7397C39.2519 20.7571 39.4792 21.0368 39.5141 21.4738C39.5316 21.8409 39.5666 22.208 39.5141 22.5576C39.4267 23.2043 39.7414 23.4315 40.3357 23.5015C42.5032 23.7462 44.4609 24.5677 46.1914 25.8787C48.9357 27.9763 50.5264 30.7381 51.0158 34.1466C51.1381 34.9856 51.1207 34.9856 51.9772 34.9856C52.3442 34.9856 52.7113 34.9682 53.0609 35.0031C53.4979 35.0381 53.7951 35.2828 53.7951 35.7373C53.7951 36.1917 53.4979 36.4365 53.0609 36.4714C52.6764 36.5064 52.2918 36.5239 51.9247 36.4714C51.2955 36.384 51.0857 36.6812 51.0158 37.2755C50.8235 39.2157 50.1068 40.9812 49.0406 42.5893C46.9954 45.6308 44.1113 47.3788 40.528 47.9556C39.5316 48.1129 39.5316 48.0954 39.5316 49.0918C39.5316 49.3889 39.5491 49.7036 39.5316 50.0007C39.4967 50.4552 39.2519 50.7698 38.7625 50.7698C38.308 50.7523 38.0983 50.4377 38.0458 50.0182C38.0284 49.7735 38.0458 49.5113 38.0284 49.2491C38.0458 49.2491 38.0458 49.2491 38.0284 49.2491ZM48.5162 36.5064C48.2889 36.5064 48.0792 36.5239 47.852 36.5064C47.38 36.4714 47.0129 36.2617 47.0304 35.7373C47.0479 35.2478 47.3975 35.0381 47.852 35.0206C48.2715 35.0031 48.691 35.0031 49.128 35.0206C49.5125 35.0381 49.6524 34.8808 49.6174 34.4787C49.093 29.6019 44.8979 25.4068 40.056 24.9523C39.6714 24.9173 39.5491 25.0572 39.5491 25.4242C39.5666 25.8612 39.5666 26.3157 39.5316 26.7527C39.4967 27.2072 39.2694 27.5393 38.7975 27.5393C38.308 27.5393 38.0983 27.1897 38.0633 26.7352C38.0458 26.3157 38.0458 25.8962 38.0633 25.4767C38.0808 25.0397 37.8885 24.9173 37.469 24.9698C32.5048 25.5816 28.5718 29.497 27.9775 34.4263C27.9251 34.8633 28.0649 35.0206 28.4844 35.0031C28.9214 34.9856 29.3759 34.9856 29.8129 35.0206C30.2499 35.0556 30.547 35.3003 30.547 35.7547C30.547 36.2092 30.2324 36.4365 29.8129 36.4889C29.5332 36.5239 29.2535 36.5064 28.9739 36.5064C27.9251 36.5064 27.9251 36.5064 28.0649 37.5552C28.7291 42.1873 32.8544 46.1202 37.504 46.5747C37.8536 46.6096 38.0458 46.5048 38.0458 46.1377C38.0458 45.7007 38.0458 45.2462 38.0633 44.8092C38.0808 44.3548 38.2906 44.0052 38.78 44.0052C39.2694 44.0052 39.4967 44.3373 39.5316 44.7918C39.5666 45.2288 39.5491 45.6832 39.5491 46.1202C39.5316 46.5397 39.7239 46.6271 40.1084 46.5747C44.8804 45.9804 48.7259 42.3271 49.5125 37.66C49.6873 36.5064 49.6873 36.5064 48.5162 36.5064Z" fill="#D40002"/>
<path d="M38.78 50.962C38.7625 50.962 38.7625 50.962 38.745 50.962C38.2381 50.9445 37.9235 50.6124 37.871 50.0531C37.8536 49.8608 37.8536 49.6685 37.871 49.4937C37.871 49.4588 37.871 49.4413 37.871 49.4063L37.8536 49.249V49.0742C37.8536 48.6897 37.8536 48.4449 37.7836 48.3575C37.7137 48.2876 37.5214 48.2527 37.1718 48.2002L37.067 48.1827C32.9767 47.536 29.8478 45.386 27.8027 41.7852C26.9987 40.3868 26.5267 38.8835 26.3519 37.3278C26.3169 37.0307 26.247 36.8559 26.1421 36.7685C26.0547 36.6636 25.88 36.6461 25.6527 36.6811C25.373 36.7161 25.0759 36.6986 24.7962 36.6986C24.7263 36.6986 24.6564 36.6986 24.6039 36.6986C23.9572 36.6461 23.6076 36.314 23.6076 35.7372C23.6076 35.1953 23.9572 34.8632 24.569 34.8457L24.7438 34.8282C25.0584 34.8108 25.373 34.7933 25.6877 34.8282C25.8974 34.8632 26.0547 34.8282 26.1596 34.7583C26.2645 34.6709 26.3344 34.5136 26.3694 34.2165C26.6665 31.7343 27.6454 29.5144 29.2885 27.5916C31.3161 25.2668 33.9206 23.8335 37.0495 23.3616H37.1019C37.4865 23.3091 37.7137 23.2742 37.7836 23.1868C37.8536 23.0994 37.8536 22.8546 37.8536 22.4526C37.8536 22.3652 37.8536 22.2953 37.8536 22.2079C37.8536 21.9632 37.8536 21.7185 37.871 21.4563C37.9235 20.8969 38.2556 20.5823 38.7975 20.5823C39.3219 20.5998 39.654 20.9144 39.6889 21.4737C39.7064 21.8233 39.7414 22.2079 39.6889 22.5924C39.654 22.8372 39.6889 22.9945 39.7763 23.1168C39.8637 23.2392 40.056 23.3091 40.3706 23.3441C42.5381 23.5888 44.5308 24.4103 46.3137 25.7563C49.0755 27.8538 50.7186 30.6856 51.2081 34.1291V34.164C51.2605 34.4961 51.278 34.7059 51.3479 34.7583C51.4178 34.8108 51.6625 34.8108 51.9946 34.8108C52.0646 34.8108 52.152 34.8108 52.2219 34.8108C52.5016 34.8108 52.7987 34.8108 53.0784 34.8282C53.6377 34.8807 53.9699 35.2128 53.9699 35.7372C53.9699 36.2441 53.6203 36.5937 53.0784 36.6461C52.7288 36.6811 52.3093 36.6986 51.8898 36.6461C51.6625 36.6112 51.5052 36.6461 51.4003 36.7161C51.2955 36.8035 51.2255 36.9783 51.1906 37.2754C50.9983 39.1457 50.3166 40.9636 49.1804 42.6766C47.1702 45.6831 44.2511 47.5185 40.5454 48.1303L40.4755 48.1478C40.091 48.2177 39.8462 48.2527 39.7763 48.3401C39.7064 48.4275 39.7064 48.6897 39.7064 49.0917C39.7064 49.1791 39.7064 49.2665 39.7064 49.3539C39.7064 49.5636 39.7064 49.7909 39.6889 50.0181C39.654 50.6124 39.3044 50.962 38.78 50.962ZM38.2032 49.0742L38.2206 49.249C38.2206 49.3364 38.2206 49.4063 38.2206 49.4937C38.2206 49.6685 38.2206 49.8433 38.2206 50.0181C38.2556 50.4027 38.4304 50.6124 38.7625 50.6124C39.1121 50.6299 39.3044 50.4202 39.3393 50.0006C39.3568 49.7909 39.3568 49.5986 39.3568 49.3888C39.3568 49.3014 39.3568 49.2141 39.3568 49.1267C39.3568 48.0779 39.4093 48.0079 40.4231 47.8332L40.493 47.8157C44.1113 47.2214 46.943 45.4384 48.9007 42.5193C50.0194 40.8587 50.6662 39.0933 50.8585 37.2754C50.8934 36.8734 50.9983 36.6287 51.1906 36.4713C51.3654 36.3315 51.6101 36.2791 51.9422 36.314C52.3268 36.3665 52.7113 36.3315 53.0434 36.314C53.3056 36.2965 53.6203 36.1742 53.6203 35.7547C53.6203 35.3352 53.3056 35.2128 53.0434 35.1953C52.7638 35.1778 52.4841 35.1778 52.2219 35.1778C52.1345 35.1778 52.0646 35.1778 51.9772 35.1778C51.0507 35.1778 50.9633 35.1079 50.841 34.2165V34.1815C50.369 30.8254 48.7609 28.0811 46.0865 26.0359C44.3735 24.725 42.4332 23.9384 40.3182 23.6937C39.8987 23.6412 39.654 23.5363 39.4967 23.3266C39.3568 23.1343 39.3044 22.8896 39.3393 22.54C39.3918 22.1904 39.3568 21.8233 39.3393 21.4912C39.3219 21.1241 39.1296 20.9319 38.7975 20.9319C38.4479 20.9144 38.2731 21.1067 38.2381 21.4912C38.2206 21.7185 38.2206 21.9632 38.2206 22.1904C38.2206 22.2778 38.2206 22.3477 38.2206 22.4351C38.2206 23.4664 38.1507 23.5363 37.1718 23.6937H37.1194C34.0605 24.1656 31.5259 25.564 29.5507 27.8538C27.96 29.7067 26.9987 31.8742 26.7015 34.2864C26.6665 34.5486 26.5966 34.8807 26.3694 35.073C26.1946 35.2128 25.9674 35.2478 25.6527 35.2128C25.373 35.1778 25.0759 35.1953 24.7787 35.2128L24.6039 35.2303C24.0271 35.2303 23.9572 35.5274 23.9572 35.7547C23.9572 35.9994 24.0271 36.314 24.6039 36.3315C24.6739 36.3315 24.7438 36.3315 24.8137 36.3315C25.0934 36.349 25.3556 36.349 25.6003 36.314C25.9324 36.2791 26.1771 36.314 26.3519 36.4713C26.6141 36.6811 26.6665 37.0307 26.7015 37.2754C26.8588 38.7961 27.3308 40.247 28.0999 41.5929C30.0926 45.1063 33.134 47.1864 37.1194 47.8157L37.2068 47.8332C38.1507 47.973 38.2032 48.0604 38.2032 49.0742ZM39.9336 46.7494C39.7938 46.7494 39.6365 46.7145 39.5316 46.6271C39.4093 46.5222 39.3568 46.3474 39.3568 46.1027C39.3743 45.7006 39.3743 45.2462 39.3393 44.7917C39.3219 44.512 39.217 44.1799 38.7625 44.1799C38.4129 44.1799 38.2381 44.4071 38.2206 44.8266C38.2032 45.2811 38.2032 45.7531 38.2032 46.1376C38.2032 46.3649 38.1507 46.5222 38.0284 46.6271C37.871 46.7669 37.6263 46.7669 37.469 46.7494C32.767 46.2949 28.5369 42.2746 27.8726 37.59C27.7852 37.0132 27.7503 36.7335 27.9076 36.5413C28.0649 36.349 28.3621 36.349 28.9389 36.349C29.0088 36.349 29.0787 36.349 29.1487 36.349C29.3584 36.349 29.5682 36.349 29.7779 36.3315C30.1625 36.2965 30.3548 36.1043 30.3548 35.7721C30.3548 35.3177 30.0052 35.2303 29.7779 35.2128C29.306 35.1778 28.834 35.1953 28.467 35.1953C28.2922 35.1953 28.0649 35.1778 27.9076 35.0205C27.7503 34.8457 27.7678 34.601 27.7852 34.4262C28.4145 29.3746 32.3824 25.4242 37.4166 24.7774C37.5914 24.7599 37.8536 24.7424 38.0284 24.8998C38.1507 25.0221 38.2206 25.1969 38.2032 25.4591C38.1857 25.8611 38.1857 26.2807 38.2032 26.7177C38.2206 27.1372 38.4129 27.3469 38.7625 27.3469C39.1995 27.3469 39.3044 27.0148 39.3219 26.7351C39.3568 26.2807 39.3393 25.8087 39.3393 25.4242C39.3393 25.2668 39.3568 25.0571 39.4967 24.9172C39.654 24.7774 39.8812 24.7774 40.021 24.7949C44.9503 25.2668 49.2154 29.5144 49.7398 34.4787C49.7572 34.636 49.7572 34.8807 49.6174 35.038C49.4601 35.1953 49.2329 35.2128 49.0755 35.2128C48.6385 35.1953 48.219 35.2128 47.817 35.2128C47.3975 35.2303 47.1702 35.4051 47.1702 35.7547C47.1702 35.8945 47.1528 36.2965 47.8345 36.349C47.9743 36.3665 48.1316 36.349 48.2715 36.349C48.3414 36.349 48.4113 36.349 48.4812 36.349C49.1455 36.349 49.4426 36.349 49.6174 36.5587C49.7922 36.7685 49.7398 37.0831 49.6349 37.7124C48.8483 42.4319 44.9154 46.1726 40.091 46.7669C40.056 46.7494 39.9861 46.7494 39.9336 46.7494ZM29.0613 36.6811C29.0263 36.6811 28.9913 36.6811 28.9739 36.6811C28.5718 36.6811 28.2572 36.6811 28.2048 36.751C28.1523 36.8209 28.1873 37.1356 28.2397 37.5201C28.8865 42.0474 32.9592 45.9453 37.5214 46.3823C37.6613 46.3998 37.7662 46.3823 37.8011 46.3474C37.8536 46.3124 37.8536 46.2075 37.8536 46.1201C37.8536 45.7181 37.8361 45.2462 37.871 44.7742C37.906 44.1799 38.2381 43.8128 38.7625 43.7953H38.78C39.3044 43.7953 39.654 44.1449 39.6889 44.7392C39.7239 45.2112 39.7064 45.6831 39.7064 46.0852C39.7064 46.2075 39.7239 46.3124 39.7588 46.3474C39.7938 46.3823 39.8637 46.3998 40.0735 46.3823C44.758 45.788 48.5511 42.1872 49.3203 37.6075C49.3902 37.153 49.4426 36.8209 49.3727 36.751C49.3028 36.6636 48.9707 36.6636 48.5162 36.6811C48.4463 36.6811 48.3763 36.6811 48.3064 36.6811C48.1491 36.6811 47.9918 36.6811 47.8345 36.6811C47.1877 36.6287 46.8381 36.2965 46.8381 35.7372C46.8556 35.2128 47.2227 34.8807 47.817 34.8632C48.219 34.8457 48.6385 34.8457 49.093 34.8632C49.1979 34.8632 49.3203 34.8632 49.3727 34.8108C49.4076 34.7583 49.4251 34.6709 49.4077 34.5136C48.9007 29.7067 44.7755 25.599 40.0036 25.1445C39.8637 25.127 39.7763 25.1445 39.7414 25.1794C39.7064 25.2144 39.6889 25.3018 39.6889 25.4242C39.6889 25.8262 39.7064 26.2981 39.6714 26.7701C39.6365 27.3644 39.2869 27.714 38.745 27.714C38.2032 27.714 37.871 27.3469 37.8536 26.7526C37.8361 26.3156 37.8361 25.8786 37.8536 25.4766C37.8536 25.3717 37.8536 25.2494 37.7836 25.1969C37.7312 25.1445 37.6263 25.1445 37.4515 25.162C32.5572 25.7738 28.7291 29.6018 28.1348 34.4787C28.1174 34.636 28.1348 34.7583 28.1698 34.7933C28.2048 34.8457 28.3096 34.8632 28.467 34.8632C28.834 34.8457 29.3235 34.8457 29.8129 34.8807C30.3722 34.9156 30.7044 35.2652 30.7044 35.7896C30.7044 36.2965 30.3722 36.6287 29.8129 36.6986C29.5857 36.7161 29.3584 36.7161 29.1487 36.7161C29.1312 36.6811 29.0962 36.6811 29.0613 36.6811Z" fill="#D40002"/>
<path d="M33.571 35.7896C33.571 32.9229 35.8958 30.5457 38.7625 30.5457C41.6292 30.5282 43.9889 32.8879 44.0064 35.7546C44.0239 38.5689 41.6467 40.9636 38.8324 40.9811C35.9657 40.9985 33.571 38.6388 33.571 35.7896ZM42.5032 35.8071C42.5206 33.727 40.8775 32.0489 38.8324 32.0489C36.7174 32.0314 35.0743 33.6396 35.0568 35.7546C35.0393 37.8347 36.6824 39.4778 38.745 39.4953C40.8076 39.4953 42.5032 37.8347 42.5032 35.8071Z" fill="#D40002"/>
<path d="M38.8149 41.1559C37.3816 41.1559 36.0182 40.5965 34.9869 39.5652C33.9556 38.5514 33.3962 37.2055 33.3962 35.7896C33.3962 32.8006 35.791 30.3709 38.7625 30.3709H38.78C41.7515 30.3709 44.1637 32.7831 44.1812 35.7547C44.1812 37.153 43.6219 38.499 42.608 39.5478C41.5767 40.5791 40.2483 41.1559 38.8324 41.1559H38.8149ZM33.7458 35.7896C33.7458 37.1181 34.2877 38.3591 35.2316 39.3205C36.2105 40.2819 37.4865 40.8063 38.8324 40.8063C40.1434 40.8063 41.4019 40.2644 42.3458 39.2856C43.3072 38.3242 43.8316 37.0656 43.8316 35.7372C43.8141 32.9579 41.5593 30.703 38.78 30.703H38.7625C35.9832 30.738 33.7283 33.0104 33.7458 35.7896ZM38.78 39.6526H38.7625C36.5775 39.6352 34.882 37.9222 34.8995 35.7372C34.917 33.5522 36.63 31.8567 38.8324 31.8567H38.8499C41.0174 31.8742 42.6954 33.6047 42.6954 35.7896C42.6954 36.8209 42.2759 37.7823 41.5418 38.5165C40.7902 39.2506 39.8113 39.6526 38.78 39.6526ZM38.8149 32.2063C36.7873 32.2063 35.2491 33.727 35.2316 35.7372C35.2141 37.7299 36.7698 39.2856 38.745 39.3031H38.7625C39.7064 39.3031 40.5979 38.936 41.2796 38.2717C41.9438 37.6075 42.3109 36.7335 42.3284 35.7896C42.3458 33.7795 40.8076 32.2063 38.8324 32.2063C38.8324 32.2063 38.8324 32.2063 38.8149 32.2063Z" fill="#D40002"/>
</svg>
