<svg width="75" height="72" viewBox="0 0 75 72" fill="none" xmlns="http://www.w3.org/2000/svg">
<rect y="0.253174" width="75" height="71.2025" rx="30" fill="white"/>
<path d="M38.1406 50.566C35.8182 50.566 33.4752 50.5454 31.1529 50.5866C30.5101 50.5866 30.282 50.3807 30.3027 49.7427C30.3442 47.705 30.0746 48.0137 32.003 47.9932C36.0463 47.9726 40.0896 47.9932 44.133 47.9932C45.8747 47.9932 46.3723 47.6021 46.7041 45.8937C47.3469 42.5594 47.9897 39.225 48.6117 35.8907C48.9228 34.2029 48.2385 33.4002 46.5175 33.3796C44.2988 33.3796 42.0595 33.359 39.8408 33.3796C39.1358 33.3796 38.8455 33.1326 38.887 32.4328C38.9077 31.9594 38.97 31.5272 39.1358 31.0744C39.9445 28.9749 40.5251 26.8138 40.8361 24.5909C40.919 24.0351 40.9812 23.4383 40.4007 23.0472C40.0067 22.7796 39.5505 22.8002 39.1358 23.0266C38.5553 23.3148 38.5553 23.9117 38.4723 24.4262C38.2857 25.7229 38.0161 27.0196 37.5185 28.234C35.7768 32.6386 32.5628 35.5613 28.0841 37.0844C27.4828 37.2903 27.2961 37.5578 27.2961 38.1753C27.3169 41.9625 27.3169 45.7291 27.3169 49.5163C27.3169 50.5454 27.3169 50.566 26.3009 50.5454C24.4969 50.5248 24.725 50.7512 24.725 49.0017C24.7043 44.7823 24.725 40.5629 24.6835 36.3435C24.6835 35.5202 24.9116 35.1703 25.7203 34.985C29.8258 34.0794 32.8946 31.7947 34.74 27.987C35.445 26.5256 35.6109 24.9408 35.9219 23.3765C36.5025 20.4126 39.8616 19.1983 42.1631 21.1124C43.4072 22.1416 43.6353 23.5206 43.3865 25.0437C43.117 26.7315 42.7645 28.3781 42.2253 30.0041C42.0387 30.5598 42.2046 30.7245 42.7645 30.7245C44.0293 30.7039 45.2941 30.7039 46.5797 30.7245C49.6692 30.7245 51.6805 33.0503 51.1621 36.0553C50.5401 39.6778 49.8766 43.3004 49.1923 46.9023C48.7569 49.2075 47.0566 50.566 44.7135 50.5866C43.5939 50.5866 42.4949 50.5866 41.3752 50.5866C40.3177 50.566 39.2188 50.566 38.1406 50.566Z" fill="#D40002"/>
</svg>
