<svg width="16" height="22" viewBox="0 0 16 22" fill="none" xmlns="http://www.w3.org/2000/svg">
<path d="M15.812 8.91817C15.823 11.5574 14.9491 13.9225 13.6328 16.1276C12.4381 18.1385 10.9447 19.898 9.21906 21.4405C8.67702 21.9318 8.36729 21.9546 7.8695 21.509C5.42481 19.3153 3.4226 16.7675 2.16153 13.6369C1.2987 11.5232 0.88941 9.32948 1.36507 7.03296C2.03985 3.73101 5.0487 1.27453 8.32304 1.1717C11.9292 1.06887 15.3142 3.82241 15.812 7.8099C15.8562 8.17551 15.812 8.55255 15.812 8.91817ZM14.4735 8.81534C14.4292 8.40402 14.396 7.9927 14.3297 7.58139C13.8098 4.62219 11.0664 2.31425 7.8695 2.66844C5.5133 2.94265 3.45578 4.70217 2.82525 7.07867C2.37171 8.76964 2.61507 10.4263 3.11286 12.0487C4.07525 15.1565 5.96684 17.6244 8.2456 19.8066C8.47791 20.0351 8.64384 19.9552 8.84295 19.7609C10.2036 18.447 11.4204 17.0188 12.4049 15.385C13.6217 13.3741 14.4071 11.2147 14.4735 8.81534Z" fill="#D40002"/>
<path d="M8.49948 21.9994C8.26718 21.9994 8.03487 21.8737 7.76939 21.6452C5.05921 19.223 3.17868 16.618 1.99505 13.7159C1.03266 11.2937 0.767175 9.10001 1.19859 6.99773C1.87337 3.68434 4.93753 1.10219 8.31142 0.999359C10.1256 0.953657 11.9176 1.59348 13.3335 2.82743C14.7937 4.08423 15.7229 5.84376 15.9774 7.78608C16.0105 8.04887 15.9995 8.31166 15.9884 8.57444C15.9884 8.6887 15.9774 8.80295 15.9774 8.9172C15.9884 11.3166 15.2694 13.7045 13.776 16.2181C12.6145 18.1718 11.1212 19.9656 9.32912 21.5652C9.01939 21.8623 8.7539 21.9994 8.49948 21.9994ZM8.5216 1.34212C8.45523 1.34212 8.38886 1.34212 8.32248 1.34212C5.0924 1.44495 2.17204 3.90143 1.51939 7.06628C1.1101 9.10001 1.36452 11.2251 2.31585 13.5788C3.46629 16.4466 5.3247 18.9945 8.00169 21.3824C8.4331 21.7594 8.64328 21.748 9.13001 21.3138C10.8889 19.7371 12.3712 17.9662 13.5105 16.0467C14.9707 13.5902 15.6787 11.2594 15.6676 8.92863C15.6676 8.81438 15.6676 8.68869 15.6787 8.56301C15.6897 8.31165 15.7008 8.07172 15.6676 7.83179C15.1809 4.15279 12.0725 1.34212 8.5216 1.34212ZM8.51054 20.1142C8.39992 20.1142 8.26718 20.0685 8.12337 19.9314C5.45744 17.3606 3.80921 14.8699 2.94638 12.0935C2.33797 10.1512 2.24948 8.54016 2.64771 7.032C3.2893 4.60981 5.38001 2.79316 7.83576 2.51895C10.9995 2.16476 13.9198 4.3813 14.484 7.569C14.5393 7.85464 14.5614 8.14027 14.5946 8.41448C14.6057 8.54016 14.6167 8.67727 14.6389 8.80295V8.8258C14.5725 11.0766 13.8866 13.2475 12.5371 15.4754C11.6189 17.0064 10.4464 18.446 8.94195 19.8857C8.86452 19.9656 8.70965 20.1142 8.51054 20.1142ZM8.51054 2.81601C8.30036 2.81601 8.09018 2.82743 7.88001 2.85028C5.557 3.11307 3.58797 4.82689 2.97956 7.11198C2.5924 8.56302 2.69195 10.1055 3.26718 11.9792C4.10788 14.6985 5.73399 17.1435 8.35567 19.6686C8.48841 19.8057 8.54372 19.7942 8.72071 19.6229C10.203 18.2061 11.3535 16.7779 12.2605 15.2812C13.5658 13.1103 14.2406 10.9966 14.307 8.81438C14.2959 8.6887 14.2738 8.56301 14.2627 8.43734C14.2296 8.16312 14.2074 7.87749 14.1521 7.6147C13.6654 4.82689 11.2539 2.81601 8.51054 2.81601Z" fill="#D40002"/>
<path d="M11.8629 8.75821C11.8629 10.712 10.3916 12.2201 8.50002 12.2201C6.63055 12.2201 5.17038 10.7005 5.17038 8.75821C5.17038 6.80445 6.63055 5.29629 8.53321 5.29629C10.4027 5.30771 11.8629 6.8273 11.8629 8.75821ZM10.4691 8.76963C10.4801 7.68421 9.57303 6.74732 8.51109 6.74732C7.4602 6.74732 6.58631 7.63851 6.56418 8.73536C6.531 9.80935 7.43808 10.7691 8.50002 10.7805C9.53985 10.7919 10.458 9.85505 10.4691 8.76963Z" fill="#D40002"/>
<path d="M8.50002 12.3915C6.531 12.3915 5.00445 10.7919 5.00445 8.7582C5.00445 7.76419 5.36949 6.85015 6.02215 6.17605C6.6748 5.50195 7.57082 5.12491 8.53321 5.12491C8.53321 5.12491 8.53321 5.12491 8.54427 5.12491C10.5022 5.12491 12.0398 6.72447 12.0398 8.74678C12.0398 9.72937 11.6748 10.6548 11.0221 11.3289C10.3584 12.0145 9.46241 12.3915 8.50002 12.3915ZM8.53321 5.4791C7.65932 5.4791 6.85179 5.81044 6.25445 6.42741C5.66816 7.03296 5.33631 7.86702 5.33631 8.76963C5.33631 10.6091 6.73011 12.0487 8.50002 12.0602C9.37392 12.0602 10.1814 11.7174 10.7788 11.1118C11.3761 10.4949 11.6969 9.67224 11.6969 8.76963C11.6969 6.9187 10.3142 5.4791 8.53321 5.4791ZM8.52215 10.9519C8.51109 10.9519 8.50002 10.9519 8.48896 10.9519C7.9248 10.9405 7.38277 10.6891 6.97347 10.2549C6.57524 9.8322 6.36507 9.28378 6.38719 8.72393C6.42038 7.53568 7.37171 6.57594 8.50002 6.56452C9.04206 6.56452 9.59516 6.80445 9.99339 7.21577C10.3916 7.62708 10.6239 8.19836 10.6239 8.7582C10.6239 9.32948 10.3806 9.90075 9.97126 10.3121C9.5841 10.7234 9.05312 10.9519 8.52215 10.9519ZM8.52215 6.9187C8.51109 6.9187 8.51109 6.9187 8.52215 6.9187C7.55976 6.9187 6.7633 7.74134 6.73011 8.74678C6.71905 9.21522 6.89604 9.67224 7.2279 10.0264C7.57082 10.392 8.03542 10.6091 8.50002 10.6206C8.51109 10.6206 8.52215 10.6206 8.52215 10.6206C8.96463 10.6206 9.4071 10.4263 9.73896 10.0836C10.0929 9.72937 10.2921 9.2495 10.2921 8.76963C10.2921 8.30119 10.104 7.82132 9.76109 7.46713C9.44029 7.11294 8.97569 6.9187 8.52215 6.9187Z" fill="#D40002"/>
</svg>
