<svg width="22" height="23" viewBox="0 0 22 23" fill="none" xmlns="http://www.w3.org/2000/svg">
<path d="M17.1551 9.16902H15.6172C15.6165 8.51925 15.3733 7.89628 14.9408 7.43683C14.5083 6.97737 13.9219 6.71897 13.3103 6.71832V5.08451C14.3296 5.08581 15.3068 5.51656 16.0276 6.28227C16.7484 7.04798 17.1539 8.08614 17.1551 9.16902Z" fill="#D40002"/>
<path d="M20.231 9.16902H18.693C18.6914 7.65296 18.1238 6.19949 17.1147 5.12747C16.1055 4.05546 14.7374 3.45244 13.3103 3.45071V1.8169C15.1451 1.81906 16.9042 2.59435 18.2017 3.97268C19.4991 5.351 20.2289 7.21978 20.231 9.16902Z" fill="#D40002"/>
<path d="M18.6931 22.2395H18.5623C3.45211 21.3164 1.30668 7.77212 1.00679 3.6386C0.959914 2.99059 1.15726 2.34933 1.55542 1.85589C1.95357 1.36244 2.51993 1.05722 3.12991 1.00735C3.19091 1.00245 3.25217 1 3.31369 1H7.36615C7.67417 0.999684 7.97518 1.09763 8.23019 1.28115C8.4852 1.46467 8.68247 1.7253 8.79643 2.0293L9.96527 5.08451C10.0778 5.38149 10.1057 5.70706 10.0456 6.02076C9.98543 6.33446 9.83985 6.62247 9.62692 6.84902L7.98902 8.60536C8.24382 10.1504 8.93976 11.5748 9.98244 12.6854C11.0251 13.796 12.3641 14.5391 13.8178 14.8138L15.4865 13.0575C15.7029 12.8338 15.9766 12.6827 16.2733 12.6232C16.5701 12.5636 16.8768 12.5982 17.1551 12.7225L20.0541 13.9561C20.336 14.081 20.5764 14.2922 20.7449 14.5628C20.9133 14.8334 21.0021 15.1511 21 15.4755V19.7888C21 20.4387 20.7569 21.0621 20.3243 21.5217C19.8917 21.9813 19.3049 22.2395 18.6931 22.2395ZM3.31369 2.63381C3.21271 2.63348 3.11265 2.65429 3.01924 2.69505C2.92583 2.73581 2.84089 2.79571 2.76927 2.87134C2.69765 2.94697 2.64076 3.03684 2.60183 3.13583C2.56291 3.23482 2.54272 3.34098 2.54242 3.44826C2.54242 3.47113 2.54318 3.49373 2.54472 3.51606C2.89845 8.35212 5.1669 19.7888 18.6469 20.6057C18.8504 20.6186 19.0505 20.5452 19.203 20.4015C19.3556 20.2578 19.4482 20.0556 19.4605 19.8394L19.462 19.7888V15.4755L16.563 14.242L14.3561 16.5702L13.987 16.5211C7.29695 15.6307 6.38956 8.52367 6.38956 8.45015L6.34343 8.05804L8.5273 5.71353L7.37384 2.63381H3.31369Z" fill="#D40002"/>
<path d="M17.1551 9.16902H15.6172C15.6165 8.51925 15.3733 7.89628 14.9408 7.43683C14.5083 6.97737 13.9219 6.71897 13.3103 6.71832V5.08451C14.3296 5.08581 15.3068 5.51656 16.0276 6.28227C16.7484 7.04798 17.1539 8.08614 17.1551 9.16902Z" stroke="#D40002" stroke-width="0.2"/>
<path d="M20.231 9.16902H18.693C18.6914 7.65296 18.1238 6.19949 17.1147 5.12747C16.1055 4.05546 14.7374 3.45244 13.3103 3.45071V1.8169C15.1451 1.81906 16.9042 2.59435 18.2017 3.97268C19.4991 5.351 20.2289 7.21978 20.231 9.16902Z" stroke="#D40002" stroke-width="0.2"/>
<path d="M18.6931 22.2395H18.5623C3.45211 21.3164 1.30668 7.77212 1.00679 3.6386C0.959914 2.99059 1.15726 2.34933 1.55542 1.85589C1.95357 1.36244 2.51993 1.05722 3.12991 1.00735C3.19091 1.00245 3.25217 1 3.31369 1H7.36615C7.67417 0.999684 7.97518 1.09763 8.23019 1.28115C8.4852 1.46467 8.68247 1.7253 8.79643 2.0293L9.96527 5.08451C10.0778 5.38149 10.1057 5.70706 10.0456 6.02076C9.98543 6.33446 9.83985 6.62247 9.62692 6.84902L7.98902 8.60536C8.24382 10.1504 8.93976 11.5748 9.98244 12.6854C11.0251 13.796 12.3641 14.5391 13.8178 14.8138L15.4865 13.0575C15.7029 12.8338 15.9766 12.6827 16.2733 12.6232C16.5701 12.5636 16.8768 12.5982 17.1551 12.7225L20.0541 13.9561C20.336 14.081 20.5764 14.2922 20.7449 14.5628C20.9133 14.8334 21.0021 15.1511 21 15.4755V19.7888C21 20.4387 20.7569 21.0621 20.3243 21.5217C19.8917 21.9813 19.3049 22.2395 18.6931 22.2395ZM3.31369 2.63381C3.21271 2.63348 3.11265 2.65429 3.01924 2.69505C2.92583 2.73581 2.84089 2.79571 2.76927 2.87134C2.69765 2.94697 2.64076 3.03684 2.60183 3.13583C2.56291 3.23482 2.54272 3.34098 2.54242 3.44826C2.54242 3.47113 2.54318 3.49373 2.54472 3.51606C2.89845 8.35212 5.1669 19.7888 18.6469 20.6057C18.8504 20.6186 19.0505 20.5452 19.203 20.4015C19.3556 20.2578 19.4482 20.0556 19.4605 19.8394L19.462 19.7888V15.4755L16.563 14.242L14.3561 16.5702L13.987 16.5211C7.29695 15.6307 6.38956 8.52367 6.38956 8.45015L6.34343 8.05804L8.5273 5.71353L7.37384 2.63381H3.31369Z" stroke="#D40002" stroke-width="0.2"/>
</svg>
