<svg width="175" height="38" viewBox="0 0 175 38" fill="none" xmlns="http://www.w3.org/2000/svg">
<path fill-rule="evenodd" clip-rule="evenodd" d="M16.9884 11.7773H10.7877L9.57838 23.7638H15.7272L16.9884 11.7773ZM19.0376 11.7773L17.7764 23.7638H25.2023L25.0454 25.5588H17.6174L16.3561 37.2844H14.3064L15.5676 25.5588H9.37018L8.16195 37.2844H6.11217L7.37286 25.5588H0L0.156288 23.7638H7.52915L8.79038 11.7773H1.36506L1.52135 9.9807H8.94995L9.94724 0.263184H11.9965L10.9964 9.9807H17.1447L18.142 0.263184H20.1912L19.1945 9.9807H26.6231L26.463 11.7773H19.0376Z" fill="#D40002"/>
<path fill-rule="evenodd" clip-rule="evenodd" d="M36.7928 5.59748V32.0015H40.0513C41.8918 32.0015 42.9929 31.0524 42.9929 28.4116V9.18855C42.9929 6.54825 41.8918 5.59748 40.0513 5.59748H36.7928ZM31.0161 0.316895H40.1541C45.9345 0.316895 48.7729 3.53776 48.7729 9.45329V28.1468C48.7729 34.0607 45.9345 37.2843 40.1541 37.2843H31.0161V0.316895Z" fill="#D40002"/>
<path fill-rule="evenodd" clip-rule="evenodd" d="M52.4461 0.316895H58.226V37.2843H52.4461V0.316895Z" fill="#D40002"/>
<path fill-rule="evenodd" clip-rule="evenodd" d="M68.2061 15.8945H76.1402V21.1751H68.2061V32.0015H78.1888V37.2843H62.425V0.316895H78.1888V5.59748H68.2061V15.8945Z" fill="#D40002"/>
<path fill-rule="evenodd" clip-rule="evenodd" d="M97.7817 0.316895V5.49202L86.8005 32.0015H97.7817V37.2843H80.8638V32.1086L91.8449 5.59748H81.3884V0.316895H97.7817Z" fill="#D40002"/>
<path fill-rule="evenodd" clip-rule="evenodd" d="M107.55 37.2843V2.53536H100.035V0.316895H117.426V2.53536H109.967V37.2843H107.55Z" fill="#D40002"/>
<path fill-rule="evenodd" clip-rule="evenodd" d="M133.026 17.4264V19.6448H122.991V35.0653H135.077V37.2843H120.576V0.316895H135.077V2.53536H122.991V17.4264H133.026Z" fill="#D40002"/>
<path fill-rule="evenodd" clip-rule="evenodd" d="M154.722 9.34566V12.41H152.41V9.18858C152.41 5.22731 150.885 2.21681 146.841 2.21681C142.794 2.21681 141.273 5.22786 141.273 9.18858V28.4116C141.273 32.3712 142.794 35.3279 146.841 35.3279C150.885 35.3279 152.41 32.3712 152.41 28.4116V24.0285H154.722V28.2523C154.722 33.5873 152.41 37.6002 146.788 37.6002C141.165 37.6002 138.856 33.5873 138.856 28.2523L138.857 9.34566C138.857 4.01344 141.164 0 146.788 0C152.41 0 154.722 4.01344 154.722 9.34566Z" fill="#D40002"/>
<path fill-rule="evenodd" clip-rule="evenodd" d="M161.074 19.9079V37.2843H158.659V0.316895H161.074V17.6911H172.529V0.316895H175V37.2843H172.529V19.9079H161.074Z" fill="#D40002"/>
</svg>
