<svg width="147" height="50" viewBox="0 0 147 50" fill="none" xmlns="http://www.w3.org/2000/svg">
<path d="M9.77294 27.8297C7.06983 17.1659 9.3982 7.65876 15.1342 4.63135C11.7091 6.28586 8.77114 8.79278 6.58017 11.8755C3.16006 17.1081 2.31066 25.3354 5.79572 33.1202C9.20084 40.7289 15.2191 45.4309 20.3081 47.0955C21.7671 47.3947 23.2785 47.5532 24.8249 47.5532C25.1172 47.5532 25.4095 47.5431 25.6993 47.5305C21.075 46.0721 13.2105 41.3877 9.77294 27.8297Z" fill="#006A44"/>
<path d="M29.6716 17.1812C32.7669 9.5599 39.4222 8.42337 42.3202 10.8775C39.05 6.77388 34.3858 3.84705 29.0495 2.82367C25.7368 2.69795 19.2314 6.69091 17.9572 17.7872C16.3684 31.6293 22.7214 43.1279 29.1619 47.1284C30.531 46.8569 31.85 46.4621 33.1167 45.9542C28.2451 40.4978 25.2222 28.1342 29.6716 17.1812Z" fill="#006A44"/>
<path d="M5.79571 33.1206C2.31064 25.3359 3.16005 17.1086 6.58016 11.876C3.95199 15.5722 2.40308 20.0957 2.40308 24.9864C2.40308 35.8941 10.0902 44.9914 20.3081 47.096C15.2191 45.4314 9.20083 40.7294 5.79571 33.1206Z" fill="#F78222"/>
<path d="M17.9572 17.7873C19.2313 6.69101 25.7368 2.69805 29.0494 2.82377C27.6804 2.56227 26.2689 2.41895 24.8249 2.41895C21.3523 2.41895 18.0671 3.21351 15.1342 4.63167C9.39817 7.65908 7.0698 17.1662 9.77291 27.8301C13.2105 41.388 21.075 46.0725 25.6993 47.5308C26.8785 47.4856 28.0351 47.3498 29.1619 47.1285C22.7214 43.128 16.3683 31.6294 17.9572 17.7873Z" fill="#F78222"/>
<path d="M51.9585 18.5466L52.3632 17.0329C52.4007 16.8871 52.5081 16.4244 52.5081 16.4244H52.5256C52.5256 16.4244 52.643 16.8745 52.6905 17.0656L53.0852 18.5466H53.5649L54.3193 15.8059H53.8022L53.4674 17.2944C53.4299 17.473 53.3425 17.9381 53.3425 17.9381H53.3225C53.3225 17.9381 53.2476 17.571 53.1701 17.2768L52.7929 15.8059H52.2808L51.871 17.3196C51.8086 17.5534 51.7486 17.9381 51.7486 17.9381H51.7311C51.7311 17.9381 51.6512 17.5434 51.5912 17.2718L51.2465 15.748L50.7468 15.8285L51.4838 18.5466H51.9585Z" fill="#636468"/>
<path d="M55.9307 18.5466L56.3354 17.0329C56.3729 16.8871 56.4803 16.4244 56.4803 16.4244H56.4978C56.4978 16.4244 56.6152 16.8745 56.6627 17.0656L57.0574 18.5466H57.5371L58.2916 15.8059H57.7744L57.4397 17.2944C57.4022 17.473 57.3147 17.9381 57.3147 17.9381H57.2948C57.2948 17.9381 57.2198 17.571 57.1449 17.2768L56.7651 15.8059H56.2555L55.8458 17.3196C55.7808 17.5534 55.7209 17.9381 55.7209 17.9381H55.7059C55.7059 17.9381 55.6234 17.5434 55.5635 17.2718L55.2187 15.748L54.7191 15.8285L55.456 18.5466H55.9307Z" fill="#636468"/>
<path d="M59.9029 18.5466L60.3077 17.0329C60.3451 16.8871 60.4526 16.4244 60.4526 16.4244H60.47C60.47 16.4244 60.5875 16.8745 60.6374 17.0656L61.0296 18.5466H61.5093L62.2638 15.8059H61.7466L61.4119 17.2944C61.3744 17.473 61.2895 17.9381 61.2895 17.9381H61.267C61.267 17.9381 61.192 17.571 61.1171 17.2768L60.7398 15.8059H60.2277L59.818 17.3196C59.753 17.5534 59.6931 17.9381 59.6931 17.9381H59.6781C59.6781 17.9381 59.5957 17.5434 59.5382 17.2718L59.1934 15.748L58.6913 15.8285L59.4308 18.5466H59.9029Z" fill="#636468"/>
<path d="M62.9732 18.6018C63.1931 18.6018 63.3555 18.4157 63.3555 18.1945C63.3555 17.9707 63.1931 17.7871 62.9732 17.7871C62.7509 17.7871 62.591 17.9707 62.591 18.1945C62.591 18.4157 62.7509 18.6018 62.9732 18.6018Z" fill="#636468"/>
<path d="M66.4583 18.5239L65.2567 16.9574L66.221 15.8008H65.6164L64.7271 16.9775L65.8388 18.5239H66.4583Z" fill="#636468"/>
<path d="M64.1774 18.5238H64.672V15.1394C64.672 14.9181 64.642 14.6893 64.6096 14.5435L64.1074 14.6616C64.1499 14.82 64.1774 15.0036 64.1774 15.2802V18.5238Z" fill="#636468"/>
<path d="M67.8799 18.5842C68.2321 18.5842 68.5494 18.471 68.8117 18.2372L68.6244 17.938C68.4295 18.1115 68.2146 18.1995 67.9623 18.1995C67.7025 18.1995 67.4827 18.0964 67.3428 17.8801C67.2603 17.7494 67.2278 17.5709 67.2278 17.337V17.2716H68.8717V17.1836C68.8667 16.56 68.7818 16.2583 68.5444 16.0119C68.3546 15.8183 68.1122 15.7202 67.8099 15.7202C67.4777 15.7202 67.2128 15.8384 66.9955 16.0949C66.7657 16.3715 66.6732 16.6757 66.6732 17.1459C66.6732 18.036 67.1304 18.5842 67.8799 18.5842ZM67.7999 16.0999C67.9723 16.0999 68.1022 16.1804 68.1872 16.291C68.2946 16.4243 68.3546 16.643 68.3546 16.902H67.2328C67.2328 16.4092 67.4227 16.0999 67.7999 16.0999Z" fill="#636468"/>
<path d="M69.5886 18.5238H70.0833V16.7713C70.0833 16.4746 70.3431 16.2181 70.6429 16.2181C70.6979 16.2181 70.7353 16.2307 70.7853 16.2457L70.9552 15.7479C70.9127 15.7303 70.8552 15.7202 70.7903 15.7202C70.503 15.7202 70.2732 15.8761 70.0558 16.1929V16.1426C70.0558 16.0069 70.0133 15.8283 69.9659 15.7252L69.4862 15.851C69.5487 16.0194 69.5886 16.198 69.5886 16.5274V18.5238Z" fill="#636468"/>
<path d="M72.6915 16.8445C71.8171 16.8445 71.3174 17.1789 71.3174 17.8101C71.3174 18.3306 71.6522 18.6072 72.1893 18.6072C72.659 18.6072 72.8864 18.3356 72.9563 18.2476C73.0213 18.4387 73.1487 18.5745 73.3161 18.6398L73.5709 18.3029C73.3585 18.1722 73.3485 18.0213 73.3485 17.6466C73.3485 17.2493 73.371 16.8319 73.371 16.6383C73.371 16.3718 73.3585 16.2788 73.3161 16.1606C73.2136 15.8714 72.9288 15.7256 72.5341 15.7256C72.012 15.7256 71.6672 15.9318 71.4024 16.0826L71.6297 16.4422C71.8496 16.2737 72.1743 16.1329 72.4592 16.1329C72.8364 16.1329 72.8814 16.3492 72.8814 16.6685V16.8495C72.8089 16.8445 72.7564 16.8445 72.6915 16.8445ZM72.8539 17.8855C72.729 18.1017 72.5141 18.2426 72.2868 18.2426C72.012 18.2426 71.8621 18.0691 71.8621 17.7698C71.8621 17.5913 71.8995 17.4932 72.002 17.3751C72.1094 17.2493 72.3367 17.1789 72.7065 17.1789C72.7514 17.1789 72.7939 17.184 72.8689 17.1915L72.8539 17.8855Z" fill="#636468"/>
<path d="M75.0523 18.2274C74.75 18.2274 74.4427 18.1017 74.1829 17.9559L74.0056 18.3129C74.3178 18.499 74.6851 18.6021 75.0148 18.6021C75.6444 18.6021 76.0766 18.2325 76.0766 17.6894C76.0766 17.3323 75.8717 17.0431 75.3746 16.93L75.0248 16.8495C74.74 16.7841 74.6426 16.676 74.6426 16.4799C74.6426 16.236 74.825 16.0726 75.1123 16.0726C75.3271 16.0726 75.527 16.143 75.7743 16.2687L75.9417 15.9167C75.7194 15.7859 75.4196 15.6929 75.0898 15.6929C74.5077 15.6929 74.113 16.0399 74.113 16.5402C74.113 16.94 74.3453 17.2066 74.7725 17.2946L75.0998 17.36C75.4121 17.4178 75.552 17.5536 75.552 17.7874C75.552 18.0539 75.3471 18.2274 75.0523 18.2274Z" fill="#636468"/>
<path d="M76.7986 18.5242H77.3007V16.1606H77.8828L78.0127 15.8061H77.2957V15.3686C77.2957 15.092 77.4306 14.9336 77.6555 14.9336C77.7804 14.9336 77.8878 14.9763 78.0077 15.0367L78.1726 14.7123C78.0077 14.6092 77.8079 14.564 77.5855 14.564C77.3857 14.564 77.2258 14.6042 77.0959 14.6947C76.951 14.7978 76.7936 15.004 76.7936 15.3736C76.7936 15.4164 76.7936 15.7533 76.8036 15.8061H76.5413V16.1606H76.7986V18.5242Z" fill="#636468"/>
<path d="M79.4842 18.5842C79.834 18.5842 80.1538 18.471 80.4161 18.2372L80.2287 17.938C80.0339 18.1115 79.819 18.1995 79.5642 18.1995C79.3069 18.1995 79.0845 18.0964 78.9446 17.8801C78.8647 17.7494 78.8322 17.5709 78.8322 17.337V17.2716H80.476V17.1836C80.4711 16.56 80.3836 16.2583 80.1463 16.0119C79.9589 15.8183 79.7166 15.7202 79.4143 15.7202C79.0795 15.7202 78.8147 15.8384 78.5999 16.0949C78.3675 16.3715 78.2776 16.6757 78.2776 17.1459C78.2776 18.036 78.7348 18.5842 79.4842 18.5842ZM79.4043 16.0999C79.5767 16.0999 79.7041 16.1804 79.7915 16.291C79.899 16.4243 79.9589 16.643 79.9589 16.902H78.8372C78.8372 16.4092 79.0271 16.0999 79.4043 16.0999Z" fill="#636468"/>
<path d="M81.1905 18.5238H81.6877V16.7713C81.6877 16.4746 81.945 16.2181 82.2473 16.2181C82.3022 16.2181 82.3397 16.2307 82.3872 16.2457L82.5595 15.7479C82.5171 15.7303 82.4571 15.7202 82.3922 15.7202C82.1074 15.7202 81.875 15.8761 81.6602 16.1929V16.1426C81.6602 16.0069 81.6177 15.8283 81.5677 15.7252L81.0881 15.851C81.153 16.0194 81.1905 16.198 81.1905 16.5274V18.5238Z" fill="#636468"/>
<path d="M84.2959 16.8445C83.4215 16.8445 82.9218 17.1789 82.9218 17.8101C82.9218 18.3306 83.2541 18.6072 83.7937 18.6072C84.2634 18.6072 84.4882 18.3356 84.5582 18.2476C84.6231 18.4387 84.753 18.5745 84.9204 18.6398L85.1727 18.3029C84.9629 18.1722 84.9529 18.0213 84.9529 17.6466C84.9529 17.2493 84.9754 16.8319 84.9754 16.6383C84.9754 16.3718 84.9629 16.2788 84.9204 16.1606C84.818 15.8714 84.5332 15.7256 84.1385 15.7256C83.6163 15.7256 83.2716 15.9318 83.0068 16.0826L83.2341 16.4422C83.4539 16.2737 83.7787 16.1329 84.0635 16.1329C84.4408 16.1329 84.4832 16.3492 84.4832 16.6685V16.8495C84.4133 16.8445 84.3608 16.8445 84.2959 16.8445ZM84.4557 17.8855C84.3333 18.1017 84.1185 18.2426 83.8911 18.2426C83.6163 18.2426 83.4639 18.0691 83.4639 17.7698C83.4639 17.5913 83.5014 17.4932 83.6063 17.3751C83.7138 17.2493 83.9386 17.1789 84.3108 17.1789C84.3533 17.1789 84.3983 17.184 84.4732 17.1915L84.4557 17.8855Z" fill="#636468"/>
<path d="M86.2345 18.6018C86.4569 18.6018 86.6193 18.4157 86.6193 18.1945C86.6193 17.9707 86.4569 17.7871 86.2345 17.7871C86.0147 17.7871 85.8523 17.9707 85.8523 18.1945C85.8523 18.4157 86.0147 18.6018 86.2345 18.6018Z" fill="#636468"/>
<path d="M87.4386 18.5238H87.9333V16.7713C87.9333 16.4746 88.1931 16.2181 88.4954 16.2181C88.5478 16.2181 88.5853 16.2307 88.6353 16.2457L88.8077 15.7479C88.7627 15.7303 88.7052 15.7202 88.6403 15.7202C88.353 15.7202 88.1231 15.8761 87.9058 16.1929V16.1426C87.9058 16.0069 87.8633 15.8283 87.8158 15.7252L87.3362 15.851C87.4011 16.0194 87.4386 16.198 87.4386 16.5274V18.5238Z" fill="#636468"/>
<path d="M90.1268 18.6172C90.4616 18.6172 90.7264 18.4915 90.9412 18.2275C90.9887 18.411 91.0586 18.5141 91.1935 18.6172L91.5333 18.3457C91.4259 18.2526 91.3659 18.059 91.3659 17.7824V15.7356L90.8763 15.8337V17.7874C90.7638 18.0263 90.504 18.2149 90.2617 18.2149C90.1418 18.2149 90.0194 18.1621 89.9494 18.0967C89.852 18.0037 89.8245 17.8956 89.8245 17.619V15.7256L89.3348 15.8236V17.7548C89.3348 17.9509 89.3498 18.1018 89.3998 18.2099C89.5122 18.4588 89.782 18.6172 90.1268 18.6172Z" fill="#636468"/>
<path d="M49.715 32.8339H54.7939V31.0084H49.715V25.4213H55.4785V23.543H46.5597V40.5055H55.7982V38.6272H49.715V32.8339Z" fill="#636468"/>
<path d="M62.9408 23.543H57.7894V40.5055H60.9447V35.2101H63.0108C65.4116 35.2101 68.2946 33.6159 68.2946 29.286C68.2946 25.3961 66.236 23.543 62.9408 23.543ZM62.6435 33.5379H60.9447V25.2402H62.6435C64.085 25.2402 64.887 26.2309 64.887 29.4419C64.887 32.678 64.0625 33.5379 62.6435 33.5379Z" fill="#636468"/>
<path d="M72.9013 23.543L67.9598 40.5055H69.8809L71.23 35.7557H76.3989L77.6805 40.5055H81.0206L76.3989 23.543H72.9013ZM71.6872 34.1138L73.8831 26.1278H73.9306L75.9642 34.1138H71.6872Z" fill="#636468"/>
<path d="M88.7802 38.8357C86.242 38.8357 84.9379 37.0881 84.9379 32.024C84.9379 26.9624 86.1271 25.24 88.6203 25.24C90.9187 25.24 92.1853 26.5174 92.1853 26.5174L92.62 24.7572C92.62 24.7572 90.8163 23.2812 88.2331 23.2812C83.9561 23.2812 81.4628 26.804 81.4628 32.1548C81.4628 37.3999 83.7712 40.7944 88.3455 40.7944C92.1654 40.7944 93.5844 37.6614 93.5844 37.6614L92.5776 36.4092C92.5776 36.4092 91.2285 38.8357 88.7802 38.8357Z" fill="#636468"/>
<path d="M103.408 25.1623V23.543H100.252V25.1623C96.2725 25.2654 93.6194 27.5887 93.6194 31.9211C93.6194 36.2536 96.295 38.6549 100.252 38.758V40.5055H103.408V38.758C107.342 38.6549 110.065 36.2259 110.065 31.8935C110.065 27.5636 107.342 25.2654 103.408 25.1623ZM100.252 37.1412C97.8514 37.0104 96.9596 35.1824 96.9596 31.9211C96.9596 28.6574 97.8514 26.8847 100.252 26.7539V37.1412ZM103.408 37.1412V26.7539C105.788 26.8847 106.703 28.6574 106.703 31.8935C106.703 35.1824 105.788 37.0104 103.408 37.1412Z" fill="#636468"/>
<path d="M115.039 32.8339H120.118V31.0084H115.039V25.4213H120.803V23.543H111.884V40.5055H121.123V38.6272H115.039V32.8339Z" fill="#636468"/>
<path d="M128.587 23.543H123.433V40.5055H126.591V35.2101H128.655C131.056 35.2101 133.939 33.6159 133.939 29.286C133.939 25.3961 131.88 23.543 128.587 23.543ZM128.29 33.5379H126.591V25.2402H128.29C129.729 25.2402 130.531 26.2309 130.531 29.4419C130.531 32.678 129.707 33.5379 128.29 33.5379Z" fill="#636468"/>
<path d="M141.488 23.543H137.988L133.047 40.5055H134.968L136.317 35.7557H141.488L142.767 40.5055H146.108L141.488 23.543ZM136.774 34.1138L138.97 26.1278H139.018L141.054 34.1138H136.774Z" fill="#636468"/>
<path d="M44.1092 38.7729L39.9721 30.1458L44.1766 23.5177H41.9807L37.9135 30.2514L36.562 31.3729V23.5177H33.4067V40.4803H36.562V33.6434L37.7136 32.605L41.8008 41.564C37.5038 46.0196 31.4955 48.7905 24.8401 48.7905C11.7843 48.7905 1.20166 38.1393 1.20166 25.0013C1.20166 11.8607 11.7843 1.20945 24.8401 1.20945C36.8817 1.20945 46.8123 10.2741 48.2838 21.9914H49.4929H141.656V20.7745H49.3155C47.3119 8.99673 37.1041 0 24.8401 0C11.1422 0 0 11.2145 0 25.0013C0 38.7855 11.1422 50 24.8401 50C31.6554 50 37.8386 47.2215 42.3329 42.7307C42.3329 42.7307 42.3329 42.7282 42.3354 42.7282C42.5752 42.4868 42.8101 42.2404 43.0424 41.9889C43.0524 41.9789 43.0624 41.9663 43.0724 41.9537C43.2997 41.7073 43.5196 41.4584 43.7344 41.2044C44.0667 40.8122 44.389 40.4124 44.6988 40L44.1092 38.7729Z" fill="#636468"/>
</svg>
