<svg width="91" height="76" viewBox="0 0 91 76" fill="none" xmlns="http://www.w3.org/2000/svg">
<path d="M17.6392 36.5063V13.5161C17.6392 12.4861 18.4731 11.6479 19.5026 11.6479H32.5466L17.6392 36.5063Z" fill="#00C25A"/>
<path d="M12.997 75.4718C25.9156 53.9269 38.8343 32.382 51.7569 10.841L49.7212 7.44927C36.1214 30.1221 22.5216 52.7989 8.9178 75.4718H12.997ZM48.4646 27.032L53.4129 35.2802H57.8952L52.947 27.032H48.4646ZM76.9914 74.6062L77.5121 75.4718H82.0023L76.9914 67.1217V74.6062ZM86.3868 75.4718H90.5129L76.9914 52.9282V59.8095L86.3868 75.4718ZM66.4098 35.2802L61.4655 27.032H57.3315L62.2798 35.2802H66.4098ZM47.529 3.79121L45.2545 0L0 75.4718H4.53328L47.529 3.79121Z" fill="#2E2E2E"/>
<path d="M55.6555 11.6479H70.9348C71.9644 11.6479 72.7982 12.4861 72.7982 13.5161V20.9732C72.7982 21.9994 71.9644 22.8375 70.9348 22.8375H48.9456L55.6555 11.6479Z" fill="#00C25A"/>
<path d="M17.6392 75.4089V75.4716H65.0468H68.8363H69.3687C71.2556 75.4716 72.798 73.9284 72.798 72.0407V51.095C72.798 50.9462 72.7902 50.8013 72.7706 50.6603H72.798V43.3794C72.798 41.2331 71.0403 39.4746 68.895 39.4746H50.5075H49.1216H39.9298C39.2565 39.4746 38.681 39.8036 38.3326 40.3832L33.8619 47.8403C33.5057 48.4317 33.4979 49.1171 33.8385 49.7203C34.1751 50.3195 34.7702 50.6642 35.4592 50.6642H54.9781C55.0251 50.6642 55.0721 50.6642 55.119 50.6603H61.6449C61.6254 50.8013 61.6175 50.9462 61.6175 51.095V59.3824V59.3941V62.9386V62.9778V63.6828C61.6175 64.7128 60.7798 65.547 59.7541 65.547H30.6832C29.6575 65.547 28.8197 64.7128 28.8197 63.6828V62.9778V59.3941V59.3824C28.8197 58.697 28.4557 58.0978 27.9076 57.7688L27.2969 58.7832L26.5179 60.0835L25.3787 61.983L25.3591 62.0182L25.3043 62.1044L23.9615 64.3486L17.9015 74.4533C17.7214 74.7548 17.6392 75.0564 17.6392 75.4089Z" fill="#00C25A"/>
</svg>
