<svg width="76" height="72" viewBox="0 0 76 72" fill="none" xmlns="http://www.w3.org/2000/svg">
<rect x="0.0253296" y="0.645508" width="75" height="71.2025" rx="30" fill="white"/>
<path d="M37.5284 30.5158C40.8238 30.5158 43.4915 33.1423 43.4998 36.3786C43.4998 39.6393 40.832 42.2657 37.5201 42.2576C34.2247 42.2576 31.5652 39.623 31.5652 36.3786C31.5652 33.1341 34.2247 30.5158 37.5284 30.5158ZM37.5284 40.2654C39.7253 40.2003 41.4432 38.5903 41.4515 36.3948C41.4597 34.2563 39.7914 32.5406 37.5449 32.5243C35.3397 32.508 33.597 34.1994 33.6052 36.3948C33.6135 38.5822 35.3314 40.2003 37.5284 40.2654Z" fill="#D40002"/>
<path d="M34.1256 25.1818C34.1173 27.7269 31.9121 29.8817 29.327 29.8736C26.7419 29.8573 24.5614 27.6863 24.578 25.1411C24.5945 22.6041 26.7832 20.4656 29.36 20.4656C31.9452 20.4656 34.1339 22.6367 34.1256 25.1818ZM29.3518 27.8326C30.8384 27.8326 32.0525 26.6373 32.0608 25.1737C32.0608 23.6937 30.8467 22.4903 29.3518 22.4903C27.8651 22.4984 26.6428 23.6937 26.6428 25.1574C26.6428 26.6373 27.8569 27.8407 29.3518 27.8326Z" fill="#D40002"/>
<path d="M50.4788 25.1818C50.4705 27.7269 48.2736 29.8817 45.6802 29.8736C43.0951 29.8655 40.9064 27.6944 40.9229 25.1411C40.9394 22.6041 43.1281 20.4656 45.705 20.4656C48.2984 20.4656 50.487 22.6285 50.4788 25.1818ZM45.7132 22.4984C44.2266 22.4984 43.0042 23.6856 42.996 25.1411C42.9877 26.621 44.2018 27.8326 45.6967 27.8326C47.1834 27.8326 48.4057 26.6454 48.414 25.1899C48.4222 23.71 47.2081 22.5066 45.7132 22.4984Z" fill="#D40002"/>
<path d="M37.5118 44.8353C41.3937 44.9084 44.6891 46.3233 47.3733 49.088C47.5385 49.2587 47.6954 49.4376 47.8606 49.6003C47.968 49.706 47.968 49.7954 47.8523 49.9093C47.4807 50.2508 47.109 50.5842 46.7539 50.9419C46.5804 51.1127 46.4565 51.0964 46.2996 50.9257C45.5893 50.1288 44.813 49.4051 43.921 48.8034C42.0131 47.5349 39.9153 46.8844 37.611 46.8762C34.1669 46.8681 31.3257 48.1691 29.0131 50.6492C28.4433 51.2591 28.6002 51.1859 28.0468 50.6817C27.7825 50.4378 27.5265 50.1857 27.2539 49.9499C27.1135 49.8279 27.0722 49.7304 27.2126 49.5759C29.3022 47.234 31.8626 45.689 34.9928 45.0873C35.8187 44.9247 36.6612 44.8353 37.5118 44.8353Z" fill="#D40002"/>
<path d="M46.0105 31.9308C48.7691 32.0853 51.1312 33.0529 53.0639 34.9719C53.2373 35.1427 53.2291 35.2565 53.0556 35.411C52.7005 35.72 52.3536 36.0371 52.0232 36.3787C51.8498 36.5576 51.7424 36.5332 51.5772 36.3705C50.3962 35.1996 48.9838 34.4515 47.3403 34.1181C46.8943 34.0287 46.4483 33.9718 45.994 33.9718C45.771 33.9718 45.6802 33.8986 45.6802 33.6709C45.6884 33.2074 45.6967 32.7358 45.6802 32.2723C45.6637 31.9877 45.7875 31.8983 46.0105 31.9308Z" fill="#D40002"/>
<path d="M29.3766 32.9556C29.3766 33.1914 29.3683 33.4272 29.3766 33.6549C29.3848 33.8744 29.3022 33.9558 29.0792 33.9639C27.1548 34.0289 25.4534 34.6713 23.9833 35.8992C23.7851 36.0618 23.6034 36.2407 23.4217 36.4196C23.2978 36.5415 23.2069 36.5415 23.0831 36.4196C22.7114 36.0618 22.3397 35.7121 21.9598 35.3706C21.8111 35.2324 21.8194 35.1348 21.9598 34.9966C23.6199 33.3378 25.6186 32.3539 27.956 32.0286C28.3194 31.9798 28.691 31.9554 29.0627 31.9229C29.2774 31.8985 29.3931 31.9798 29.3766 32.2156C29.36 32.4677 29.3766 32.7116 29.3766 32.9556Z" fill="#D40002"/>
</svg>
