<svg width="30" height="30" viewBox="0 0 30 30" xmlns="http://www.w3.org/2000/svg">
<path d="M14.4697 20.4697C14.1768 20.7626 14.1768 21.2374 14.4697 21.5303C14.7626 21.8232 15.2374 21.8232 15.5303 21.5303L14.4697 20.4697ZM21 15L21.5303 15.5303L22.0607 15L21.5303 14.4697L21 15ZM15.5303 8.46967C15.2374 8.17678 14.7626 8.17678 14.4697 8.46967C14.1768 8.76256 14.1768 9.23744 14.4697 9.53033L15.5303 8.46967ZM1.5 14.25C1.08579 14.25 0.75 14.5858 0.75 15C0.75 15.4142 1.08579 15.75 1.5 15.75V14.25ZM3.57488 20.6662C3.39054 20.2953 2.94041 20.144 2.56947 20.3284C2.19854 20.5127 2.04728 20.9628 2.23162 21.3338L3.57488 20.6662ZM2.33375 8.4648C2.14354 8.83276 2.28764 9.28524 2.6556 9.47545C3.02356 9.66566 3.47604 9.52156 3.66625 9.1536L2.33375 8.4648ZM15.5303 21.5303L21.5303 15.5303L20.4697 14.4697L14.4697 20.4697L15.5303 21.5303ZM21.5303 14.4697L15.5303 8.46967L14.4697 9.53033L20.4697 15.5303L21.5303 14.4697ZM1.5 15.75H21V14.25H1.5V15.75ZM2.23162 21.3338C4.56249 26.024 9.40387 29.25 15 29.25V27.75C9.99503 27.75 5.66211 24.8662 3.57488 20.6662L2.23162 21.3338ZM15 29.25C22.8701 29.25 29.25 22.8701 29.25 15H27.75C27.75 22.0417 22.0417 27.75 15 27.75V29.25ZM29.25 15C29.25 7.12989 22.8701 0.75 15 0.75V2.25C22.0417 2.25 27.75 7.95831 27.75 15H29.25ZM15 0.75C9.48419 0.75 4.70177 3.88386 2.33375 8.4648L3.66625 9.1536C5.78683 5.05134 10.0668 2.25 15 2.25V0.75Z"/>
</svg>
