<svg width="79" height="75" viewBox="0 0 79 75" fill="none" xmlns="http://www.w3.org/2000/svg">
<rect width="79" height="75" rx="30" fill="white"/>
<path d="M44 33H35V42H44V33ZM30.5 24C31.6935 24 32.8381 24.4741 33.682 25.318C34.5259 26.1619 35 27.3065 35 28.5V33H30.5C29.3065 33 28.1619 32.5259 27.318 31.682C26.4741 30.8381 26 29.6935 26 28.5V28.5C26 27.3065 26.4741 26.1619 27.318 25.318C28.1619 24.4741 29.3065 24 30.5 24V24ZM44 33V28.5C44 27.61 44.2639 26.74 44.7584 25.9999C45.2529 25.2599 45.9557 24.6831 46.7779 24.3425C47.6002 24.0019 48.505 23.9128 49.3779 24.0865C50.2508 24.2601 51.0526 24.6887 51.682 25.318C52.3113 25.9474 52.7399 26.7492 52.9135 27.6221C53.0872 28.495 52.9981 29.3998 52.6575 30.2221C52.3169 31.0443 51.7401 31.7471 51.0001 32.2416C50.26 32.7361 49.39 33 48.5 33H44ZM48.5 51C47.3065 51 46.1619 50.5259 45.318 49.682C44.4741 48.8381 44 47.6935 44 46.5V42H48.5C49.6935 42 50.8381 42.4741 51.682 43.318C52.5259 44.1619 53 45.3065 53 46.5C53 47.6935 52.5259 48.8381 51.682 49.682C50.8381 50.5259 49.6935 51 48.5 51ZM26 46.5C26 45.3065 26.4741 44.1619 27.318 43.318C28.1619 42.4741 29.3065 42 30.5 42H35V46.5C35 47.6935 34.5259 48.8381 33.682 49.682C32.8381 50.5259 31.6935 51 30.5 51C29.3065 51 28.1619 50.5259 27.318 49.682C26.4741 48.8381 26 47.6935 26 46.5Z" stroke="#D40002" stroke-width="2.25" stroke-linecap="round"/>
</svg>
