<svg width="27" height="18" viewBox="0 0 27 18" fill="none" xmlns="http://www.w3.org/2000/svg">
<path d="M9.63375 11.8678C9.80094 11.7089 9.81862 11.5469 9.86846 11.4013C11.1264 7.76859 12.3811 4.13431 13.639 0.50082C13.713 0.286348 13.7411 0.044481 14.0675 0.00690933C14.4726 -0.0392725 14.6317 0.148586 14.7483 0.494558C15.9564 4.08891 17.1765 7.67935 18.3951 11.2698C18.4529 11.4412 18.4843 11.6252 18.6081 11.7739C18.7769 11.7668 18.7777 11.6259 18.813 11.525C19.7575 8.80729 20.7019 6.0896 21.6383 3.36957C21.779 2.96098 21.8682 2.53908 21.8538 2.10231C21.8345 1.53639 21.5982 1.21155 21.0492 1.01273C20.6151 0.855402 20.1562 0.842879 19.7044 0.80609C19.4207 0.782607 19.2953 0.669892 19.2969 0.392019C19.2993 0.103969 19.4456 0.00612659 19.7245 0.00612659C22.0017 0.0100403 24.2788 0.00925756 26.5559 0.00690933C26.8204 0.00690933 26.9916 0.0742252 26.9996 0.376364C27.0085 0.680851 26.8662 0.797479 26.5696 0.806872C26.3293 0.8147 26.0889 0.84601 25.8494 0.872623C24.8591 0.982207 24.1212 1.45342 23.647 2.316C23.2596 3.02125 22.9807 3.76799 22.7218 4.52255C21.2509 8.81511 19.7824 13.1092 18.3123 17.4018C18.2656 17.538 18.2142 17.6718 18.162 17.8065C18.1073 17.9474 17.9948 17.9983 17.8461 17.999C17.6966 17.9998 17.5832 17.9482 17.527 17.8096C17.4731 17.6765 17.4265 17.5403 17.3807 17.4041C16.1203 13.6345 14.8608 9.86477 13.6005 6.09508C13.5554 5.96045 13.5016 5.82895 13.4421 5.6724C13.2243 5.7632 13.2267 5.95419 13.1769 6.09821C11.8844 9.87182 10.5975 13.647 9.30983 17.4214C9.27607 17.52 9.24311 17.6202 9.20774 17.718C9.15068 17.8738 9.06949 17.9951 8.87015 17.9998C8.65474 18.0053 8.55748 17.8879 8.498 17.711C8.27374 17.0417 8.04627 16.3733 7.82282 15.7032C6.52309 11.8091 5.22497 7.91496 3.92283 4.02081C3.71144 3.38758 3.46226 2.76921 3.11985 2.1892C2.644 1.38219 1.92944 0.943852 0.977749 0.864013C0.777606 0.847575 0.57907 0.808438 0.378926 0.802176C0.0767017 0.792 -0.00608859 0.626842 0.000341719 0.364623C0.00757582 0.0922283 0.160296 0.00769207 0.415097 0.00769207C3.17531 0.0100403 5.93472 0.0100403 8.69412 0.00690933C8.96741 0.00690933 9.12576 0.093011 9.12897 0.385757C9.13219 0.6605 9.01644 0.78339 8.72869 0.805307C8.31634 0.837399 7.89918 0.85462 7.49809 0.974379C6.85425 1.16693 6.57694 1.52621 6.56167 2.17667C6.55042 2.64006 6.6517 3.08387 6.79718 3.51986C7.69501 6.19762 8.59445 8.8746 9.4955 11.5508C9.52846 11.6471 9.57668 11.7379 9.63375 11.8678Z" fill="#D40002"/>
</svg>
