<svg width="13" height="9" viewBox="0 0 13 9" fill="none" xmlns="http://www.w3.org/2000/svg">
<path d="M4.53756 8.92651L0.0810966 4.83077C0.0553954 4.80716 0.0349997 4.77908 0.0210822 4.74816C0.00716471 4.71724 0 4.68408 0 4.65059C0 4.6171 0.00716471 4.58394 0.0210822 4.55301C0.0349997 4.52209 0.0553954 4.49402 0.0810966 4.4704L1.20615 3.42972C1.31366 3.33039 1.48741 3.33039 1.59492 3.42972L4.52881 6.12441C4.63632 6.22374 4.81132 6.22258 4.91883 6.12325L11.4016 0.0755108C11.5091 -0.0249769 11.6842 -0.0249769 11.7929 0.0743557L12.9192 1.11504C13.0267 1.21437 13.0267 1.37492 12.9205 1.47425L5.85763 8.05908L5.85887 8.06024L4.92758 8.92535C4.82007 9.02469 4.64507 9.02469 4.53756 8.92651Z" fill="#D40002"/>
</svg>
