<svg width="76" height="72" viewBox="0 0 76 72" fill="none" xmlns="http://www.w3.org/2000/svg">
<rect x="0.886108" y="0.253174" width="75" height="71.2025" rx="30" fill="white"/>
<path d="M36.8626 42.1484C36.4324 42.1484 35.9843 42.1306 35.5542 42.1484C34.9985 42.1661 34.6042 41.9174 34.2995 41.491C33.959 41.0291 33.7618 40.4961 33.5647 39.9809C33.0807 38.7728 32.543 37.5825 31.6827 36.5876C31.1091 35.9125 30.5894 35.1841 30.1413 34.4202C27.9188 30.7426 28.6536 26.2834 31.3959 23.3875C33.009 21.682 35.0165 20.6516 37.4003 20.4206C40.1784 20.1364 42.6519 20.9358 44.731 22.7657C46.595 24.4002 47.6525 26.4966 47.9035 28.9483C48.1185 31.0447 47.5629 32.9634 46.4337 34.74C45.9319 35.5217 45.3404 36.2323 44.7668 36.9785C43.6914 38.3642 42.8669 39.8743 42.3113 41.5443C42.2217 41.8286 42.0962 42.0773 41.7736 42.1484C41.218 42.2727 40.8057 41.8108 40.9491 41.2601C41.1463 40.585 41.4151 39.9454 41.7198 39.3058C42.4189 37.8313 43.3509 36.4988 44.3904 35.2374C45.3583 34.0649 46.1111 32.7502 46.3979 31.2401C46.7205 29.5168 46.5054 27.8646 45.7168 26.3012C44.6234 24.1337 42.8849 22.7124 40.5369 22.0373C36.8267 20.9891 32.8298 22.748 31.1091 26.159C29.962 28.4153 29.8724 30.7249 30.9478 33.0344C31.3959 33.976 31.9695 34.8288 32.6506 35.6283C33.6722 36.8186 34.3354 38.1866 34.891 39.6434C34.9985 39.9454 35.1419 40.2297 35.2674 40.5139C35.357 40.7271 35.5183 40.8159 35.7692 40.8159C36.54 40.8159 37.3107 40.8159 38.0993 40.8159C38.2427 40.8159 38.3861 40.8337 38.5115 40.8515C38.8879 40.9225 39.0851 41.189 39.0672 41.5799C39.0492 41.9352 38.7983 42.1839 38.4219 42.1839C37.9021 42.1661 37.3824 42.1484 36.8626 42.1484Z" fill="#D40002"/>
<path d="M35.5004 42.3438C34.9448 42.3438 34.5146 42.1128 34.1561 41.6154C33.8335 41.1712 33.6363 40.6738 33.4571 40.1941L33.4033 40.052C32.9553 38.9149 32.4176 37.7069 31.5572 36.6942C31.0016 36.0369 30.4639 35.3084 29.9979 34.509C27.7933 30.9203 28.3131 26.4077 31.2525 23.2809C32.9373 21.5043 34.9985 20.4739 37.3824 20.2429C40.2143 19.9587 42.7236 20.7581 44.8565 22.6413C46.7384 24.2936 47.8318 26.4255 48.1006 28.9482C48.2978 30.9558 47.8138 32.9456 46.613 34.8465C46.2007 35.5039 45.7168 36.1079 45.2508 36.6942C45.1432 36.8186 45.0357 36.9607 44.9461 37.085C43.8886 38.4353 43.0641 39.9631 42.5264 41.5976C42.4189 41.9174 42.2575 42.2372 41.8453 42.326C41.5227 42.3971 41.218 42.3082 41.0029 42.095C40.7878 41.8641 40.7161 41.5443 40.8057 41.2245C41.0208 40.5139 41.3076 39.821 41.5765 39.2525C42.1859 37.9378 43.0462 36.6409 44.265 35.1486C45.3404 33.8516 45.9677 32.5547 46.2366 31.2223C46.5592 29.5345 46.3262 27.9178 45.5734 26.3899C44.498 24.2758 42.7953 22.8723 40.501 22.2327C36.8626 21.1845 32.9911 22.8723 31.2704 26.2301C30.1233 28.4686 30.0696 30.7426 31.1091 32.9456C31.5035 33.8161 32.0591 34.6511 32.7939 35.4861C33.6901 36.5343 34.3891 37.7779 35.0523 39.5367C35.124 39.7499 35.2315 39.9454 35.3212 40.1586C35.357 40.2474 35.3929 40.3184 35.4287 40.4073C35.4825 40.5494 35.5721 40.6027 35.7513 40.6027C36.522 40.6027 37.3107 40.6027 38.0814 40.6027C38.2427 40.6027 38.3861 40.6205 38.5295 40.6382C38.9955 40.7271 39.2464 41.0646 39.2285 41.5443C39.2106 41.9884 38.87 42.3082 38.4219 42.326C38.0635 42.3438 37.6871 42.326 37.3286 42.326C37.221 42.326 37.1314 42.326 37.0239 42.326H36.8626C36.7192 42.326 36.5937 42.326 36.4503 42.326C36.1456 42.326 35.8409 42.326 35.5542 42.326C35.5362 42.3438 35.5183 42.3438 35.5004 42.3438ZM38.4578 20.545C38.1172 20.545 37.7588 20.5627 37.4182 20.5982C35.1061 20.8292 33.1345 21.8063 31.5035 23.5296C28.6895 26.5321 28.1876 30.867 30.2847 34.3491C30.7507 35.1308 31.2704 35.8414 31.8082 36.481C32.7043 37.5292 33.26 38.755 33.708 39.9276L33.7618 40.0697C33.959 40.5494 34.1203 41.0113 34.425 41.4022C34.7297 41.8108 35.0702 41.9884 35.5362 41.9707C35.8409 41.9529 36.1456 41.9707 36.4503 41.9707C36.522 41.9707 36.5937 41.9707 36.6654 41.9707H36.8447C37.006 41.9707 37.1494 41.9707 37.3107 41.9707C37.6691 41.9707 38.0276 41.9707 38.3861 41.9707C38.6549 41.9707 38.8342 41.793 38.8521 41.5265C38.87 41.3133 38.7983 41.0646 38.4398 40.9935C38.3323 40.9758 38.2068 40.958 38.0635 40.958C37.3107 40.958 36.522 40.958 35.7513 40.958C35.4466 40.958 35.2136 40.8337 35.0882 40.5494C35.0523 40.4783 35.0165 40.3895 34.9806 40.3184C34.891 40.1053 34.7835 39.8921 34.7118 39.6789C34.0665 37.9556 33.3854 36.7297 32.5251 35.7348C31.7723 34.8643 31.2167 33.9938 30.8044 33.1055C29.729 30.7959 29.7828 28.4153 30.9657 26.0702C32.7402 22.5525 36.7909 20.7937 40.6086 21.8596C43.0103 22.5347 44.7848 23.9915 45.896 26.2123C46.7026 27.8112 46.9356 29.499 46.595 31.2578C46.3262 32.6613 45.663 33.9938 44.5518 35.344C43.3509 36.8186 42.5085 38.0977 41.8991 39.3768C41.6302 39.9454 41.3435 40.6027 41.1463 41.2956C41.0925 41.5088 41.1284 41.7042 41.2538 41.8285C41.3793 41.9529 41.5585 42.0062 41.7557 41.9707C41.9887 41.9174 42.0783 41.7575 42.1679 41.4732C42.7236 39.8032 43.566 38.2398 44.6593 36.8541C44.7668 36.712 44.8744 36.5876 44.9819 36.4632C45.4479 35.877 45.9139 35.2729 46.3083 34.6511C47.4733 32.7857 47.9393 30.938 47.7421 28.9838C47.4912 26.5498 46.4516 24.5068 44.6235 22.9078C42.8311 21.3444 40.752 20.545 38.4578 20.545Z" fill="#D40002"/>
<path d="M42.7415 46.1811C42.7415 46.5187 42.7415 46.874 42.7415 47.2116C42.7415 47.5313 42.6339 47.7978 42.4009 48.0288C41.8812 48.5618 41.218 48.8638 40.5548 49.1125C40.3397 49.2013 40.1963 49.3079 40.0709 49.5034C39.3719 50.6937 37.3465 50.6759 36.6654 49.4678C36.5579 49.2902 36.4324 49.2013 36.2532 49.1303C35.5721 48.8638 34.9089 48.5795 34.3891 48.0643C34.1382 47.8156 34.0127 47.5313 34.0127 47.176C34.0307 46.5187 34.0127 45.8613 34.0127 45.204C34.0127 44.2624 34.6938 43.5873 35.6438 43.5873C37.472 43.5873 39.3002 43.5873 41.1284 43.5873C42.0604 43.5873 42.7415 44.2624 42.7415 45.1862C42.7415 45.506 42.7415 45.8436 42.7415 46.1811ZM38.404 44.9553C37.5257 44.9553 36.6654 44.9553 35.7872 44.9553C35.5183 44.9553 35.4108 45.0441 35.4108 45.3284C35.4287 45.8613 35.4108 46.3943 35.4108 46.9273C35.4108 47.1227 35.4825 47.2471 35.6438 47.3359C36.1994 47.6912 36.7909 47.9222 37.4182 48.0821C37.6871 48.1531 37.8304 48.2597 37.8304 48.5618C37.8304 48.8816 38.0097 49.0059 38.3502 49.0059C38.7804 49.0059 38.9596 48.8993 38.9596 48.544C38.9596 48.242 39.1209 48.1354 39.3719 48.0643C39.9992 47.9044 40.5907 47.6557 41.1463 47.3181C41.2897 47.2293 41.3614 47.105 41.3614 46.9273C41.3614 46.3943 41.3435 45.8436 41.3614 45.3106C41.3614 45.0441 41.2538 44.9553 40.985 44.9553C40.1247 44.9553 39.2643 44.9553 38.404 44.9553Z" fill="#D40002"/>
<path d="M38.3861 50.5694C38.3682 50.5694 38.3682 50.5694 38.3502 50.5694C37.5616 50.5694 36.8447 50.1786 36.5041 49.5567C36.4324 49.4324 36.3428 49.3613 36.1815 49.2903C35.5542 49.0415 34.8193 48.7395 34.2457 48.1888C33.941 47.9045 33.8156 47.567 33.8156 47.1583C33.8335 46.7497 33.8156 46.3233 33.8156 45.9147C33.8156 45.666 33.8156 45.435 33.8156 45.1863C33.8156 44.1381 34.5863 43.392 35.6259 43.392C37.4541 43.392 39.2823 43.392 41.1104 43.392C42.15 43.392 42.9028 44.1381 42.9028 45.1686C42.9028 45.3995 42.9028 45.6305 42.9028 45.8614V46.501C42.9028 46.732 42.9028 46.9807 42.9028 47.2116C42.9028 47.567 42.7773 47.8867 42.5085 48.1532C41.9529 48.7217 41.2538 49.0238 40.5907 49.2903C40.3935 49.3613 40.286 49.4502 40.1963 49.61C39.8737 50.2141 39.1747 50.5694 38.3861 50.5694ZM37.9021 43.7473C37.1494 43.7473 36.3966 43.7473 35.6617 43.7473C34.8193 43.7473 34.2099 44.3513 34.2099 45.1863C34.2099 45.435 34.2099 45.666 34.2099 45.9147C34.2099 46.3233 34.2099 46.7497 34.2099 47.1583C34.2099 47.4604 34.2995 47.6913 34.5325 47.9223C35.0523 48.4375 35.7155 48.704 36.3428 48.9527C36.522 49.0238 36.7192 49.1126 36.8447 49.3791C37.1314 49.8765 37.7229 50.1963 38.3861 50.2141C39.0672 50.2141 39.6407 49.9121 39.9454 49.4146C40.0709 49.1837 40.2501 49.0415 40.519 48.9527C41.1463 48.7217 41.8095 48.4197 42.3113 47.9045C42.5085 47.6913 42.5981 47.4781 42.5981 47.2116C42.5981 46.9629 42.5981 46.732 42.5981 46.4832V45.8437C42.5981 45.6127 42.5981 45.3817 42.5981 45.1508C42.5981 44.3336 41.9887 43.7295 41.1642 43.7295C40.053 43.7473 38.9776 43.7473 37.9021 43.7473ZM38.3502 49.1837C37.8663 49.1837 37.6333 48.9705 37.6333 48.5619C37.6333 48.3664 37.5795 48.3131 37.3644 48.2598C36.7013 48.0822 36.0919 47.8334 35.5362 47.4781C35.3212 47.336 35.2315 47.1583 35.2315 46.9096C35.2495 46.3056 35.2495 45.8081 35.2315 45.3284C35.2315 45.1508 35.2674 45.0087 35.357 44.9198C35.4825 44.7955 35.6617 44.7777 35.7692 44.7777C36.3966 44.7777 37.0239 44.7777 37.6691 44.7777H39.1389C39.7483 44.7777 40.3756 44.7777 40.985 44.7777C41.1104 44.7777 41.2897 44.7955 41.4151 44.9198C41.5048 45.0087 41.5585 45.1508 41.5406 45.3284C41.5227 45.897 41.5406 46.4655 41.5406 46.9452C41.5406 47.1761 41.451 47.3538 41.2359 47.4781C40.6803 47.8334 40.0709 48.0822 39.4077 48.2598C39.1926 48.3131 39.1209 48.3842 39.1209 48.5619C39.1389 49.1126 38.7266 49.1837 38.3502 49.1837ZM35.7692 45.133C35.6617 45.133 35.6259 45.1508 35.6259 45.1686C35.6259 45.1686 35.59 45.2041 35.59 45.3284C35.6079 45.8081 35.6079 46.3233 35.59 46.9274C35.59 47.0517 35.6259 47.1228 35.7334 47.1939C36.2532 47.5137 36.8267 47.7624 37.4541 47.9223C37.705 47.9933 37.9918 48.1177 37.9918 48.5796C37.9918 48.775 38.0455 48.8461 38.3323 48.8639H38.3502C38.7445 48.8639 38.7625 48.7573 38.7625 48.5796C38.7625 48.1355 39.0672 47.9933 39.3181 47.94C39.9454 47.7801 40.519 47.5314 41.0388 47.2116C41.1463 47.1406 41.1821 47.0873 41.1821 46.9807C41.1821 46.501 41.1642 45.9325 41.1821 45.3462C41.1821 45.2396 41.1642 45.2041 41.1463 45.2041C41.1463 45.2041 41.0925 45.1686 40.985 45.1686C40.3577 45.1686 39.7303 45.1686 39.1209 45.1686H37.6512C37.0418 45.133 36.4145 45.133 35.7692 45.133Z" fill="#D40002"/>
<path d="M32.0412 28.5043C32.0412 28.2733 32.1308 28.0601 32.2204 27.8647C33.0449 25.946 34.425 24.5958 36.3607 23.8141C36.4503 23.7785 36.54 23.743 36.6475 23.7252C37.0418 23.6186 37.4003 23.7785 37.5257 24.1338C37.6512 24.4892 37.4899 24.8622 37.0956 25.0044C36.2711 25.3064 35.5183 25.7505 34.891 26.3723C34.2099 27.0297 33.708 27.8114 33.4033 28.7174C33.2779 29.0905 32.9732 29.2682 32.5968 29.1971C32.2383 29.1261 32.0232 28.8596 32.0412 28.5043Z" fill="#D40002"/>
<path d="M32.7223 29.3747C32.6506 29.3747 32.5968 29.3747 32.5251 29.3569C32.1129 29.2859 31.844 28.9483 31.844 28.5042C31.844 28.2555 31.9336 28.0423 32.0232 27.8468L32.0412 27.7935C32.8836 25.8393 34.2995 24.4536 36.2711 23.6541C36.3607 23.6186 36.4683 23.583 36.5758 23.5475C37.0597 23.4231 37.5078 23.6363 37.6691 24.0805C37.8304 24.5424 37.6154 25.0043 37.1314 25.182C36.289 25.484 35.59 25.9281 34.9985 26.4966C34.3354 27.1362 33.8514 27.9001 33.5467 28.7707C33.4213 29.1438 33.1166 29.3747 32.7223 29.3747ZM36.8805 23.8495C36.8267 23.8495 36.755 23.8495 36.7013 23.8673C36.6116 23.885 36.522 23.9206 36.4324 23.9561C34.5504 24.72 33.1883 26.0525 32.3996 27.9179L32.3817 27.9712C32.31 28.1489 32.2383 28.3088 32.2383 28.4864C32.2383 28.7529 32.3817 28.9483 32.6326 28.9839C32.9194 29.0372 33.1345 28.9128 33.242 28.6285C33.5467 27.7047 34.0665 26.9053 34.7835 26.2124C35.4108 25.5906 36.1636 25.1464 37.0418 24.8089C37.3286 24.7023 37.472 24.4358 37.3644 24.1515C37.2569 23.9739 37.0956 23.8495 36.8805 23.8495Z" fill="#D40002"/>
<path d="M50.359 37.387C50.2156 37.387 50.0901 37.3337 49.9647 37.2804C49.3553 36.9251 48.7279 36.5875 48.1006 36.2144C47.6884 35.9657 47.5629 35.5749 47.7959 35.2196C48.011 34.882 48.4053 34.8109 48.8176 35.0419C49.4449 35.3972 50.0722 35.7525 50.6995 36.1256C50.9863 36.2855 51.1118 36.6053 51.0221 36.9073C50.9325 37.2093 50.6816 37.387 50.359 37.387Z" fill="#D40002"/>
<path d="M50.359 37.5647C50.1977 37.5647 50.0543 37.5292 49.893 37.4226C49.66 37.2983 49.4449 37.1739 49.2119 37.0318C48.8176 36.8008 48.4232 36.5876 48.0289 36.3567C47.7601 36.1968 47.5988 36.0013 47.545 35.7526C47.4912 35.5394 47.5271 35.3085 47.6704 35.113C47.9393 34.6867 48.4412 34.5978 48.9251 34.8821L49.2656 35.0775C49.7854 35.3618 50.2873 35.6638 50.8071 35.9658C51.1655 36.179 51.3269 36.5699 51.2014 36.9607C51.0759 37.316 50.7712 37.5647 50.359 37.5647ZM48.3515 35.0775C48.1902 35.0775 48.0468 35.1486 47.9393 35.3085C47.8676 35.4328 47.8318 35.5572 47.8676 35.6816C47.9035 35.8237 48.011 35.948 48.1902 36.0546C48.5845 36.2856 48.9789 36.4988 49.3732 36.7297C49.6062 36.8541 49.8213 36.9785 50.0543 37.1206C50.1618 37.1917 50.2514 37.2094 50.359 37.2094C50.6099 37.2094 50.7712 37.0851 50.8429 36.8541C50.9146 36.6232 50.825 36.3922 50.6099 36.2678C50.0901 35.9658 49.5883 35.6816 49.0685 35.3795L48.7279 35.1841C48.6025 35.113 48.477 35.0775 48.3515 35.0775Z" fill="#D40002"/>
<path d="M25.6604 30.5295C25.3019 30.5295 24.9255 30.5295 24.5671 30.5295C24.1727 30.5295 23.886 30.263 23.8501 29.9077C23.8143 29.6057 24.0652 29.2859 24.3878 29.197C24.4774 29.1793 24.5671 29.1615 24.6567 29.1615C25.3557 29.1615 26.0368 29.1615 26.7358 29.1615C26.933 29.1615 27.1122 29.2148 27.2556 29.3392C27.4707 29.5346 27.5782 29.7656 27.4707 30.0498C27.381 30.3341 27.166 30.5117 26.8613 30.5295C26.4849 30.5295 26.0726 30.5295 25.6604 30.5295Z" fill="#D40002"/>
<path d="M26.3953 30.7071C26.2698 30.7071 26.1443 30.7071 26.0189 30.7071C25.9472 30.7071 25.8755 30.7071 25.7859 30.7071H25.3019C25.051 30.7071 24.7821 30.7071 24.5312 30.7071C24.0473 30.7071 23.6888 30.3874 23.653 29.9254C23.6171 29.5346 23.9039 29.126 24.3341 29.0194C24.4416 28.9839 24.5491 28.9839 24.6388 28.9839C25.3378 28.9839 26.0368 28.9839 26.7179 28.9839C26.9867 28.9839 27.2018 29.0549 27.3631 29.197C27.6499 29.4458 27.7574 29.7656 27.632 30.1031C27.5065 30.4762 27.2377 30.6894 26.8613 30.7071C26.7358 30.7071 26.5566 30.7071 26.3953 30.7071ZM25.4812 30.3518H25.6604C25.7859 30.3518 25.9113 30.3518 26.0368 30.3518C26.3056 30.3518 26.5924 30.3518 26.8792 30.3518C27.1122 30.3518 27.2556 30.2275 27.3273 29.9965C27.399 29.8011 27.3452 29.6234 27.148 29.4635C27.0584 29.3747 26.915 29.3392 26.7358 29.3392C26.0368 29.3392 25.3557 29.3392 24.6567 29.3392C24.585 29.3392 24.5133 29.3569 24.4416 29.3747C24.1907 29.4458 24.0114 29.6767 24.0294 29.9077C24.0652 30.1742 24.2803 30.3696 24.5671 30.3696C24.818 30.3696 25.0689 30.3696 25.3198 30.3696L25.4812 30.3518Z" fill="#D40002"/>
<path d="M51.0759 30.5295C50.7174 30.5295 50.3411 30.5295 49.9826 30.5295C49.5703 30.5295 49.2836 30.2808 49.2656 29.8899C49.2298 29.5168 49.4807 29.197 49.893 29.1793C50.6816 29.126 51.4702 29.126 52.2768 29.1793C52.689 29.197 52.9579 29.5346 52.94 29.8899C52.922 30.263 52.6173 30.5295 52.1872 30.5295C51.8108 30.5295 51.4344 30.5295 51.0759 30.5295Z" fill="#D40002"/>
<path d="M50.3948 30.7071C50.2514 30.7071 50.108 30.7071 49.9647 30.7071C49.4628 30.7071 49.1043 30.3874 49.0685 29.9077C49.0506 29.6767 49.1222 29.4458 49.2656 29.2859C49.409 29.126 49.6241 29.0194 49.875 29.0016C50.6637 28.9483 51.4702 28.9483 52.2768 29.0016C52.7787 29.0372 53.1192 29.4102 53.1013 29.8899C53.0833 30.3696 52.707 30.6894 52.1872 30.7071C51.9183 30.7071 51.6674 30.7071 51.3985 30.7071H50.7354C50.6099 30.7071 50.5024 30.7071 50.3948 30.7071ZM51.0759 29.3036C50.6816 29.3036 50.2873 29.3214 49.893 29.3392C49.7496 29.3569 49.6241 29.4102 49.5345 29.4991C49.4449 29.5879 49.409 29.73 49.4269 29.8544C49.4449 30.1386 49.642 30.3163 49.9826 30.3163C50.2335 30.3163 50.4844 30.3163 50.7354 30.3163H51.3985C51.6495 30.3163 51.9183 30.3163 52.1693 30.3163C52.4919 30.3163 52.7249 30.1209 52.7428 29.8366C52.7607 29.5879 52.5815 29.3392 52.2589 29.3214C51.8466 29.3214 51.4523 29.3036 51.0759 29.3036Z" fill="#D40002"/>
<path d="M48.3874 24.791C48.0648 24.791 47.8318 24.6133 47.7421 24.3291C47.6525 24.0448 47.7242 23.725 47.9751 23.5651C48.6742 23.1565 49.3732 22.7479 50.0901 22.3571C50.4307 22.1794 50.7891 22.3215 50.9684 22.6591C51.1476 22.9789 51.058 23.352 50.7174 23.5474C50.0722 23.9382 49.409 24.2935 48.7638 24.6666C48.6383 24.7732 48.4949 24.8088 48.3874 24.791Z" fill="#D40002"/>
<path d="M48.4232 24.9686C48.4053 24.9686 48.3874 24.9686 48.3874 24.9686C47.9931 24.9686 47.6884 24.7377 47.5808 24.4001C47.4554 24.0093 47.5808 23.6184 47.9035 23.4408C48.71 22.9611 49.3911 22.5702 50.0184 22.2327C50.4307 22.0195 50.9146 22.1794 51.1476 22.6058C51.3806 23.0144 51.2372 23.4941 50.825 23.7428C50.359 24.027 49.875 24.2935 49.409 24.56C49.2298 24.6666 49.0326 24.7732 48.8534 24.8798C48.71 24.9331 48.5487 24.9686 48.4232 24.9686ZM50.3769 22.4814C50.3052 22.4814 50.2335 22.4992 50.1618 22.5347C49.5345 22.8722 48.8534 23.2453 48.0468 23.7428C47.8318 23.8671 47.8318 24.1159 47.8855 24.2935C47.9572 24.5067 48.1185 24.6133 48.3695 24.6311H48.3874C48.4591 24.6311 48.5666 24.6133 48.6562 24.56C48.8355 24.4534 49.0326 24.3468 49.2119 24.2402C49.6779 23.9737 50.1439 23.7072 50.6099 23.4408C50.8608 23.2986 50.9325 23.0321 50.8071 22.7834C50.7354 22.6058 50.5741 22.4814 50.3769 22.4814Z" fill="#D40002"/>
<path d="M29.0659 35.575C29.0659 35.8238 28.9404 36.0369 28.7253 36.1613C28.0621 36.5344 27.399 36.9252 26.7358 37.2983C26.3952 37.4937 25.983 37.3694 25.8038 37.0496C25.6066 36.712 25.7142 36.3212 26.0726 36.108C26.7179 35.7349 27.3631 35.3618 28.0084 35.0065C28.5102 34.7223 29.0659 35.0421 29.0659 35.575Z" fill="#D40002"/>
<path d="M26.3953 37.5648C26.0906 37.5648 25.8038 37.4049 25.6604 37.1384C25.4274 36.712 25.5528 36.2145 26.0009 35.9658C26.7537 35.5217 27.381 35.1664 27.9367 34.8643C28.2414 34.7044 28.5819 34.7044 28.8508 34.8643C29.1196 35.0242 29.263 35.2907 29.263 35.6105C29.263 35.9303 29.1017 36.179 28.8328 36.3389L28.6715 36.4277C28.0801 36.7653 27.4527 37.1384 26.8433 37.4759C26.682 37.5292 26.5386 37.5648 26.3953 37.5648ZM28.3848 35.0775C28.2772 35.0775 28.1876 35.1131 28.0801 35.1664C27.5244 35.4861 26.8971 35.8237 26.1443 36.2678C25.8755 36.4277 25.8038 36.712 25.9472 36.9607C26.0906 37.2094 26.3773 37.2805 26.6283 37.1384C27.2377 36.8008 27.865 36.4455 28.4565 36.0902L28.6178 36.0014C28.7791 35.9125 28.8687 35.7704 28.8687 35.575C28.8687 35.3795 28.7791 35.2374 28.6357 35.1486C28.5819 35.0953 28.4923 35.0775 28.3848 35.0775Z" fill="#D40002"/>
<path d="M29.0659 24.116C29.0659 24.6134 28.564 24.9687 28.1159 24.7378C27.3811 24.3647 26.682 23.9383 25.983 23.5119C25.6783 23.3343 25.6425 22.9256 25.8396 22.6236C26.0368 22.3394 26.3953 22.215 26.7179 22.3927C27.2018 22.6592 27.6858 22.9434 28.1697 23.2099C28.3668 23.3165 28.5461 23.4231 28.7432 23.5297C28.9583 23.6718 29.0479 23.8672 29.0659 24.116Z" fill="#D40002"/>
<path d="M28.4027 24.9864C28.2772 24.9864 28.1518 24.9509 28.0263 24.8976C27.2197 24.489 26.449 24.0271 25.8755 23.6718C25.7142 23.5652 25.5887 23.4053 25.5349 23.2099C25.4812 22.9789 25.5349 22.7302 25.6604 22.5347C25.9113 22.1617 26.3773 22.0373 26.7896 22.2327C27.148 22.4104 27.4886 22.6236 27.8291 22.819C27.9725 22.8901 28.098 22.9789 28.2414 23.05C28.3848 23.121 28.5102 23.2099 28.6536 23.2809L28.8149 23.3697C29.0838 23.5296 29.2272 23.7784 29.2451 24.0982C29.2451 24.4002 29.1017 24.6844 28.8329 24.8443C28.7074 24.9509 28.564 24.9864 28.4027 24.9864ZM26.3953 22.4815C26.2339 22.4815 26.0726 22.5703 25.983 22.7124C25.9113 22.8368 25.8755 22.9789 25.9113 23.121C25.9292 23.1921 25.9651 23.2987 26.0726 23.3697C26.6462 23.7251 27.399 24.1692 28.2055 24.5778C28.3489 24.6489 28.5102 24.6489 28.6536 24.5601C28.797 24.4712 28.8866 24.2936 28.8866 24.1159C28.8866 23.9205 28.797 23.7784 28.6357 23.6718L28.4744 23.5829C28.331 23.5119 28.2055 23.423 28.0621 23.352C27.9188 23.2809 27.7933 23.1921 27.6499 23.121C27.3094 22.9256 26.9688 22.7302 26.6103 22.5347C26.5566 22.4992 26.4669 22.4815 26.3953 22.4815Z" fill="#D40002"/>
</svg>
