<svg width="30" height="30" viewBox="0 0 30 30" fill="none" xmlns="http://www.w3.org/2000/svg">
<rect width="30" height="30" rx="15" fill="#D50002"/>
<path d="M18.3605 7.5H11.6394C9.35694 7.5 7.50002 9.35701 7.50002 11.6395V18.3605C7.50002 20.6431 9.35694 22.5 11.6394 22.5H18.3605C20.6431 22.5 22.5 20.643 22.5 18.3605V11.6395C22.5001 9.35701 20.6431 7.5 18.3605 7.5ZM21.1692 18.3605C21.1692 19.9092 19.9093 21.1691 18.3606 21.1691H11.6394C10.0908 21.1692 8.83089 19.9092 8.83089 18.3605V11.6395C8.83089 10.0909 10.0908 8.83087 11.6394 8.83087H18.3605C19.9092 8.83087 21.1691 10.0909 21.1691 11.6395V18.3605H21.1692Z" fill="white"/>
<path d="M15 11.25C12.9322 11.25 11.25 12.9323 11.25 15.0001C11.25 17.0678 12.9322 18.75 15 18.75C17.0678 18.75 18.75 17.0678 18.75 15.0001C18.75 12.9323 17.0678 11.25 15 11.25ZM15 17.4587C13.6443 17.4587 12.5412 16.3557 12.5412 15C12.5412 13.6442 13.6442 12.5412 15 12.5412C16.3558 12.5412 17.4588 13.6442 17.4588 15C17.4588 16.3557 16.3557 17.4587 15 17.4587Z" fill="white"/>
<path d="M18.75 10C18.4216 10 18.099 10.133 17.8671 10.3659C17.634 10.5977 17.5 10.9205 17.5 11.25C17.5 11.5785 17.6341 11.9011 17.8671 12.1341C18.0989 12.3659 18.4216 12.5 18.75 12.5C19.0796 12.5 19.4012 12.3659 19.6341 12.1341C19.8671 11.9011 20 11.5784 20 11.25C20 10.9205 19.8671 10.5977 19.6341 10.3659C19.4023 10.133 19.0796 10 18.75 10Z" fill="white"/>
</svg>
