<?xml version="1.0" encoding="utf-8"?><svg width="76" height="72" fill="none" xmlns="http://www.w3.org/2000/svg" viewBox="0 0 76 72"><rect x=".924" y=".646" width="75" height="71.203" rx="30" fill="#fff"/><path d="M31.569 23.43c2.289.085 4.14.748 5.689 2.225.454.441.909.883 1.346 1.341.22.238.404.238.623 0 .421-.441.859-.883 1.296-1.307 2.39-2.31 5.925-2.887 8.955-1.477 2.93 1.375 4.798 4.5 4.596 7.777-.118 1.919-.791 3.668-2.155 5.043-4.191 4.263-8.416 8.508-12.607 12.753-.32.323-.522.289-.825-.017-4.158-4.194-8.366-8.337-12.457-12.617-2.39-2.479-2.945-5.519-1.615-8.728 1.33-3.226 3.922-4.789 7.154-4.993zm20.317 8.168c0-2.462-1.33-4.534-3.586-5.518-2.087-.917-4.612-.442-6.312 1.222-.91.883-1.801 1.783-2.676 2.7-.303.323-.522.306-.825 0-.926-.95-1.852-1.902-2.828-2.819-1.38-1.307-3.064-1.766-4.898-1.426-2.273.424-3.855 1.783-4.545 4.007-.707 2.259-.186 4.297 1.447 5.978 3.586 3.65 7.188 7.268 10.773 10.902.337.34.572.373.926.017 3.636-3.685 7.272-7.353 10.907-11.038 1.095-1.12 1.617-2.462 1.617-4.025z" fill="#D40002"/></svg>