<?xml version="1.0" encoding="utf-8"?><svg width="75" height="72" fill="none" xmlns="http://www.w3.org/2000/svg" viewBox="0 0 75 72"><rect width="75" height="71.203" rx="30" fill="#fff"/><path d="M33.634 43.868c.167-.16.185-.321.234-.467 1.258-3.632 2.513-7.267 3.771-10.9.074-.215.102-.456.428-.494.406-.046.565.142.681.488 1.208 3.594 2.428 7.184 3.647 10.775.058.171.09.355.213.504.169-.007.17-.148.205-.249a2953.74 2953.74 0 002.825-8.155c.141-.409.23-.83.216-1.268-.02-.566-.256-.89-.805-1.09-.434-.157-.893-.17-1.345-.206-.283-.023-.409-.136-.407-.414.002-.288.149-.386.428-.386 2.277.004 4.554.003 6.83 0 .265 0 .437.068.445.37.008.305-.134.422-.43.43-.24.009-.481.04-.72.067-.99.11-1.729.58-2.203 1.443-.387.705-.666 1.452-.925 2.207-1.471 4.292-2.94 8.586-4.41 12.879-.046.136-.098.27-.15.404-.055.141-.167.192-.316.193-.15 0-.263-.05-.319-.19-.054-.133-.1-.269-.146-.405L37.6 38.095c-.046-.134-.1-.266-.159-.423-.218.091-.215.282-.265.426-1.293 3.774-2.58 7.549-3.867 11.323-.034.099-.067.2-.102.297-.057.156-.139.277-.338.282-.215.005-.313-.112-.372-.289-.224-.67-.452-1.338-.675-2.008-1.3-3.894-2.598-7.788-3.9-11.682-.212-.633-.46-1.252-.803-1.832-.476-.807-1.19-1.245-2.142-1.325-.2-.016-.399-.056-.6-.062-.301-.01-.384-.175-.378-.437.008-.273.16-.357.415-.357 2.76.002 5.52.002 8.28-.001.272 0 .43.086.434.379.003.274-.113.397-.4.42-.413.031-.83.049-1.23.168-.645.193-.922.552-.937 1.203-.012.463.09.907.235 1.343.898 2.678 1.797 5.355 2.698 8.03.034.097.082.188.139.318z" fill="#D40002"/></svg>