<?xml version="1.0" encoding="utf-8"?><svg width="75" height="72" fill="none" xmlns="http://www.w3.org/2000/svg" viewBox="0 0 75 72"><rect y=".253" width="75" height="71.203" rx="30" fill="#fff"/><path d="M38.14 50.566c-2.322 0-4.665-.02-6.987.02-.643 0-.871-.205-.85-.843.041-2.038-.228-1.73 1.7-1.75 4.043-.02 8.087 0 12.13 0 1.742 0 2.24-.39 2.571-2.1.643-3.334 1.286-6.668 1.908-10.002.31-1.688-.373-2.49-2.095-2.511-2.218 0-4.458-.021-6.676 0-.705 0-.995-.247-.954-.947.02-.474.083-.906.249-1.359.808-2.1 1.39-4.26 1.7-6.483.083-.556.145-1.153-.435-1.544-.394-.267-.85-.247-1.265-.02-.58.288-.58.885-.664 1.4-.186 1.296-.456 2.593-.953 3.807-1.742 4.405-4.956 7.327-9.435 8.85-.601.206-.788.474-.788 1.091.02 3.788.02 7.554.02 11.341 0 1.03 0 1.05-1.015 1.03-1.804-.021-1.576.205-1.576-1.544-.02-4.22 0-8.44-.042-12.659 0-.823.229-1.173 1.037-1.358 4.106-.906 7.175-3.19 9.02-6.998.705-1.461.87-3.046 1.182-4.61.58-2.964 3.94-4.179 6.241-2.265 1.244 1.03 1.472 2.409 1.224 3.932-.27 1.688-.623 3.334-1.162 4.96-.186.556-.02.72.54.72 1.264-.02 2.53-.02 3.815 0 3.09 0 5.1 2.326 4.582 5.331a623.49 623.49 0 01-1.97 10.847c-.435 2.306-2.135 3.664-4.478 3.685h-3.339c-1.057-.021-2.156-.021-3.234-.021z" fill="#D40002"/></svg>