<?xml version="1.0" encoding="utf-8"?><svg width="79" height="75" fill="none" xmlns="http://www.w3.org/2000/svg" viewBox="0 0 79 75"><rect width="79" height="75" rx="30" fill="#fff"/><path d="M44 33h-9v9h9v-9zm-13.5-9a4.5 4.5 0 014.5 4.5V33h-4.5a4.5 4.5 0 01-4.5-4.5v0a4.5 4.5 0 014.5-4.5v0zM44 33v-4.5a4.5 4.5 0 114.5 4.5H44zm4.5 18a4.5 4.5 0 01-4.5-4.5V42h4.5a4.5 4.5 0 110 9zM26 46.5a4.5 4.5 0 014.5-4.5H35v4.5a4.5 4.5 0 11-9 0z" stroke="#D40002" stroke-width="2.25" stroke-linecap="round"/></svg>