<?xml version="1.0" encoding="utf-8"?><svg width="16" height="22" fill="none" xmlns="http://www.w3.org/2000/svg" viewBox="0 0 16 22"><path d="M15.812 8.918c.011 2.64-.863 5.005-2.18 7.21-1.194 2.01-2.687 3.77-4.413 5.313-.542.49-.852.514-1.35.068-2.444-2.194-4.446-4.742-5.707-7.872-.863-2.114-1.273-4.308-.797-6.604.675-3.302 3.684-5.758 6.958-5.861 3.606-.103 6.991 2.65 7.489 6.638.044.366 0 .743 0 1.108zm-1.338-.103c-.045-.411-.078-.822-.144-1.234-.52-2.959-3.264-5.267-6.46-4.913-2.357.275-4.414 2.034-5.045 4.41-.453 1.692-.21 3.348.288 4.97.962 3.108 2.854 5.576 5.133 7.759.232.228.398.148.597-.046 1.36-1.314 2.577-2.742 3.562-4.376 1.217-2.01 2.002-4.17 2.069-6.57z" fill="#D40002"/><path d="M8.5 22c-.233 0-.465-.126-.73-.355-2.71-2.422-4.591-5.027-5.775-7.93C1.033 11.295.767 9.1 1.199 6.999 1.873 3.684 4.938 1.102 8.31.999a7.363 7.363 0 015.023 1.828c1.46 1.257 2.389 3.017 2.643 4.96.034.262.022.525.011.787 0 .115-.01.229-.01.343.01 2.4-.709 4.787-2.202 7.301-1.162 1.954-2.655 3.748-4.447 5.347-.31.297-.575.434-.83.434zm.022-20.658h-.2c-3.23.103-6.15 2.56-6.803 5.724-.409 2.034-.154 4.16.797 6.513 1.15 2.868 3.009 5.415 5.686 7.803.431.377.641.366 1.128-.068 1.759-1.577 3.241-3.348 4.38-5.267 1.46-2.457 2.169-4.788 2.158-7.118 0-.115 0-.24.01-.366.012-.251.023-.491-.01-.731-.487-3.68-3.595-6.49-7.146-6.49zM8.51 20.114c-.111 0-.244-.046-.388-.183-2.666-2.57-4.314-5.061-5.177-7.838-.608-1.942-.697-3.553-.298-5.061.641-2.422 2.732-4.239 5.188-4.513 3.163-.354 6.084 1.862 6.648 5.05.055.286.077.571.11.845.012.126.023.263.045.389v.023c-.066 2.25-.752 4.421-2.102 6.65-.918 1.53-2.09 2.97-3.595 4.41-.077.08-.232.228-.431.228zm0-17.298c-.21 0-.42.011-.631.034-2.323.263-4.292 1.977-4.9 4.262-.388 1.451-.288 2.993.287 4.867.84 2.72 2.467 5.165 5.089 7.69.132.137.188.125.365-.046 1.482-1.417 2.633-2.845 3.54-4.342 1.305-2.17 1.98-4.284 2.046-6.467-.011-.125-.033-.251-.044-.377-.033-.274-.056-.56-.11-.822-.488-2.788-2.9-4.799-5.642-4.799z" fill="#D40002"/><path d="M11.863 8.758c0 1.954-1.471 3.462-3.363 3.462-1.87 0-3.33-1.52-3.33-3.462 0-1.954 1.46-3.462 3.363-3.462 1.87.012 3.33 1.531 3.33 3.462zm-1.394.012c.011-1.086-.896-2.023-1.958-2.023-1.05 0-1.925.892-1.947 1.988-.033 1.074.874 2.034 1.936 2.046 1.04.01 1.958-.926 1.97-2.011z" fill="#D40002"/><path d="M8.5 12.392c-1.969 0-3.496-1.6-3.496-3.634 0-.994.365-1.908 1.018-2.582a3.47 3.47 0 012.511-1.051h.011c1.958 0 3.496 1.6 3.496 3.622 0 .982-.365 1.908-1.018 2.582A3.479 3.479 0 018.5 12.392zm.033-6.913c-.874 0-1.681.331-2.279.948-.586.606-.918 1.44-.918 2.343 0 1.84 1.394 3.279 3.164 3.29.874 0 1.681-.343 2.279-.948.597-.617.918-1.44.918-2.342 0-1.851-1.383-3.29-3.164-3.29zm-.01 5.473h-.034a2.15 2.15 0 01-1.516-.697 2.111 2.111 0 01-.586-1.531c.033-1.188.985-2.148 2.113-2.16.542 0 1.095.24 1.493.652.399.411.63.982.63 1.542 0 .571-.242 1.143-.652 1.554-.387.411-.918.64-1.449.64zm0-4.033c-.012 0-.012 0 0 0-.963 0-1.76.822-1.793 1.828-.011.468.166.925.498 1.28.343.365.807.582 1.272.594h.022c.443 0 .885-.195 1.217-.537.354-.355.553-.835.553-1.314 0-.469-.188-.949-.53-1.303a1.691 1.691 0 00-1.24-.548z" fill="#D40002"/></svg>