<?xml version="1.0" encoding="utf-8"?><svg width="76" height="72" fill="none" xmlns="http://www.w3.org/2000/svg" viewBox="0 0 76 72"><rect x=".025" y=".646" width="75" height="71.203" rx="30" fill="#fff"/><path d="M37.528 30.516c3.296 0 5.964 2.626 5.972 5.863 0 3.26-2.668 5.887-5.98 5.879-3.295 0-5.955-2.635-5.955-5.88 0-3.244 2.66-5.862 5.963-5.862zm0 9.75c2.197-.066 3.915-1.676 3.924-3.871.008-2.139-1.66-3.854-3.907-3.87-2.205-.017-3.948 1.674-3.94 3.87.009 2.187 1.726 3.805 3.923 3.87zM34.126 25.182c-.009 2.545-2.214 4.7-4.799 4.692-2.585-.017-4.766-2.188-4.749-4.733.017-2.537 2.205-4.675 4.782-4.675 2.585 0 4.774 2.17 4.766 4.716zm-4.774 2.65c1.486 0 2.7-1.195 2.709-2.658 0-1.48-1.214-2.684-2.71-2.684-1.486.008-2.708 1.204-2.708 2.667a2.686 2.686 0 002.709 2.676zM50.479 25.182c-.008 2.545-2.205 4.7-4.799 4.692-2.585-.008-4.774-2.18-4.757-4.733.016-2.537 2.205-4.675 4.782-4.675 2.593 0 4.782 2.162 4.774 4.716zm-4.766-2.684c-1.486 0-2.709 1.188-2.717 2.643-.008 1.48 1.206 2.692 2.7 2.692 1.487 0 2.71-1.188 2.718-2.643.008-1.48-1.206-2.683-2.7-2.692zM37.512 44.835c3.882.073 7.177 1.488 9.861 4.253.166.17.322.35.488.512.107.106.107.195-.009.31-.371.34-.743.674-1.098 1.032-.174.17-.297.154-.454-.016-.71-.797-1.487-1.52-2.379-2.123-1.908-1.268-4.006-1.919-6.31-1.927-3.444-.008-6.285 1.293-8.598 3.773-.57.61-.413.537-.966.033-.265-.244-.52-.496-.793-.732-.14-.122-.182-.22-.041-.374 2.09-2.342 4.65-3.887 7.78-4.489a13.037 13.037 0 012.519-.252zM46.01 31.93c2.76.155 5.121 1.123 7.054 3.042.173.17.165.285-.008.439-.355.309-.702.626-1.033.968-.173.179-.28.154-.446-.008a8.202 8.202 0 00-4.237-2.253 6.826 6.826 0 00-1.346-.146c-.223 0-.314-.073-.314-.301.008-.464.017-.935 0-1.399-.016-.284.108-.374.33-.341zM29.377 32.956c0 .235-.009.471 0 .699.008.22-.075.3-.298.309-1.924.065-3.626.707-5.096 1.935-.198.163-.38.342-.561.52-.124.123-.215.123-.339 0a44.972 44.972 0 00-1.123-1.048c-.149-.139-.14-.236 0-.374 1.66-1.66 3.659-2.643 5.996-2.968.363-.05.735-.074 1.107-.106.214-.024.33.057.314.293-.017.252 0 .496 0 .74z" fill="#D40002"/></svg>