<?xml version="1.0" encoding="utf-8"?><svg width="112" height="113" fill="none" xmlns="http://www.w3.org/2000/svg" viewBox="0 0 112 113"><path d="M48.25 75.46c-.386-.313-.82-.608-1.181-.97-4.954-4.94-9.877-9.912-14.86-14.823-1.103-1.084-1.205-1.904-.024-2.965a56.026 56.026 0 003.832-3.826c1.013-1.102 1.808-.982 2.802.048 2.405 2.489 4.881 4.905 7.328 7.352 2.139 2.133 2.139 2.139 4.362-.079 7.34-7.339 14.679-14.684 22.018-22.017 2.121-2.121 2.133-2.115 4.26.006 1.067 1.06 2.079 2.18 3.206 3.175 1.187 1.055 1.084 1.874-.024 2.959-4.67 4.585-9.274 9.237-13.902 13.865-5.32 5.32-10.635 10.641-15.962 15.95-.512.518-.958 1.169-1.855 1.325zM58.222 100.937c0 2.784.012 5.574-.006 8.357-.006 1.495-.482 2.845-2.181 2.875-1.682.03-2.326-1.302-2.338-2.778a857.395 857.395 0 01.012-17.161c.018-1.434.614-2.82 2.338-2.76 1.705.06 2.163 1.392 2.163 2.892.018 2.857.012 5.713.012 8.575zM58.222 11.197c0 2.856.012 5.712 0 8.568-.006 1.53-.524 2.718-2.29 2.712-1.65 0-2.211-1.2-2.223-2.573a902.448 902.448 0 01.006-17.131c.018-1.434.596-2.814 2.32-2.772 1.705.042 2.175 1.362 2.181 2.862.012 2.772.006 5.556.006 8.334zM11.222 58.215c-2.778 0-5.562.006-8.34-.006-1.494 0-2.82-.464-2.88-2.163-.06-1.724 1.32-2.32 2.754-2.338a811.134 811.134 0 0117.13-.012c1.489.012 2.706.663 2.592 2.434-.103 1.627-1.272 2.079-2.694 2.085-2.85.012-5.706 0-8.562 0zM100.817 58.215c-2.856 0-5.712.012-8.568-.006-1.513-.012-2.778-.548-2.778-2.26 0-1.596 1.29-2.205 2.633-2.223a792.951 792.951 0 0117.354-.012c1.392.012 2.531.657 2.495 2.302-.036 1.62-1.121 2.187-2.573 2.193-2.856.018-5.707.006-8.563.006zM96.43 93.977c-.023.922-.487 1.567-1.307 1.928-1.006.452-1.928.187-2.687-.554-1.935-1.886-3.839-3.796-5.749-5.7-2.175-2.175-4.362-4.333-6.501-6.538-1.013-1.043-1.7-2.284-.398-3.525 1.217-1.163 2.482-.753 3.573.331 3.983 3.971 7.96 7.948 11.93 11.925.591.59 1.074 1.254 1.14 2.133zM31.992 80.365c-.012.995-.627 1.663-1.271 2.308-3.778 3.778-7.556 7.55-11.329 11.328-1.168 1.17-2.542 1.959-3.928.603-1.489-1.458-.368-2.724.747-3.838 3.88-3.881 7.767-7.767 11.654-11.648.85-.844 1.79-1.428 3.018-.807.82.415 1.121 1.156 1.11 2.054zM80.348 31.985c-.892.012-1.627-.301-2.049-1.127-.518-1.012-.21-1.922.525-2.675 1.94-1.988 3.91-3.953 5.875-5.917 2.073-2.073 4.145-4.14 6.218-6.213 1.09-1.09 2.32-1.952 3.688-.596 1.211 1.205.675 2.56-.35 3.603-4 4.074-8.056 8.099-12.093 12.13-.488.482-1.09.79-1.814.795zM32.878 30.545c.012 1.103-.35 1.736-1.042 2.151-.874.518-1.778.422-2.531-.18-.874-.7-1.663-1.513-2.459-2.308-3.03-3.02-6.055-6.044-9.08-9.075-.476-.476-.964-.958-1.368-1.488-.814-1.073-1.018-2.23.048-3.242 1.085-1.03 2.211-.76 3.188.21 4.151 4.128 8.29 8.274 12.425 12.42.482.488.831 1.06.819 1.512z" fill="#D40002"/><path d="M74.92 15.674c-.766 2.482-1.622 5.525-2.664 8.496-.368 1.042-1.356 1.693-2.573 1.169-1.073-.458-1.706-1.356-1.38-2.543a229.9 229.9 0 012.555-8.665c.391-1.241 1.362-1.79 2.657-1.53 1.38.277 1.374 1.398 1.404 3.073zM44.58 22.808c.018.982-.308 1.796-1.278 2.157-1.054.392-2.036.067-2.512-.904-1.453-2.958-2.706-6.013-3.64-9.177-.277-.94.223-1.801 1.175-2.181.892-.355 1.766-.235 2.47.524.573.633 3.773 8.695 3.785 9.581zM15.205 75.533c-.814-.073-1.398-.488-1.778-1.2-.398-.74-.422-1.536.211-2.072 2.657-2.236 5.712-3.82 8.876-5.194.753-.326 1.47.126 1.964.753s.693 1.313.307 2.09c-.524 1.055-8.375 5.677-9.58 5.623zM43.103 89.199c-1.066 2.507-2.223 5.429-3.567 8.267-.53 1.127-1.747 1.097-2.778.663-1.072-.452-1.343-1.428-.94-2.447a209.619 209.619 0 013.369-8.08c.464-1.048 1.362-1.633 2.573-1.163 1.036.392 1.47 1.217 1.343 2.76zM74.4 98.34c-1.066.078-1.704-.609-2.12-1.567-1.019-2.338-2.073-4.664-3.001-7.044-.494-1.26-.548-2.64.958-3.278 1.404-.596 2.29.326 2.832 1.507 1.127 2.452 2.284 4.898 3.254 7.417.687 1.772-.145 2.947-1.922 2.965zM95.93 36.065c1.35 0 2.08.464 2.429 1.404.367 1.006-.09 1.831-.904 2.313-2.651 1.561-5.483 2.76-8.394 3.736-.964.326-1.801-.102-2.205-1.06-.374-.88-.44-1.959.41-2.47 2.814-1.7 5.863-2.93 8.664-3.923zM22.297 45.013c-2.585-.916-5.568-1.694-8.22-3.284-.807-.488-1.126-1.428-.674-2.38.47-.995 1.332-1.55 2.386-1.2 2.694.904 5.369 1.868 7.996 2.947.958.392 1.44 1.344 1.109 2.434-.325 1.073-1.187 1.465-2.597 1.483zM95.786 74.255c-2.5-1.06-5.339-2.054-7.9-3.61-.964-.584-.952-1.65-.446-2.614.47-.898 1.302-1.374 2.254-.989a152.076 152.076 0 017.622 3.29c1.121.525 1.278 1.628.904 2.718-.337.976-1.127 1.338-2.434 1.205z" fill="#E98283"/></svg>