<?xml version="1.0" encoding="utf-8"?><svg width="22" height="23" fill="none" xmlns="http://www.w3.org/2000/svg" viewBox="0 0 22 23"><path d="M17.155 9.169h-1.538c0-.65-.244-1.273-.676-1.732a2.243 2.243 0 00-1.63-.719V5.085a3.739 3.739 0 012.717 1.197 4.222 4.222 0 011.127 2.887z" fill="#D40002"/><path d="M20.231 9.169h-1.538c-.002-1.516-.57-2.97-1.578-4.042-1.01-1.072-2.378-1.675-3.805-1.676V1.817c1.835.002 3.594.777 4.892 2.156 1.297 1.378 2.027 3.247 2.029 5.196zM18.693 22.24h-.13C3.452 21.316 1.306 7.771 1.006 3.639c-.047-.648.15-1.29.548-1.783A2.264 2.264 0 013.314 1h4.052c.308 0 .61.098.864.281.255.184.452.444.566.748l1.17 3.056c.112.296.14.622.08.936-.06.313-.206.601-.42.828L7.99 8.605a7.817 7.817 0 001.993 4.08 7.068 7.068 0 003.836 2.129l1.668-1.757c.217-.223.49-.374.787-.434.297-.06.604-.025.882.1l2.9 1.233c.281.125.521.336.69.607.168.27.257.588.255.912v4.314a2.53 2.53 0 01-.676 1.733 2.24 2.24 0 01-1.63.718zM3.313 2.633a.73.73 0 00-.294.061.767.767 0 00-.25.176.861.861 0 00-.225.645c.354 4.836 2.623 16.273 16.103 17.09a.742.742 0 00.556-.205.837.837 0 00.258-.562l.001-.05v-4.314l-2.899-1.233-2.207 2.328-.369-.049c-6.69-.89-7.597-7.997-7.597-8.07l-.047-.393 2.184-2.344-1.153-3.08h-4.06z" fill="#D40002"/><path d="M17.155 9.169h-1.538c0-.65-.244-1.273-.676-1.732a2.243 2.243 0 00-1.63-.719V5.085a3.739 3.739 0 012.717 1.197 4.222 4.222 0 011.127 2.887z" stroke="#D40002" stroke-width=".2"/><path d="M20.231 9.169h-1.538c-.002-1.516-.57-2.97-1.578-4.042-1.01-1.072-2.378-1.675-3.805-1.676V1.817c1.835.002 3.594.777 4.892 2.156 1.297 1.378 2.027 3.247 2.029 5.196zM18.693 22.24h-.13C3.452 21.316 1.306 7.771 1.006 3.639c-.047-.648.15-1.29.548-1.783A2.264 2.264 0 013.314 1h4.052c.308 0 .61.098.864.281.255.184.452.444.566.748l1.17 3.056c.112.296.14.622.08.936-.06.313-.206.601-.42.828L7.99 8.605a7.817 7.817 0 001.993 4.08 7.068 7.068 0 003.836 2.129l1.668-1.757c.217-.223.49-.374.787-.434.297-.06.604-.025.882.1l2.9 1.233c.281.125.521.336.69.607.168.27.257.588.255.912v4.314a2.53 2.53 0 01-.676 1.733 2.24 2.24 0 01-1.63.718zM3.313 2.633a.73.73 0 00-.294.061.767.767 0 00-.25.176.861.861 0 00-.225.645c.354 4.836 2.623 16.273 16.103 17.09a.742.742 0 00.556-.205.837.837 0 00.258-.562l.001-.05v-4.314l-2.899-1.233-2.207 2.328-.369-.049c-6.69-.89-7.597-7.997-7.597-8.07l-.047-.393 2.184-2.344-1.153-3.08h-4.06z" stroke="#D40002" stroke-width=".2"/></svg>