<?xml version="1.0" encoding="utf-8"?><svg width="27" height="18" fill="none" xmlns="http://www.w3.org/2000/svg" viewBox="0 0 27 18"><path d="M9.634 11.868c.167-.16.185-.321.234-.467 1.258-3.632 2.513-7.267 3.771-10.9.074-.215.102-.457.429-.494.405-.046.564.142.68.488 1.208 3.594 2.429 7.184 3.647 10.775.058.171.09.355.213.504.169-.007.17-.148.205-.249a2951.46 2951.46 0 002.825-8.155c.141-.409.23-.83.216-1.268-.02-.566-.256-.89-.805-1.09-.434-.157-.893-.17-1.345-.206-.283-.023-.409-.136-.407-.414.002-.288.149-.386.427-.386 2.278.004 4.555.003 6.832 0 .264 0 .436.068.444.37.009.305-.134.421-.43.43-.24.009-.481.04-.72.067-.99.11-1.729.58-2.203 1.443-.387.705-.666 1.452-.925 2.207-1.471 4.292-2.94 8.586-4.41 12.879-.046.136-.098.27-.15.404-.055.141-.167.192-.316.193-.15 0-.263-.05-.319-.19-.054-.133-.1-.269-.146-.405L13.6 6.095c-.046-.135-.1-.266-.159-.423-.218.091-.215.282-.265.426-1.293 3.774-2.58 7.549-3.867 11.323-.034.099-.067.2-.102.297-.057.156-.139.277-.338.282-.215.005-.313-.112-.372-.289-.224-.67-.452-1.338-.675-2.008-1.3-3.894-2.598-7.788-3.9-11.682-.212-.633-.46-1.252-.803-1.832C2.644 1.382 1.93.944.978.864.778.848.579.808.378.802.078.792-.005.627 0 .365.008.092.16.008.415.008c2.76.002 5.52.002 8.28-.001.272 0 .43.086.434.379.003.274-.113.397-.4.42-.413.031-.83.049-1.23.168-.645.193-.922.552-.937 1.203-.012.463.09.907.235 1.343.898 2.678 1.797 5.355 2.699 8.03.032.097.08.188.138.318z" fill="#D40002"/></svg>