<?xml version="1.0" encoding="utf-8"?><svg width="76" height="72" fill="none" xmlns="http://www.w3.org/2000/svg" viewBox="0 0 76 72"><rect x=".823" y=".646" width="75" height="71.203" rx="30" fill="#fff"/><path d="M38.028 49.25v-.176c0-.961 0-.926-.926-1.066-4.055-.63-7.114-2.744-9.142-6.31-.77-1.364-1.259-2.832-1.416-4.388-.052-.576-.28-.873-.909-.804-.332.053-.682.018-1.031 0-.49-.017-.822-.227-.822-.769 0-.49.35-.699.805-.716.366-.018.734-.053 1.083 0 .612.087.804-.193.874-.752.297-2.465 1.259-4.65 2.884-6.52 2.01-2.36 4.58-3.758 7.639-4.23.961-.14.961-.122.961-1.101 0-.315-.017-.647.018-.962.052-.437.28-.716.752-.716.454.017.681.297.716.734.018.367.053.734 0 1.084-.087.646.227.873.822.944 2.167.244 4.125 1.066 5.855 2.377 2.745 2.097 4.335 4.86 4.825 8.268.122.839.105.839.961.839.367 0 .734-.018 1.084.017.437.035.734.28.734.734 0 .455-.297.7-.734.734-.385.035-.77.053-1.136 0-.63-.087-.84.21-.91.805-.191 1.94-.908 3.705-1.974 5.313-2.046 3.042-4.93 4.79-8.513 5.367-.996.157-.996.14-.996 1.136 0 .297.017.612 0 .909-.035.454-.28.769-.77.769-.454-.018-.664-.332-.716-.752-.018-.245 0-.507-.018-.769.018 0 .018 0 0 0zm10.488-12.744c-.227 0-.437.018-.664 0-.472-.035-.84-.244-.822-.769.018-.49.367-.699.822-.716.42-.018.839-.018 1.276 0 .385.017.524-.14.49-.542-.525-4.877-4.72-9.072-9.562-9.527-.385-.035-.507.105-.507.472.018.437.018.892-.017 1.329-.035.454-.263.786-.734.786-.49 0-.7-.35-.735-.804a15.09 15.09 0 010-1.258c.018-.437-.175-.56-.594-.507-4.964.612-8.897 4.527-9.492 9.456-.052.437.088.595.507.577.437-.017.892-.017 1.329.018.437.035.734.28.734.734 0 .454-.315.681-.734.734-.28.035-.56.017-.84.017-1.048 0-1.048 0-.908 1.05.664 4.631 4.79 8.564 9.439 9.019.35.035.542-.07.542-.437 0-.437 0-.892.017-1.329.018-.454.228-.804.717-.804.49 0 .717.332.752.787.035.437.017.891.017 1.328-.017.42.175.507.56.455 4.771-.595 8.617-4.248 9.404-8.915.174-1.154.174-1.154-.997-1.154z" fill="#D40002"/><path d="M38.78 50.962h-.035c-.507-.018-.822-.35-.874-.909a3.002 3.002 0 010-.56v-.087l-.017-.157v-.175c0-.384 0-.63-.07-.716-.07-.07-.263-.105-.612-.158l-.105-.017c-4.09-.647-7.22-2.797-9.264-6.398a11.441 11.441 0 01-1.451-4.457c-.035-.297-.105-.472-.21-.56-.087-.104-.262-.122-.49-.087-.279.035-.576.018-.856.018h-.192c-.647-.053-.996-.385-.996-.962 0-.542.35-.874.961-.891l.175-.018c.314-.017.629-.035.944 0 .21.035.367 0 .472-.07.105-.087.174-.244.21-.541.296-2.483 1.275-4.703 2.918-6.625 2.028-2.325 4.633-3.758 7.762-4.23h.052c.385-.053.612-.088.682-.175.07-.088.07-.332.07-.734v-.245c0-.245 0-.49.017-.752.052-.56.385-.874.926-.874.525.018.857.332.892.892.017.35.052.734 0 1.118-.035.245 0 .402.087.525.088.122.28.192.595.227 2.167.245 4.16 1.066 5.943 2.412 2.761 2.098 4.405 4.93 4.894 8.373v.035c.053.332.07.542.14.594.07.053.315.053.647.053h.227c.28 0 .577 0 .856.017.56.053.892.385.892.91 0 .506-.35.856-.892.908-.35.035-.769.053-1.188 0-.227-.035-.385 0-.49.07-.105.087-.175.262-.21.56-.192 1.87-.873 3.688-2.01 5.4-2.01 3.007-4.929 4.843-8.635 5.454l-.07.018c-.384.07-.629.105-.699.192-.07.087-.07.35-.07.752v.262c0 .21 0 .437-.017.664-.035.594-.385.944-.909.944zm-.577-1.888l.018.175v.769c.035.385.21.594.542.594.35.018.541-.192.576-.611.018-.21.018-.402.018-.612v-.262c0-1.05.052-1.12 1.066-1.294l.07-.017c3.618-.595 6.45-2.378 8.408-5.297 1.118-1.66 1.765-3.426 1.957-5.244.035-.402.14-.646.333-.804.174-.14.42-.192.751-.157.385.053.77.017 1.101 0 .263-.017.577-.14.577-.56 0-.419-.314-.541-.577-.559-.28-.017-.559-.017-.821-.017h-.245c-.926 0-1.014-.07-1.136-.961v-.035c-.472-3.357-2.08-6.1-4.755-8.146a11.555 11.555 0 00-5.768-2.342c-.42-.053-.664-.158-.821-.367-.14-.193-.193-.437-.158-.787.053-.35.018-.717 0-1.049-.017-.367-.21-.56-.541-.56-.35-.017-.525.176-.56.56-.017.227-.017.472-.017.7v.244c0 1.031-.07 1.101-1.05 1.259h-.052c-3.059.472-5.593 1.87-7.568 4.16a11.972 11.972 0 00-2.85 6.432c-.035.263-.104.595-.332.787-.174.14-.402.175-.716.14-.28-.035-.577-.018-.874 0l-.175.017c-.577 0-.647.297-.647.525 0 .244.07.559.647.576h.21c.28.018.542.018.786-.017.332-.035.577 0 .752.157.262.21.314.56.35.804.157 1.521.629 2.972 1.398 4.318 1.993 3.513 5.034 5.593 9.02 6.223l.087.017c.944.14.996.227.996 1.241zm1.73-2.325a.645.645 0 01-.401-.122c-.123-.105-.175-.28-.175-.524.017-.402.017-.857-.018-1.311-.017-.28-.122-.612-.576-.612-.35 0-.525.227-.542.647-.018.454-.018.926-.018 1.31 0 .228-.052.385-.175.49-.157.14-.402.14-.559.122-4.702-.454-8.932-4.474-9.596-9.159-.088-.577-.123-.857.035-1.049.157-.192.454-.192 1.03-.192h.21c.21 0 .42 0 .63-.017.385-.035.577-.228.577-.56 0-.454-.35-.542-.577-.56-.472-.034-.944-.017-1.311-.017-.175 0-.402-.017-.56-.175-.157-.174-.14-.419-.122-.594a11.114 11.114 0 019.632-9.649c.174-.017.437-.035.611.123.123.122.193.297.175.56-.017.401-.017.82 0 1.258.018.42.21.629.56.629.437 0 .541-.332.559-.612.035-.454.017-.926.017-1.31 0-.158.018-.368.158-.508.157-.14.384-.14.524-.122 4.93.472 9.194 4.72 9.719 9.684.017.157.017.402-.123.559-.157.157-.384.175-.541.175-.438-.018-.857 0-1.259 0-.42.017-.647.192-.647.542 0 .14-.017.541.664.594.14.018.298 0 .438 0h.21c.663 0 .96 0 1.135.21.175.21.123.524.018 1.153-.787 4.72-4.72 8.46-9.544 9.055-.035-.018-.105-.018-.157-.018zM29.062 36.681h-.087c-.402 0-.717 0-.77.07-.052.07-.017.385.036.77.647 4.526 4.72 8.424 9.281 8.861.14.018.245 0 .28-.035.053-.035.053-.14.053-.227 0-.402-.018-.874.017-1.346.035-.594.367-.961.892-.979h.017c.524 0 .874.35.909.944.035.472.017.944.017 1.346 0 .123.018.227.053.262s.105.053.315.035c4.684-.594 8.477-4.195 9.246-8.774.07-.455.123-.787.053-.857-.07-.087-.402-.087-.857-.07H47.835c-.647-.052-.997-.384-.997-.944.018-.524.385-.856.979-.874.402-.017.822-.017 1.276 0 .105 0 .227 0 .28-.052.035-.053.052-.14.035-.297-.507-4.807-4.633-8.915-9.404-9.37-.14-.017-.228 0-.263.035s-.052.123-.052.245c0 .402.017.874-.018 1.346-.035.594-.384.944-.926.944s-.874-.367-.891-.961a15.506 15.506 0 010-1.276c0-.105 0-.228-.07-.28-.053-.052-.158-.052-.332-.035a10.69 10.69 0 00-9.317 9.317c-.018.157 0 .28.035.314.035.053.14.07.297.07.367-.017.857-.017 1.346.018.56.035.891.384.891.909 0 .507-.332.839-.891.909-.227.017-.455.017-.664.017-.018-.035-.053-.035-.088-.035z" fill="#D40002"/><path d="M33.571 35.79c0-2.867 2.325-5.244 5.192-5.244 2.866-.018 5.226 2.342 5.243 5.209.018 2.814-2.36 5.209-5.174 5.226-2.866.017-5.261-2.342-5.261-5.191zm8.932.017c.018-2.08-1.626-3.758-3.67-3.758-2.116-.018-3.759 1.59-3.776 3.706a3.69 3.69 0 003.688 3.74c2.063 0 3.758-1.66 3.758-3.688z" fill="#D40002"/><path d="M38.815 41.156a5.384 5.384 0 01-3.828-1.59 5.264 5.264 0 01-1.59-3.776c0-2.99 2.394-5.42 5.366-5.42h.017c2.971 0 5.384 2.413 5.401 5.385 0 1.398-.56 2.744-1.573 3.793-1.031 1.031-2.36 1.608-3.776 1.608h-.017zm-5.07-5.366c0 1.328.543 2.57 1.487 3.53a5.11 5.11 0 003.6 1.486c1.311 0 2.57-.542 3.514-1.52a4.989 4.989 0 001.486-3.549c-.018-2.78-2.273-5.034-5.052-5.034h-.017c-2.78.035-5.035 2.307-5.017 5.087zm5.035 3.863h-.017c-2.185-.018-3.881-1.73-3.863-3.916.017-2.185 1.73-3.88 3.932-3.88h.018c2.167.017 3.845 1.748 3.845 3.933 0 1.03-.42 1.992-1.153 2.727a3.933 3.933 0 01-2.762 1.136zm.035-7.447c-2.028 0-3.566 1.521-3.583 3.531-.018 1.993 1.538 3.549 3.513 3.566h.018c.943 0 1.835-.367 2.517-1.031a3.567 3.567 0 001.048-2.482c.018-2.01-1.52-3.584-3.496-3.584h-.017z" fill="#D40002"/></svg>