<?xml version="1.0" encoding="utf-8"?><svg width="76" height="72" fill="none" xmlns="http://www.w3.org/2000/svg" viewBox="0 0 76 72"><rect x=".886" y=".253" width="75" height="71.203" rx="30" fill="#fff"/><path d="M36.863 42.148c-.43 0-.879-.017-1.309 0-.556.018-.95-.23-1.255-.657-.34-.462-.537-.995-.734-1.51-.484-1.208-1.022-2.398-1.882-3.393a15.366 15.366 0 01-1.542-2.168c-2.222-3.677-1.487-8.137 1.255-11.033 1.613-1.705 3.62-2.735 6.004-2.966 2.778-.285 5.252.515 7.331 2.345 1.864 1.634 2.922 3.73 3.172 6.182.215 2.097-.34 4.015-1.47 5.792-.501.782-1.093 1.492-1.666 2.238a15.232 15.232 0 00-2.456 4.566c-.09.285-.215.533-.537.604-.556.125-.968-.337-.825-.888.197-.675.466-1.315.77-1.954.7-1.475 1.632-2.807 2.671-4.069.968-1.172 1.721-2.487 2.008-3.997.322-1.723.107-3.375-.681-4.939-1.094-2.167-2.832-3.589-5.18-4.264-3.71-1.048-7.707.711-9.428 4.122-1.147 2.256-1.237 4.566-.161 6.875a11.817 11.817 0 001.703 2.594c1.021 1.19 1.684 2.559 2.24 4.015.108.302.25.587.376.87.09.214.251.303.502.303h2.33c.144 0 .287.018.413.035.376.072.573.338.555.729-.018.355-.269.604-.645.604a45.57 45.57 0 00-1.56-.036z" fill="#D40002"/><path d="M35.5 42.344c-.555 0-.985-.231-1.344-.729-.322-.444-.52-.941-.699-1.42l-.054-.143c-.448-1.137-.985-2.345-1.846-3.358a15.475 15.475 0 01-1.56-2.185c-2.204-3.589-1.684-8.101 1.256-11.228 1.684-1.777 3.745-2.807 6.13-3.038 2.831-.284 5.34.515 7.473 2.398 1.882 1.653 2.976 3.785 3.245 6.307.197 2.008-.287 3.998-1.488 5.898-.412.658-.896 1.262-1.362 1.848a5.793 5.793 0 00-.305.391 14.864 14.864 0 00-2.42 4.513c-.107.32-.269.64-.68.728a.897.897 0 01-.843-.231.897.897 0 01-.197-.87c.215-.711.502-1.404.77-1.973.61-1.314 1.47-2.611 2.689-4.103 1.075-1.297 1.703-2.594 1.972-3.927.322-1.688.09-3.304-.664-4.832-1.075-2.114-2.778-3.518-5.072-4.157a7.92 7.92 0 00-9.23 3.997c-1.148 2.239-1.201 4.513-.162 6.716.394.87.95 1.705 1.685 2.54.896 1.048 1.595 2.292 2.258 4.05.072.214.18.41.27.623.035.088.07.16.107.248.053.142.143.196.322.196h2.33c.162 0 .305.017.448.035.466.09.717.427.7.906-.018.444-.359.764-.807.782-.358.018-.735 0-1.093 0h-1.775c-.018.018-.036.018-.054.018zm2.958-21.799c-.34 0-.7.018-1.04.053-2.312.231-4.283 1.208-5.915 2.932-2.814 3.002-3.315 7.337-1.218 10.82.466.78.985 1.491 1.523 2.131.896 1.048 1.452 2.274 1.9 3.447l.054.142c.197.48.358.941.663 1.332.305.409.645.586 1.111.569.305-.018.61 0 .914 0h1.936c.269 0 .448-.178.466-.444.018-.214-.054-.462-.412-.534a2.263 2.263 0 00-.377-.035h-2.312c-.304 0-.537-.124-.663-.409-.036-.07-.072-.16-.107-.23-.09-.214-.198-.427-.27-.64-.645-1.723-1.326-2.95-2.186-3.944a11.207 11.207 0 01-1.72-2.63c-1.076-2.31-1.022-4.69.16-7.035 1.775-3.518 5.826-5.276 9.644-4.21 2.401.675 4.176 2.131 5.287 4.352a7.684 7.684 0 01.699 5.046c-.269 1.403-.932 2.736-2.043 4.086-1.201 1.475-2.044 2.754-2.653 4.033-.269.568-.556 1.226-.753 1.919-.053.213-.018.408.108.532a.555.555 0 00.502.143c.233-.054.322-.213.412-.498a15.211 15.211 0 012.491-4.619c.108-.142.215-.266.323-.39.466-.587.932-1.191 1.326-1.813 1.165-1.865 1.631-3.713 1.434-5.667-.25-2.434-1.29-4.477-3.118-6.076-1.793-1.564-3.872-2.363-6.166-2.363zM42.742 46.181v1.03c0 .32-.108.587-.341.818-.52.533-1.183.835-1.846 1.083a.952.952 0 00-.484.391c-.7 1.19-2.724 1.173-3.406-.035a.763.763 0 00-.412-.338c-.68-.266-1.344-.55-1.864-1.066a1.19 1.19 0 01-.376-.888c.018-.657 0-1.315 0-1.972 0-.942.68-1.617 1.63-1.617h5.485c.932 0 1.614.675 1.614 1.6v.994zm-4.338-1.226h-2.617c-.269 0-.376.09-.376.373.018.533 0 1.066 0 1.6 0 .195.072.32.233.408a5.98 5.98 0 001.774.746c.27.071.412.178.412.48 0 .32.18.444.52.444.43 0 .61-.107.61-.462 0-.302.16-.409.412-.48a6.482 6.482 0 001.774-.746.425.425 0 00.215-.39c0-.534-.017-1.084 0-1.617 0-.267-.107-.356-.376-.356h-2.581z" fill="#D40002"/><path d="M38.386 50.57h-.036c-.788 0-1.505-.391-1.846-1.013-.072-.125-.161-.196-.322-.267-.628-.248-1.363-.55-1.936-1.101-.305-.285-.43-.622-.43-1.03.017-.41 0-.836 0-1.244v-.729c0-1.048.77-1.794 1.81-1.794h5.484c1.04 0 1.793.746 1.793 1.777v2.042c0 .356-.126.676-.395.942-.555.569-1.254.87-1.917 1.137a.653.653 0 00-.395.32c-.322.604-1.021.96-1.81.96zm-.484-6.823h-2.24c-.843 0-1.452.604-1.452 1.44v1.971c0 .302.09.533.322.764.52.516 1.184.782 1.81 1.03.18.072.377.16.503.427.286.498.878.817 1.541.835.681 0 1.255-.302 1.56-.8a.938.938 0 01.573-.461c.627-.231 1.29-.533 1.792-1.049.197-.213.287-.426.287-.692v-1.369-.692c0-.817-.61-1.422-1.434-1.422-1.111.018-2.186.018-3.262.018zm.448 5.437c-.484 0-.717-.213-.717-.622 0-.196-.053-.249-.269-.302a6.447 6.447 0 01-1.828-.782.623.623 0 01-.305-.568c.018-.604.018-1.102 0-1.582 0-.177.036-.32.126-.408.126-.125.305-.142.412-.142h5.216c.125 0 .305.017.43.142.09.089.144.23.126.408-.018.569 0 1.137 0 1.617 0 .231-.09.409-.305.533a6.444 6.444 0 01-1.828.782c-.215.053-.287.124-.287.302.018.55-.394.622-.77.622zm-2.58-4.051c-.108 0-.144.018-.144.036 0 0-.036.035-.036.16.018.48.018.994 0 1.598 0 .125.036.196.143.267.52.32 1.094.568 1.721.728.251.071.538.196.538.658 0 .195.053.266.34.284h.018c.395 0 .413-.107.413-.284 0-.444.304-.587.555-.64.627-.16 1.201-.409 1.72-.728.108-.071.144-.125.144-.231 0-.48-.018-1.049 0-1.635 0-.106-.018-.142-.036-.142 0 0-.053-.035-.161-.035h-3.334c-.61-.036-1.237-.036-1.882-.036zM32.041 28.504c0-.23.09-.444.18-.64.824-1.918 2.204-3.268 4.14-4.05.09-.035.179-.071.287-.089.394-.106.752.053.878.409.125.355-.036.728-.43.87-.825.302-1.578.746-2.205 1.368a5.785 5.785 0 00-1.488 2.345c-.125.373-.43.551-.806.48-.359-.07-.574-.337-.556-.693z" fill="#D40002"/><path d="M32.722 29.375c-.071 0-.125 0-.197-.018-.412-.071-.681-.409-.681-.853 0-.248.09-.462.18-.657l.017-.053c.843-1.955 2.259-3.34 4.23-4.14.09-.035.197-.071.305-.107.484-.124.932.09 1.093.534.161.461-.054.923-.538 1.101a5.901 5.901 0 00-2.133 1.315 5.77 5.77 0 00-1.451 2.274c-.126.373-.43.604-.825.604zm4.158-5.526c-.053 0-.125 0-.179.018-.09.018-.179.054-.269.09-1.882.763-3.244 2.095-4.032 3.96l-.018.054c-.072.178-.144.338-.144.515 0 .267.144.462.395.498.286.053.502-.071.609-.356.305-.923.825-1.723 1.541-2.416.628-.621 1.38-1.066 2.259-1.403.287-.107.43-.373.322-.658-.107-.177-.268-.302-.483-.302zM50.359 37.387c-.143 0-.269-.053-.394-.107-.61-.355-1.237-.693-1.864-1.066-.413-.248-.538-.64-.305-.994.215-.338.61-.41 1.022-.178.627.355 1.254.71 1.882 1.084.286.16.412.48.322.781-.09.302-.34.48-.663.48z" fill="#D40002"/><path d="M50.359 37.565a.793.793 0 01-.466-.142 13.315 13.315 0 01-.681-.391c-.394-.231-.789-.444-1.183-.675-.269-.16-.43-.356-.484-.604a.756.756 0 01.125-.64c.27-.426.771-.515 1.255-.23l.34.194c.52.285 1.022.587 1.542.889.358.213.52.604.394.995a.871.871 0 01-.842.604zm-2.008-2.487a.479.479 0 00-.412.23c-.071.125-.107.25-.071.374.035.142.143.266.322.373.395.23.789.444 1.183.675.233.124.448.248.681.39a.503.503 0 00.305.09c.25 0 .412-.125.484-.356a.491.491 0 00-.233-.586c-.52-.302-1.022-.586-1.541-.889l-.341-.195a.757.757 0 00-.377-.106zM25.66 30.53h-1.093c-.394 0-.681-.267-.717-.622-.036-.302.215-.622.538-.711.09-.018.18-.035.269-.035h2.079a.77.77 0 01.52.177c.215.196.322.427.215.71a.65.65 0 01-.61.48h-1.2z" fill="#D40002"/><path d="M26.395 30.707h-1.863c-.485 0-.843-.32-.879-.782-.036-.39.25-.799.681-.906.108-.035.215-.035.305-.035h2.079c.269 0 .484.07.645.213.287.249.394.569.269.906-.126.373-.394.586-.77.604h-.467zm-.914-.355H26.88c.233 0 .377-.125.448-.355.072-.196.018-.374-.179-.534-.09-.088-.233-.124-.412-.124h-2.08a.905.905 0 00-.214.036c-.251.07-.43.302-.413.533.036.266.251.462.538.462h.753l.161-.018zM51.076 30.53h-1.093c-.413 0-.7-.25-.717-.64a.631.631 0 01.627-.71 17.788 17.788 0 012.384 0 .68.68 0 01.663.71c-.018.373-.323.64-.753.64h-1.111z" fill="#D40002"/><path d="M50.395 30.707h-.43c-.502 0-.86-.32-.897-.8a.842.842 0 01.198-.621.896.896 0 01.609-.284 18.058 18.058 0 012.402 0c.502.035.842.408.824.888-.018.48-.394.8-.914.817h-1.792zm.68-1.403c-.393 0-.788.017-1.182.035a.606.606 0 00-.358.16.427.427 0 00-.108.355c.018.285.215.462.556.462h2.186c.323 0 .556-.195.574-.48.018-.248-.162-.497-.484-.515-.412 0-.807-.017-1.183-.017zM48.387 24.791a.641.641 0 01-.645-.462c-.09-.284-.018-.604.233-.764.7-.409 1.398-.817 2.115-1.208.34-.178.7-.035.878.302.18.32.09.693-.25.888-.646.391-1.309.747-1.954 1.12a.482.482 0 01-.377.124z" fill="#D40002"/><path d="M48.423 24.969h-.036c-.394 0-.699-.231-.806-.569-.126-.39 0-.782.322-.96.807-.479 1.488-.87 2.115-1.207.413-.213.897-.054 1.13.373.233.408.09.888-.323 1.137-.466.284-.95.55-1.416.817-.18.107-.376.213-.556.32a1.33 1.33 0 01-.43.089zm1.954-2.488a.481.481 0 00-.215.054c-.627.337-1.309.71-2.115 1.208-.215.124-.215.373-.161.55.071.214.232.32.483.338h.018c.072 0 .18-.018.27-.071.179-.107.376-.213.555-.32l1.398-.8a.475.475 0 00.197-.657.464.464 0 00-.43-.302zM29.066 35.575a.663.663 0 01-.34.586c-.664.373-1.327.764-1.99 1.137a.676.676 0 01-.932-.248c-.197-.338-.09-.729.269-.942.645-.373 1.29-.746 1.935-1.101.502-.285 1.058.035 1.058.568z" fill="#D40002"/><path d="M26.395 37.565a.831.831 0 01-.735-.427c-.233-.426-.107-.923.34-1.172.754-.444 1.381-.8 1.937-1.102.304-.16.645-.16.914 0s.412.427.412.747-.161.568-.43.728l-.161.089c-.592.337-1.22.71-1.829 1.048a1.432 1.432 0 01-.448.089zm1.99-2.487a.665.665 0 00-.305.088c-.556.32-1.183.658-1.936 1.102-.268.16-.34.444-.197.693.144.248.43.32.681.177.61-.337 1.237-.692 1.828-1.048l.162-.089a.459.459 0 00.25-.426.477.477 0 00-.232-.426c-.054-.054-.144-.072-.251-.072zM29.066 24.116c0 .497-.502.853-.95.622-.735-.373-1.434-.8-2.133-1.226-.305-.178-.34-.586-.143-.888.197-.285.555-.409.878-.231.484.266.968.55 1.452.817.197.107.376.213.573.32.215.142.305.337.323.586z" fill="#D40002"/><path d="M28.403 24.986a.97.97 0 01-.377-.088 29.429 29.429 0 01-2.15-1.226.815.815 0 01-.341-.462.882.882 0 011.255-.977c.358.177.699.39 1.04.586.143.071.268.16.411.231.144.071.27.16.413.23l.16.09a.858.858 0 01.019 1.474.63.63 0 01-.43.142zm-2.008-2.505a.498.498 0 00-.412.231c-.072.125-.108.267-.072.409a.398.398 0 00.162.249c.573.355 1.326.8 2.133 1.208a.45.45 0 00.448-.018.53.53 0 00.233-.444.506.506 0 00-.251-.444l-.162-.09c-.143-.07-.268-.159-.412-.23-.143-.071-.269-.16-.412-.231-.34-.195-.681-.39-1.04-.586a.429.429 0 00-.215-.053z" fill="#D40002"/></svg>