<?xml version="1.0" encoding="utf-8"?><svg width="30" height="30" xmlns="http://www.w3.org/2000/svg" viewBox="0 0 30 30"><path d="M14.47 20.47a.75.75 0 101.06 1.06l-1.06-1.06zM21 15l.53.53.53-.53-.53-.53L21 15zm-5.47-6.53a.75.75 0 10-1.06 1.06l1.06-1.06zM1.5 14.25a.75.75 0 000 1.5v-1.5zm2.075 6.416a.75.75 0 10-1.343.668l1.343-.668zM2.334 8.465a.75.75 0 101.332.689l-1.332-.69zM15.53 21.53l6-6-1.06-1.06-6 6 1.06 1.06zm6-7.06l-6-6-1.06 1.06 6 6 1.06-1.06zM1.5 15.75H21v-1.5H1.5v1.5zm.732 5.584C4.562 26.024 9.404 29.25 15 29.25v-1.5a12.75 12.75 0 01-11.425-7.084l-1.343.668zM15 29.25c7.87 0 14.25-6.38 14.25-14.25h-1.5c0 7.042-5.708 12.75-12.75 12.75v1.5zM29.25 15C29.25 7.13 22.87.75 15 .75v1.5c7.042 0 12.75 5.708 12.75 12.75h1.5zM15 .75C9.484.75 4.702 3.884 2.334 8.465l1.332.689A12.749 12.749 0 0115 2.25V.75z"/></svg>