<?xml version="1.0" encoding="utf-8"?><svg viewBox="0 0 341.33 341.33" xmlns="http://www.w3.org/2000/svg" xmlns:xlink="http://www.w3.org/1999/xlink"><style>:root>svg{display:none}:root>svg:target{display:block}</style><svg fill="none" viewBox="0 0 92 8" id="icon-arrow--left" xmlns="http://www.w3.org/2000/svg"><path d="M.646 4.354a.5.5 0 010-.708L3.828.464a.5.5 0 01.708.708L1.707 4l2.829 2.828a.5.5 0 01-.708.708L.646 4.354zM92 4.5H1v-1h91v1z" fill="#788CAA"/></svg><svg fill="none" viewBox="0 0 92 8" id="icon-arrow--right" xmlns="http://www.w3.org/2000/svg"><path d="M91.354 4.354a.5.5 0 000-.708L88.172.464a.5.5 0 10-.707.708L90.293 4l-2.829 2.828a.5.5 0 10.708.708l3.182-3.182zM0 4.5h91v-1H0v1z" fill="#788CAA"/></svg><svg fill="none" viewBox="0 0 79 75" id="icon-brif-1" xmlns="http://www.w3.org/2000/svg"><rect width="79" height="75" rx="30" fill="#fff"/><path d="M50.2 30.182c1.75 2.277 2.8 5.113 2.8 8.182C53 45.89 46.728 52 39 52s-14-6.11-14-13.636c0-7.528 6.272-13.637 14-13.637M39 22v16.364l13.44-9.818C49.374 24.576 44.488 22 39 22z" stroke="#D40002" stroke-width="2.25"/></svg><svg fill="none" viewBox="0 0 79 75" id="icon-brif-2" xmlns="http://www.w3.org/2000/svg"><rect width="79" height="75" rx="30" fill="#fff"/><path d="M44 33h-9v9h9v-9zm-13.5-9a4.5 4.5 0 014.5 4.5V33h-4.5a4.5 4.5 0 01-4.5-4.5v0a4.5 4.5 0 014.5-4.5v0zM44 33v-4.5a4.5 4.5 0 114.5 4.5H44zm4.5 18a4.5 4.5 0 01-4.5-4.5V42h4.5a4.5 4.5 0 110 9zM26 46.5a4.5 4.5 0 014.5-4.5H35v4.5a4.5 4.5 0 11-9 0z" stroke="#D40002" stroke-width="2.25" stroke-linecap="round"/></svg><svg fill="none" viewBox="0 0 79 75" id="icon-brif-3" xmlns="http://www.w3.org/2000/svg"><rect width="79" height="75" rx="30" fill="#fff"/><path d="M52.5 37h-27M39 50.5v-27 27z" stroke="#D40002" stroke-width="2.25" stroke-linecap="round"/><path d="M25.5 23.5h27v27h-27v-27z" stroke="#D40002" stroke-width="2.25" stroke-linecap="round" stroke-linejoin="round" stroke-dasharray="5 5"/></svg><svg fill="none" viewBox="0 0 79 75" id="icon-brif-4" xmlns="http://www.w3.org/2000/svg"><rect width="79" height="75" rx="30" fill="#fff"/><path d="M53.5 25.5h-27V36h27V25.5zm0 16.5h-27v10.5h27V42z" stroke="#D40002" stroke-width="2.25" stroke-linecap="round"/><path d="M31 48h6m-6-16.5h6-6z" stroke="#D40002" stroke-width="2.25" stroke-linecap="round" stroke-linejoin="round"/></svg><svg fill="none" viewBox="0 0 79 75" id="icon-brif-5" xmlns="http://www.w3.org/2000/svg"><rect width="79" height="75" rx="30" fill="#fff"/><path d="M34.5 38.5h9m9-13.5h-27v18h27V25z" stroke="#D40002" stroke-width="2.25" stroke-miterlimit="10" stroke-linecap="round"/><path d="M34.5 34v-9M30 38.5V25v13.5zm18 0V25v13.5zM43.5 34v-9 9zM39 34v-9 9z" stroke="#D40002" stroke-width="2.25" stroke-miterlimit="10" stroke-linecap="round" stroke-linejoin="round" stroke-dasharray="0.01 4.5"/><path d="M28.5 47.5l10.5 3 10.5-3" stroke="#D40002" stroke-width="2.25" stroke-miterlimit="10" stroke-linecap="round"/></svg><svg fill="none" viewBox="0 0 79 75" id="icon-brif-6" xmlns="http://www.w3.org/2000/svg"><rect width="79" height="75" rx="30" fill="#fff"/><path d="M26 45c0 3.6 3 4.5 4.5 4.5 8.25 0 7.5-12 15.75-12C50 37.5 53 40.522 53 44.25A6.75 6.75 0 0146.25 51m-15-11.25l12-12L39.5 24l-12 12-.75 4.5 4.5-.75z" stroke="#D40002" stroke-width="2.25" stroke-linecap="round"/></svg><svg fill="none" viewBox="0 0 79 75" id="icon-brif-7" xmlns="http://www.w3.org/2000/svg"><rect width="79" height="75" rx="30" fill="#fff"/><path d="M27 40l-1.5 10.5h27L51 40m0 0H27V23.5h24V40z" stroke="#D40002" stroke-width="2.25" stroke-linecap="round"/><path d="M33.75 50.5l.75-4.5h9l.75 4.5" stroke="#D40002" stroke-width="2.25" stroke-linecap="round"/></svg><svg fill="none" viewBox="0 0 79 75" id="icon-brif-8" xmlns="http://www.w3.org/2000/svg"><rect width="79" height="75" rx="30" fill="#fff"/><path d="M46.925 30.075l2.121-2.121M39.5 43.5a6 6 0 100-12 6 6 0 000 12zm0-19.5v3-3zm0 24v3-3zM53 37.5h-3 3zm-24 0h-3 3zm20.046 9.546l-2.121-2.121 2.121 2.121zM32.075 30.075l-2.121-2.121 2.121 2.121zm-2.121 16.971l2.121-2.121-2.121 2.121z" stroke="#D40002" stroke-width="2.25" stroke-linecap="round" stroke-linejoin="round"/></svg><svg fill="none" viewBox="0 0 13 9" id="icon-check" xmlns="http://www.w3.org/2000/svg"><path d="M4.538 8.927L.08 4.83a.254.254 0 01-.06-.083.237.237 0 01.06-.278l1.125-1.04a.29.29 0 01.389 0l2.934 2.694c.107.1.282.099.39 0L11.402.075c.107-.101.282-.101.39-.002l1.127 1.041c.108.1.108.26.002.36L5.858 8.058v.001l-.93.865c-.108.1-.283.1-.39.002z" fill="#D40002"/></svg><svg fill="none" viewBox="0 0 75 72" id="icon-fact-1" xmlns="http://www.w3.org/2000/svg"><rect width="75" height="71.203" rx="30" fill="#fff"/><path d="M24 41c0 3.6 3 4.5 4.5 4.5 8.25 0 7.5-12 15.75-12C48 33.5 51 36.522 51 40.25A6.75 6.75 0 0144.25 47m-15-11.25l12-12L37.5 20l-12 12-.75 4.5 4.5-.75z" stroke="#D40002" stroke-width="2.25" stroke-linecap="round"/></svg><svg fill="none" viewBox="0 0 75 72" id="icon-fact-2" xmlns="http://www.w3.org/2000/svg"><rect width="75" height="71.203" rx="30" fill="#fff"/><path d="M37.194 23l3.75 10.5H51.39l-8.195 6 3 10.5-9-6.373-9 6.373 3-10.5-8.194-6h10.444l3.75-10.5z" stroke="#D40002" stroke-width="2.25" stroke-linecap="round" stroke-linejoin="round"/></svg><svg fill="none" viewBox="0 0 75 72" id="icon-fact-3" xmlns="http://www.w3.org/2000/svg"><rect width="75" height="71.203" rx="30" fill="#fff"/><path d="M33.634 43.868c.167-.16.185-.321.234-.467 1.258-3.632 2.513-7.267 3.771-10.9.074-.215.102-.456.428-.494.406-.046.565.142.681.488 1.208 3.594 2.428 7.184 3.647 10.775.058.171.09.355.213.504.169-.007.17-.148.205-.249a2953.74 2953.74 0 002.825-8.155c.141-.409.23-.83.216-1.268-.02-.566-.256-.89-.805-1.09-.434-.157-.893-.17-1.345-.206-.283-.023-.409-.136-.407-.414.002-.288.149-.386.428-.386 2.277.004 4.554.003 6.83 0 .265 0 .437.068.445.37.008.305-.134.422-.43.43-.24.009-.481.04-.72.067-.99.11-1.729.58-2.203 1.443-.387.705-.666 1.452-.925 2.207-1.471 4.292-2.94 8.586-4.41 12.879-.046.136-.098.27-.15.404-.055.141-.167.192-.316.193-.15 0-.263-.05-.319-.19-.054-.133-.1-.269-.146-.405L37.6 38.095c-.046-.134-.1-.266-.159-.423-.218.091-.215.282-.265.426-1.293 3.774-2.58 7.549-3.867 11.323-.034.099-.067.2-.102.297-.057.156-.139.277-.338.282-.215.005-.313-.112-.372-.289-.224-.67-.452-1.338-.675-2.008-1.3-3.894-2.598-7.788-3.9-11.682-.212-.633-.46-1.252-.803-1.832-.476-.807-1.19-1.245-2.142-1.325-.2-.016-.399-.056-.6-.062-.301-.01-.384-.175-.378-.437.008-.273.16-.357.415-.357 2.76.002 5.52.002 8.28-.001.272 0 .43.086.434.379.003.274-.113.397-.4.42-.413.031-.83.049-1.23.168-.645.193-.922.552-.937 1.203-.012.463.09.907.235 1.343.898 2.678 1.797 5.355 2.698 8.03.034.097.082.188.139.318z" fill="#D40002"/></svg><svg fill="none" viewBox="0 0 30 30" id="icon-fb" xmlns="http://www.w3.org/2000/svg"><path fill="#fff" d="M5 6h19v18H5z"/><path d="M15 0C6.716 0 0 6.716 0 15c0 8.284 6.716 15 15 15 8.284 0 15-6.716 15-15 0-8.284-6.716-15-15-15zm3.553 10.366h-2.255c-.267 0-.564.351-.564.818v1.629h2.82l-.426 2.321h-2.394v6.97h-2.66v-6.97h-2.415v-2.322h2.414v-1.365c0-1.96 1.36-3.552 3.225-3.552h2.255v2.47z" fill="#D50002"/></svg><svg fill="none" viewBox="0 0 76 72" id="icon-features-1" xmlns="http://www.w3.org/2000/svg"><rect x=".025" y=".646" width="75" height="71.203" rx="30" fill="#fff"/><path d="M37.528 30.516c3.296 0 5.964 2.626 5.972 5.863 0 3.26-2.668 5.887-5.98 5.879-3.295 0-5.955-2.635-5.955-5.88 0-3.244 2.66-5.862 5.963-5.862zm0 9.75c2.197-.066 3.915-1.676 3.924-3.871.008-2.139-1.66-3.854-3.907-3.87-2.205-.017-3.948 1.674-3.94 3.87.009 2.187 1.726 3.805 3.923 3.87zM34.126 25.182c-.009 2.545-2.214 4.7-4.799 4.692-2.585-.017-4.766-2.188-4.749-4.733.017-2.537 2.205-4.675 4.782-4.675 2.585 0 4.774 2.17 4.766 4.716zm-4.774 2.65c1.486 0 2.7-1.195 2.709-2.658 0-1.48-1.214-2.684-2.71-2.684-1.486.008-2.708 1.204-2.708 2.667a2.686 2.686 0 002.709 2.676zM50.479 25.182c-.008 2.545-2.205 4.7-4.799 4.692-2.585-.008-4.774-2.18-4.757-4.733.016-2.537 2.205-4.675 4.782-4.675 2.593 0 4.782 2.162 4.774 4.716zm-4.766-2.684c-1.486 0-2.709 1.188-2.717 2.643-.008 1.48 1.206 2.692 2.7 2.692 1.487 0 2.71-1.188 2.718-2.643.008-1.48-1.206-2.683-2.7-2.692zM37.512 44.835c3.882.073 7.177 1.488 9.861 4.253.166.17.322.35.488.512.107.106.107.195-.009.31-.371.34-.743.674-1.098 1.032-.174.17-.297.154-.454-.016-.71-.797-1.487-1.52-2.379-2.123-1.908-1.268-4.006-1.919-6.31-1.927-3.444-.008-6.285 1.293-8.598 3.773-.57.61-.413.537-.966.033-.265-.244-.52-.496-.793-.732-.14-.122-.182-.22-.041-.374 2.09-2.342 4.65-3.887 7.78-4.489a13.037 13.037 0 012.519-.252zM46.01 31.93c2.76.155 5.121 1.123 7.054 3.042.173.17.165.285-.008.439-.355.309-.702.626-1.033.968-.173.179-.28.154-.446-.008a8.202 8.202 0 00-4.237-2.253 6.826 6.826 0 00-1.346-.146c-.223 0-.314-.073-.314-.301.008-.464.017-.935 0-1.399-.016-.284.108-.374.33-.341zM29.377 32.956c0 .235-.009.471 0 .699.008.22-.075.3-.298.309-1.924.065-3.626.707-5.096 1.935-.198.163-.38.342-.561.52-.124.123-.215.123-.339 0a44.972 44.972 0 00-1.123-1.048c-.149-.139-.14-.236 0-.374 1.66-1.66 3.659-2.643 5.996-2.968.363-.05.735-.074 1.107-.106.214-.024.33.057.314.293-.017.252 0 .496 0 .74z" fill="#D40002"/></svg><svg fill="none" viewBox="0 0 76 72" id="icon-features-2" xmlns="http://www.w3.org/2000/svg"><rect x=".924" y=".646" width="75" height="71.203" rx="30" fill="#fff"/><path d="M31.569 23.43c2.289.085 4.14.748 5.689 2.225.454.441.909.883 1.346 1.341.22.238.404.238.623 0 .421-.441.859-.883 1.296-1.307 2.39-2.31 5.925-2.887 8.955-1.477 2.93 1.375 4.798 4.5 4.596 7.777-.118 1.919-.791 3.668-2.155 5.043-4.191 4.263-8.416 8.508-12.607 12.753-.32.323-.522.289-.825-.017-4.158-4.194-8.366-8.337-12.457-12.617-2.39-2.479-2.945-5.519-1.615-8.728 1.33-3.226 3.922-4.789 7.154-4.993zm20.317 8.168c0-2.462-1.33-4.534-3.586-5.518-2.087-.917-4.612-.442-6.312 1.222-.91.883-1.801 1.783-2.676 2.7-.303.323-.522.306-.825 0-.926-.95-1.852-1.902-2.828-2.819-1.38-1.307-3.064-1.766-4.898-1.426-2.273.424-3.855 1.783-4.545 4.007-.707 2.259-.186 4.297 1.447 5.978 3.586 3.65 7.188 7.268 10.773 10.902.337.34.572.373.926.017 3.636-3.685 7.272-7.353 10.907-11.038 1.095-1.12 1.617-2.462 1.617-4.025z" fill="#D40002"/></svg><svg fill="none" viewBox="0 0 76 72" id="icon-features-3" xmlns="http://www.w3.org/2000/svg"><rect x=".823" y=".646" width="75" height="71.203" rx="30" fill="#fff"/><path d="M38.028 49.25v-.176c0-.961 0-.926-.926-1.066-4.055-.63-7.114-2.744-9.142-6.31-.77-1.364-1.259-2.832-1.416-4.388-.052-.576-.28-.873-.909-.804-.332.053-.682.018-1.031 0-.49-.017-.822-.227-.822-.769 0-.49.35-.699.805-.716.366-.018.734-.053 1.083 0 .612.087.804-.193.874-.752.297-2.465 1.259-4.65 2.884-6.52 2.01-2.36 4.58-3.758 7.639-4.23.961-.14.961-.122.961-1.101 0-.315-.017-.647.018-.962.052-.437.28-.716.752-.716.454.017.681.297.716.734.018.367.053.734 0 1.084-.087.646.227.873.822.944 2.167.244 4.125 1.066 5.855 2.377 2.745 2.097 4.335 4.86 4.825 8.268.122.839.105.839.961.839.367 0 .734-.018 1.084.017.437.035.734.28.734.734 0 .455-.297.7-.734.734-.385.035-.77.053-1.136 0-.63-.087-.84.21-.91.805-.191 1.94-.908 3.705-1.974 5.313-2.046 3.042-4.93 4.79-8.513 5.367-.996.157-.996.14-.996 1.136 0 .297.017.612 0 .909-.035.454-.28.769-.77.769-.454-.018-.664-.332-.716-.752-.018-.245 0-.507-.018-.769.018 0 .018 0 0 0zm10.488-12.744c-.227 0-.437.018-.664 0-.472-.035-.84-.244-.822-.769.018-.49.367-.699.822-.716.42-.018.839-.018 1.276 0 .385.017.524-.14.49-.542-.525-4.877-4.72-9.072-9.562-9.527-.385-.035-.507.105-.507.472.018.437.018.892-.017 1.329-.035.454-.263.786-.734.786-.49 0-.7-.35-.735-.804a15.09 15.09 0 010-1.258c.018-.437-.175-.56-.594-.507-4.964.612-8.897 4.527-9.492 9.456-.052.437.088.595.507.577.437-.017.892-.017 1.329.018.437.035.734.28.734.734 0 .454-.315.681-.734.734-.28.035-.56.017-.84.017-1.048 0-1.048 0-.908 1.05.664 4.631 4.79 8.564 9.439 9.019.35.035.542-.07.542-.437 0-.437 0-.892.017-1.329.018-.454.228-.804.717-.804.49 0 .717.332.752.787.035.437.017.891.017 1.328-.017.42.175.507.56.455 4.771-.595 8.617-4.248 9.404-8.915.174-1.154.174-1.154-.997-1.154z" fill="#D40002"/><path d="M38.78 50.962h-.035c-.507-.018-.822-.35-.874-.909a3.002 3.002 0 010-.56v-.087l-.017-.157v-.175c0-.384 0-.63-.07-.716-.07-.07-.263-.105-.612-.158l-.105-.017c-4.09-.647-7.22-2.797-9.264-6.398a11.441 11.441 0 01-1.451-4.457c-.035-.297-.105-.472-.21-.56-.087-.104-.262-.122-.49-.087-.279.035-.576.018-.856.018h-.192c-.647-.053-.996-.385-.996-.962 0-.542.35-.874.961-.891l.175-.018c.314-.017.629-.035.944 0 .21.035.367 0 .472-.07.105-.087.174-.244.21-.541.296-2.483 1.275-4.703 2.918-6.625 2.028-2.325 4.633-3.758 7.762-4.23h.052c.385-.053.612-.088.682-.175.07-.088.07-.332.07-.734v-.245c0-.245 0-.49.017-.752.052-.56.385-.874.926-.874.525.018.857.332.892.892.017.35.052.734 0 1.118-.035.245 0 .402.087.525.088.122.28.192.595.227 2.167.245 4.16 1.066 5.943 2.412 2.761 2.098 4.405 4.93 4.894 8.373v.035c.053.332.07.542.14.594.07.053.315.053.647.053h.227c.28 0 .577 0 .856.017.56.053.892.385.892.91 0 .506-.35.856-.892.908-.35.035-.769.053-1.188 0-.227-.035-.385 0-.49.07-.105.087-.175.262-.21.56-.192 1.87-.873 3.688-2.01 5.4-2.01 3.007-4.929 4.843-8.635 5.454l-.07.018c-.384.07-.629.105-.699.192-.07.087-.07.35-.07.752v.262c0 .21 0 .437-.017.664-.035.594-.385.944-.909.944zm-.577-1.888l.018.175v.769c.035.385.21.594.542.594.35.018.541-.192.576-.611.018-.21.018-.402.018-.612v-.262c0-1.05.052-1.12 1.066-1.294l.07-.017c3.618-.595 6.45-2.378 8.408-5.297 1.118-1.66 1.765-3.426 1.957-5.244.035-.402.14-.646.333-.804.174-.14.42-.192.751-.157.385.053.77.017 1.101 0 .263-.017.577-.14.577-.56 0-.419-.314-.541-.577-.559-.28-.017-.559-.017-.821-.017h-.245c-.926 0-1.014-.07-1.136-.961v-.035c-.472-3.357-2.08-6.1-4.755-8.146a11.555 11.555 0 00-5.768-2.342c-.42-.053-.664-.158-.821-.367-.14-.193-.193-.437-.158-.787.053-.35.018-.717 0-1.049-.017-.367-.21-.56-.541-.56-.35-.017-.525.176-.56.56-.017.227-.017.472-.017.7v.244c0 1.031-.07 1.101-1.05 1.259h-.052c-3.059.472-5.593 1.87-7.568 4.16a11.972 11.972 0 00-2.85 6.432c-.035.263-.104.595-.332.787-.174.14-.402.175-.716.14-.28-.035-.577-.018-.874 0l-.175.017c-.577 0-.647.297-.647.525 0 .244.07.559.647.576h.21c.28.018.542.018.786-.017.332-.035.577 0 .752.157.262.21.314.56.35.804.157 1.521.629 2.972 1.398 4.318 1.993 3.513 5.034 5.593 9.02 6.223l.087.017c.944.14.996.227.996 1.241zm1.73-2.325a.645.645 0 01-.401-.122c-.123-.105-.175-.28-.175-.524.017-.402.017-.857-.018-1.311-.017-.28-.122-.612-.576-.612-.35 0-.525.227-.542.647-.018.454-.018.926-.018 1.31 0 .228-.052.385-.175.49-.157.14-.402.14-.559.122-4.702-.454-8.932-4.474-9.596-9.159-.088-.577-.123-.857.035-1.049.157-.192.454-.192 1.03-.192h.21c.21 0 .42 0 .63-.017.385-.035.577-.228.577-.56 0-.454-.35-.542-.577-.56-.472-.034-.944-.017-1.311-.017-.175 0-.402-.017-.56-.175-.157-.174-.14-.419-.122-.594a11.114 11.114 0 019.632-9.649c.174-.017.437-.035.611.123.123.122.193.297.175.56-.017.401-.017.82 0 1.258.018.42.21.629.56.629.437 0 .541-.332.559-.612.035-.454.017-.926.017-1.31 0-.158.018-.368.158-.508.157-.14.384-.14.524-.122 4.93.472 9.194 4.72 9.719 9.684.017.157.017.402-.123.559-.157.157-.384.175-.541.175-.438-.018-.857 0-1.259 0-.42.017-.647.192-.647.542 0 .14-.017.541.664.594.14.018.298 0 .438 0h.21c.663 0 .96 0 1.135.21.175.21.123.524.018 1.153-.787 4.72-4.72 8.46-9.544 9.055-.035-.018-.105-.018-.157-.018zM29.062 36.681h-.087c-.402 0-.717 0-.77.07-.052.07-.017.385.036.77.647 4.526 4.72 8.424 9.281 8.861.14.018.245 0 .28-.035.053-.035.053-.14.053-.227 0-.402-.018-.874.017-1.346.035-.594.367-.961.892-.979h.017c.524 0 .874.35.909.944.035.472.017.944.017 1.346 0 .123.018.227.053.262s.105.053.315.035c4.684-.594 8.477-4.195 9.246-8.774.07-.455.123-.787.053-.857-.07-.087-.402-.087-.857-.07H47.835c-.647-.052-.997-.384-.997-.944.018-.524.385-.856.979-.874.402-.017.822-.017 1.276 0 .105 0 .227 0 .28-.052.035-.053.052-.14.035-.297-.507-4.807-4.633-8.915-9.404-9.37-.14-.017-.228 0-.263.035s-.052.123-.052.245c0 .402.017.874-.018 1.346-.035.594-.384.944-.926.944s-.874-.367-.891-.961a15.506 15.506 0 010-1.276c0-.105 0-.228-.07-.28-.053-.052-.158-.052-.332-.035a10.69 10.69 0 00-9.317 9.317c-.018.157 0 .28.035.314.035.053.14.07.297.07.367-.017.857-.017 1.346.018.56.035.891.384.891.909 0 .507-.332.839-.891.909-.227.017-.455.017-.664.017-.018-.035-.053-.035-.088-.035z" fill="#D40002"/><path d="M33.571 35.79c0-2.867 2.325-5.244 5.192-5.244 2.866-.018 5.226 2.342 5.243 5.209.018 2.814-2.36 5.209-5.174 5.226-2.866.017-5.261-2.342-5.261-5.191zm8.932.017c.018-2.08-1.626-3.758-3.67-3.758-2.116-.018-3.759 1.59-3.776 3.706a3.69 3.69 0 003.688 3.74c2.063 0 3.758-1.66 3.758-3.688z" fill="#D40002"/><path d="M38.815 41.156a5.384 5.384 0 01-3.828-1.59 5.264 5.264 0 01-1.59-3.776c0-2.99 2.394-5.42 5.366-5.42h.017c2.971 0 5.384 2.413 5.401 5.385 0 1.398-.56 2.744-1.573 3.793-1.031 1.031-2.36 1.608-3.776 1.608h-.017zm-5.07-5.366c0 1.328.543 2.57 1.487 3.53a5.11 5.11 0 003.6 1.486c1.311 0 2.57-.542 3.514-1.52a4.989 4.989 0 001.486-3.549c-.018-2.78-2.273-5.034-5.052-5.034h-.017c-2.78.035-5.035 2.307-5.017 5.087zm5.035 3.863h-.017c-2.185-.018-3.881-1.73-3.863-3.916.017-2.185 1.73-3.88 3.932-3.88h.018c2.167.017 3.845 1.748 3.845 3.933 0 1.03-.42 1.992-1.153 2.727a3.933 3.933 0 01-2.762 1.136zm.035-7.447c-2.028 0-3.566 1.521-3.583 3.531-.018 1.993 1.538 3.549 3.513 3.566h.018c.943 0 1.835-.367 2.517-1.031a3.567 3.567 0 001.048-2.482c.018-2.01-1.52-3.584-3.496-3.584h-.017z" fill="#D40002"/></svg><svg fill="none" viewBox="0 0 75 72" id="icon-features-4" xmlns="http://www.w3.org/2000/svg"><rect y=".253" width="75" height="71.203" rx="30" fill="#fff"/><path d="M38.14 50.566c-2.322 0-4.665-.02-6.987.02-.643 0-.871-.205-.85-.843.041-2.038-.228-1.73 1.7-1.75 4.043-.02 8.087 0 12.13 0 1.742 0 2.24-.39 2.571-2.1.643-3.334 1.286-6.668 1.908-10.002.31-1.688-.373-2.49-2.095-2.511-2.218 0-4.458-.021-6.676 0-.705 0-.995-.247-.954-.947.02-.474.083-.906.249-1.359.808-2.1 1.39-4.26 1.7-6.483.083-.556.145-1.153-.435-1.544-.394-.267-.85-.247-1.265-.02-.58.288-.58.885-.664 1.4-.186 1.296-.456 2.593-.953 3.807-1.742 4.405-4.956 7.327-9.435 8.85-.601.206-.788.474-.788 1.091.02 3.788.02 7.554.02 11.341 0 1.03 0 1.05-1.015 1.03-1.804-.021-1.576.205-1.576-1.544-.02-4.22 0-8.44-.042-12.659 0-.823.229-1.173 1.037-1.358 4.106-.906 7.175-3.19 9.02-6.998.705-1.461.87-3.046 1.182-4.61.58-2.964 3.94-4.179 6.241-2.265 1.244 1.03 1.472 2.409 1.224 3.932-.27 1.688-.623 3.334-1.162 4.96-.186.556-.02.72.54.72 1.264-.02 2.53-.02 3.815 0 3.09 0 5.1 2.326 4.582 5.331a623.49 623.49 0 01-1.97 10.847c-.435 2.306-2.135 3.664-4.478 3.685h-3.339c-1.057-.021-2.156-.021-3.234-.021z" fill="#D40002"/></svg><svg fill="none" viewBox="0 0 76 72" id="icon-features-5" xmlns="http://www.w3.org/2000/svg"><rect x=".886" y=".253" width="75" height="71.203" rx="30" fill="#fff"/><path d="M36.863 42.148c-.43 0-.879-.017-1.309 0-.556.018-.95-.23-1.255-.657-.34-.462-.537-.995-.734-1.51-.484-1.208-1.022-2.398-1.882-3.393a15.366 15.366 0 01-1.542-2.168c-2.222-3.677-1.487-8.137 1.255-11.033 1.613-1.705 3.62-2.735 6.004-2.966 2.778-.285 5.252.515 7.331 2.345 1.864 1.634 2.922 3.73 3.172 6.182.215 2.097-.34 4.015-1.47 5.792-.501.782-1.093 1.492-1.666 2.238a15.232 15.232 0 00-2.456 4.566c-.09.285-.215.533-.537.604-.556.125-.968-.337-.825-.888.197-.675.466-1.315.77-1.954.7-1.475 1.632-2.807 2.671-4.069.968-1.172 1.721-2.487 2.008-3.997.322-1.723.107-3.375-.681-4.939-1.094-2.167-2.832-3.589-5.18-4.264-3.71-1.048-7.707.711-9.428 4.122-1.147 2.256-1.237 4.566-.161 6.875a11.817 11.817 0 001.703 2.594c1.021 1.19 1.684 2.559 2.24 4.015.108.302.25.587.376.87.09.214.251.303.502.303h2.33c.144 0 .287.018.413.035.376.072.573.338.555.729-.018.355-.269.604-.645.604a45.57 45.57 0 00-1.56-.036z" fill="#D40002"/><path d="M35.5 42.344c-.555 0-.985-.231-1.344-.729-.322-.444-.52-.941-.699-1.42l-.054-.143c-.448-1.137-.985-2.345-1.846-3.358a15.475 15.475 0 01-1.56-2.185c-2.204-3.589-1.684-8.101 1.256-11.228 1.684-1.777 3.745-2.807 6.13-3.038 2.831-.284 5.34.515 7.473 2.398 1.882 1.653 2.976 3.785 3.245 6.307.197 2.008-.287 3.998-1.488 5.898-.412.658-.896 1.262-1.362 1.848a5.793 5.793 0 00-.305.391 14.864 14.864 0 00-2.42 4.513c-.107.32-.269.64-.68.728a.897.897 0 01-.843-.231.897.897 0 01-.197-.87c.215-.711.502-1.404.77-1.973.61-1.314 1.47-2.611 2.689-4.103 1.075-1.297 1.703-2.594 1.972-3.927.322-1.688.09-3.304-.664-4.832-1.075-2.114-2.778-3.518-5.072-4.157a7.92 7.92 0 00-9.23 3.997c-1.148 2.239-1.201 4.513-.162 6.716.394.87.95 1.705 1.685 2.54.896 1.048 1.595 2.292 2.258 4.05.072.214.18.41.27.623.035.088.07.16.107.248.053.142.143.196.322.196h2.33c.162 0 .305.017.448.035.466.09.717.427.7.906-.018.444-.359.764-.807.782-.358.018-.735 0-1.093 0h-1.775c-.018.018-.036.018-.054.018zm2.958-21.799c-.34 0-.7.018-1.04.053-2.312.231-4.283 1.208-5.915 2.932-2.814 3.002-3.315 7.337-1.218 10.82.466.78.985 1.491 1.523 2.131.896 1.048 1.452 2.274 1.9 3.447l.054.142c.197.48.358.941.663 1.332.305.409.645.586 1.111.569.305-.018.61 0 .914 0h1.936c.269 0 .448-.178.466-.444.018-.214-.054-.462-.412-.534a2.263 2.263 0 00-.377-.035h-2.312c-.304 0-.537-.124-.663-.409-.036-.07-.072-.16-.107-.23-.09-.214-.198-.427-.27-.64-.645-1.723-1.326-2.95-2.186-3.944a11.207 11.207 0 01-1.72-2.63c-1.076-2.31-1.022-4.69.16-7.035 1.775-3.518 5.826-5.276 9.644-4.21 2.401.675 4.176 2.131 5.287 4.352a7.684 7.684 0 01.699 5.046c-.269 1.403-.932 2.736-2.043 4.086-1.201 1.475-2.044 2.754-2.653 4.033-.269.568-.556 1.226-.753 1.919-.053.213-.018.408.108.532a.555.555 0 00.502.143c.233-.054.322-.213.412-.498a15.211 15.211 0 012.491-4.619c.108-.142.215-.266.323-.39.466-.587.932-1.191 1.326-1.813 1.165-1.865 1.631-3.713 1.434-5.667-.25-2.434-1.29-4.477-3.118-6.076-1.793-1.564-3.872-2.363-6.166-2.363zM42.742 46.181v1.03c0 .32-.108.587-.341.818-.52.533-1.183.835-1.846 1.083a.952.952 0 00-.484.391c-.7 1.19-2.724 1.173-3.406-.035a.763.763 0 00-.412-.338c-.68-.266-1.344-.55-1.864-1.066a1.19 1.19 0 01-.376-.888c.018-.657 0-1.315 0-1.972 0-.942.68-1.617 1.63-1.617h5.485c.932 0 1.614.675 1.614 1.6v.994zm-4.338-1.226h-2.617c-.269 0-.376.09-.376.373.018.533 0 1.066 0 1.6 0 .195.072.32.233.408a5.98 5.98 0 001.774.746c.27.071.412.178.412.48 0 .32.18.444.52.444.43 0 .61-.107.61-.462 0-.302.16-.409.412-.48a6.482 6.482 0 001.774-.746.425.425 0 00.215-.39c0-.534-.017-1.084 0-1.617 0-.267-.107-.356-.376-.356h-2.581z" fill="#D40002"/><path d="M38.386 50.57h-.036c-.788 0-1.505-.391-1.846-1.013-.072-.125-.161-.196-.322-.267-.628-.248-1.363-.55-1.936-1.101-.305-.285-.43-.622-.43-1.03.017-.41 0-.836 0-1.244v-.729c0-1.048.77-1.794 1.81-1.794h5.484c1.04 0 1.793.746 1.793 1.777v2.042c0 .356-.126.676-.395.942-.555.569-1.254.87-1.917 1.137a.653.653 0 00-.395.32c-.322.604-1.021.96-1.81.96zm-.484-6.823h-2.24c-.843 0-1.452.604-1.452 1.44v1.971c0 .302.09.533.322.764.52.516 1.184.782 1.81 1.03.18.072.377.16.503.427.286.498.878.817 1.541.835.681 0 1.255-.302 1.56-.8a.938.938 0 01.573-.461c.627-.231 1.29-.533 1.792-1.049.197-.213.287-.426.287-.692v-1.369-.692c0-.817-.61-1.422-1.434-1.422-1.111.018-2.186.018-3.262.018zm.448 5.437c-.484 0-.717-.213-.717-.622 0-.196-.053-.249-.269-.302a6.447 6.447 0 01-1.828-.782.623.623 0 01-.305-.568c.018-.604.018-1.102 0-1.582 0-.177.036-.32.126-.408.126-.125.305-.142.412-.142h5.216c.125 0 .305.017.43.142.09.089.144.23.126.408-.018.569 0 1.137 0 1.617 0 .231-.09.409-.305.533a6.444 6.444 0 01-1.828.782c-.215.053-.287.124-.287.302.018.55-.394.622-.77.622zm-2.58-4.051c-.108 0-.144.018-.144.036 0 0-.036.035-.036.16.018.48.018.994 0 1.598 0 .125.036.196.143.267.52.32 1.094.568 1.721.728.251.071.538.196.538.658 0 .195.053.266.34.284h.018c.395 0 .413-.107.413-.284 0-.444.304-.587.555-.64.627-.16 1.201-.409 1.72-.728.108-.071.144-.125.144-.231 0-.48-.018-1.049 0-1.635 0-.106-.018-.142-.036-.142 0 0-.053-.035-.161-.035h-3.334c-.61-.036-1.237-.036-1.882-.036zM32.041 28.504c0-.23.09-.444.18-.64.824-1.918 2.204-3.268 4.14-4.05.09-.035.179-.071.287-.089.394-.106.752.053.878.409.125.355-.036.728-.43.87-.825.302-1.578.746-2.205 1.368a5.785 5.785 0 00-1.488 2.345c-.125.373-.43.551-.806.48-.359-.07-.574-.337-.556-.693z" fill="#D40002"/><path d="M32.722 29.375c-.071 0-.125 0-.197-.018-.412-.071-.681-.409-.681-.853 0-.248.09-.462.18-.657l.017-.053c.843-1.955 2.259-3.34 4.23-4.14.09-.035.197-.071.305-.107.484-.124.932.09 1.093.534.161.461-.054.923-.538 1.101a5.901 5.901 0 00-2.133 1.315 5.77 5.77 0 00-1.451 2.274c-.126.373-.43.604-.825.604zm4.158-5.526c-.053 0-.125 0-.179.018-.09.018-.179.054-.269.09-1.882.763-3.244 2.095-4.032 3.96l-.018.054c-.072.178-.144.338-.144.515 0 .267.144.462.395.498.286.053.502-.071.609-.356.305-.923.825-1.723 1.541-2.416.628-.621 1.38-1.066 2.259-1.403.287-.107.43-.373.322-.658-.107-.177-.268-.302-.483-.302zM50.359 37.387c-.143 0-.269-.053-.394-.107-.61-.355-1.237-.693-1.864-1.066-.413-.248-.538-.64-.305-.994.215-.338.61-.41 1.022-.178.627.355 1.254.71 1.882 1.084.286.16.412.48.322.781-.09.302-.34.48-.663.48z" fill="#D40002"/><path d="M50.359 37.565a.793.793 0 01-.466-.142 13.315 13.315 0 01-.681-.391c-.394-.231-.789-.444-1.183-.675-.269-.16-.43-.356-.484-.604a.756.756 0 01.125-.64c.27-.426.771-.515 1.255-.23l.34.194c.52.285 1.022.587 1.542.889.358.213.52.604.394.995a.871.871 0 01-.842.604zm-2.008-2.487a.479.479 0 00-.412.23c-.071.125-.107.25-.071.374.035.142.143.266.322.373.395.23.789.444 1.183.675.233.124.448.248.681.39a.503.503 0 00.305.09c.25 0 .412-.125.484-.356a.491.491 0 00-.233-.586c-.52-.302-1.022-.586-1.541-.889l-.341-.195a.757.757 0 00-.377-.106zM25.66 30.53h-1.093c-.394 0-.681-.267-.717-.622-.036-.302.215-.622.538-.711.09-.018.18-.035.269-.035h2.079a.77.77 0 01.52.177c.215.196.322.427.215.71a.65.65 0 01-.61.48h-1.2z" fill="#D40002"/><path d="M26.395 30.707h-1.863c-.485 0-.843-.32-.879-.782-.036-.39.25-.799.681-.906.108-.035.215-.035.305-.035h2.079c.269 0 .484.07.645.213.287.249.394.569.269.906-.126.373-.394.586-.77.604h-.467zm-.914-.355H26.88c.233 0 .377-.125.448-.355.072-.196.018-.374-.179-.534-.09-.088-.233-.124-.412-.124h-2.08a.905.905 0 00-.214.036c-.251.07-.43.302-.413.533.036.266.251.462.538.462h.753l.161-.018zM51.076 30.53h-1.093c-.413 0-.7-.25-.717-.64a.631.631 0 01.627-.71 17.788 17.788 0 012.384 0 .68.68 0 01.663.71c-.018.373-.323.64-.753.64h-1.111z" fill="#D40002"/><path d="M50.395 30.707h-.43c-.502 0-.86-.32-.897-.8a.842.842 0 01.198-.621.896.896 0 01.609-.284 18.058 18.058 0 012.402 0c.502.035.842.408.824.888-.018.48-.394.8-.914.817h-1.792zm.68-1.403c-.393 0-.788.017-1.182.035a.606.606 0 00-.358.16.427.427 0 00-.108.355c.018.285.215.462.556.462h2.186c.323 0 .556-.195.574-.48.018-.248-.162-.497-.484-.515-.412 0-.807-.017-1.183-.017zM48.387 24.791a.641.641 0 01-.645-.462c-.09-.284-.018-.604.233-.764.7-.409 1.398-.817 2.115-1.208.34-.178.7-.035.878.302.18.32.09.693-.25.888-.646.391-1.309.747-1.954 1.12a.482.482 0 01-.377.124z" fill="#D40002"/><path d="M48.423 24.969h-.036c-.394 0-.699-.231-.806-.569-.126-.39 0-.782.322-.96.807-.479 1.488-.87 2.115-1.207.413-.213.897-.054 1.13.373.233.408.09.888-.323 1.137-.466.284-.95.55-1.416.817-.18.107-.376.213-.556.32a1.33 1.33 0 01-.43.089zm1.954-2.488a.481.481 0 00-.215.054c-.627.337-1.309.71-2.115 1.208-.215.124-.215.373-.161.55.071.214.232.32.483.338h.018c.072 0 .18-.018.27-.071.179-.107.376-.213.555-.32l1.398-.8a.475.475 0 00.197-.657.464.464 0 00-.43-.302zM29.066 35.575a.663.663 0 01-.34.586c-.664.373-1.327.764-1.99 1.137a.676.676 0 01-.932-.248c-.197-.338-.09-.729.269-.942.645-.373 1.29-.746 1.935-1.101.502-.285 1.058.035 1.058.568z" fill="#D40002"/><path d="M26.395 37.565a.831.831 0 01-.735-.427c-.233-.426-.107-.923.34-1.172.754-.444 1.381-.8 1.937-1.102.304-.16.645-.16.914 0s.412.427.412.747-.161.568-.43.728l-.161.089c-.592.337-1.22.71-1.829 1.048a1.432 1.432 0 01-.448.089zm1.99-2.487a.665.665 0 00-.305.088c-.556.32-1.183.658-1.936 1.102-.268.16-.34.444-.197.693.144.248.43.32.681.177.61-.337 1.237-.692 1.828-1.048l.162-.089a.459.459 0 00.25-.426.477.477 0 00-.232-.426c-.054-.054-.144-.072-.251-.072zM29.066 24.116c0 .497-.502.853-.95.622-.735-.373-1.434-.8-2.133-1.226-.305-.178-.34-.586-.143-.888.197-.285.555-.409.878-.231.484.266.968.55 1.452.817.197.107.376.213.573.32.215.142.305.337.323.586z" fill="#D40002"/><path d="M28.403 24.986a.97.97 0 01-.377-.088 29.429 29.429 0 01-2.15-1.226.815.815 0 01-.341-.462.882.882 0 011.255-.977c.358.177.699.39 1.04.586.143.071.268.16.411.231.144.071.27.16.413.23l.16.09a.858.858 0 01.019 1.474.63.63 0 01-.43.142zm-2.008-2.505a.498.498 0 00-.412.231c-.072.125-.108.267-.072.409a.398.398 0 00.162.249c.573.355 1.326.8 2.133 1.208a.45.45 0 00.448-.018.53.53 0 00.233-.444.506.506 0 00-.251-.444l-.162-.09c-.143-.07-.268-.159-.412-.23-.143-.071-.269-.16-.412-.231-.34-.195-.681-.39-1.04-.586a.429.429 0 00-.215-.053z" fill="#D40002"/></svg><svg fill="none" viewBox="0 0 30 30" id="icon-inst" xmlns="http://www.w3.org/2000/svg"><rect width="30" height="30" rx="15" fill="#D50002"/><path d="M18.36 7.5h-6.72a4.144 4.144 0 00-4.14 4.14v6.72a4.144 4.144 0 004.14 4.14h6.72a4.144 4.144 0 004.14-4.14v-6.72a4.144 4.144 0 00-4.14-4.14zm2.81 10.86a2.812 2.812 0 01-2.81 2.81h-6.72a2.812 2.812 0 01-2.81-2.81v-6.72a2.812 2.812 0 012.81-2.81h6.72a2.812 2.812 0 012.81 2.81v6.72z" fill="#fff"/><path d="M15 11.25A3.754 3.754 0 0011.25 15 3.754 3.754 0 0015 18.75 3.754 3.754 0 0018.75 15 3.754 3.754 0 0015 11.25zm0 6.209A2.462 2.462 0 0112.541 15 2.462 2.462 0 0115 12.541 2.462 2.462 0 0117.459 15 2.462 2.462 0 0115 17.459z" fill="#fff"/><path d="M18.75 10a1.255 1.255 0 00-1.25 1.25c0 .329.134.651.367.884.232.232.555.366.883.366.33 0 .651-.134.884-.366a1.255 1.255 0 000-1.768A1.255 1.255 0 0018.75 10z" fill="#fff"/></svg><svg viewBox="0 0 30 30" id="icon-link-arrow" xmlns="http://www.w3.org/2000/svg"><path d="M14.47 20.47a.75.75 0 101.06 1.06l-1.06-1.06zM21 15l.53.53.53-.53-.53-.53L21 15zm-5.47-6.53a.75.75 0 10-1.06 1.06l1.06-1.06zM1.5 14.25a.75.75 0 000 1.5v-1.5zm2.075 6.416a.75.75 0 10-1.343.668l1.343-.668zM2.334 8.465a.75.75 0 101.332.689l-1.332-.69zM15.53 21.53l6-6-1.06-1.06-6 6 1.06 1.06zm6-7.06l-6-6-1.06 1.06 6 6 1.06-1.06zM1.5 15.75H21v-1.5H1.5v1.5zm.732 5.584C4.562 26.024 9.404 29.25 15 29.25v-1.5a12.75 12.75 0 01-11.425-7.084l-1.343.668zM15 29.25c7.87 0 14.25-6.38 14.25-14.25h-1.5c0 7.042-5.708 12.75-12.75 12.75v1.5zM29.25 15C29.25 7.13 22.87.75 15 .75v1.5c7.042 0 12.75 5.708 12.75 12.75h1.5zM15 .75C9.484.75 4.702 3.884 2.334 8.465l1.332.689A12.749 12.749 0 0115 2.25V.75z"/></svg><svg fill="none" viewBox="0 0 20 20" id="icon-mail" xmlns="http://www.w3.org/2000/svg"><path d="M10 0C4.48 0 0 4.48 0 10s4.48 10 10 10h5v-2h-5c-4.34 0-8-3.66-8-8s3.66-8 8-8 8 3.66 8 8v1.43c0 .79-.71 1.57-1.5 1.57s-1.5-.78-1.5-1.57V10c0-2.76-2.24-5-5-5s-5 2.24-5 5 2.24 5 5 5c1.38 0 2.64-.56 3.54-1.47.65.89 1.77 1.47 2.96 1.47 1.97 0 3.5-1.6 3.5-3.57V10c0-5.52-4.48-10-10-10zm0 13c-1.66 0-3-1.34-3-3s1.34-3 3-3 3 1.34 3 3-1.34 3-3 3z" fill="#D40002"/></svg><svg viewBox="0 0 341.333 341.333" id="icon-menu" xmlns="http://www.w3.org/2000/svg"><path d="M0 277.333h341.333V320H0zM0 149.333h341.333V192H0zM0 21.333h341.333V64H0z"/></svg><svg fill="none" viewBox="0 0 26 37" id="icon-mouse" xmlns="http://www.w3.org/2000/svg"><path d="M13.25 15.125V9.5v5.625zM24.5 13.25C24.5 7.037 19.463 2 13.25 2S2 7.037 2 13.25V24.5c0 6.213 5.037 11.25 11.25 11.25S24.5 30.713 24.5 24.5V13.25z" stroke="#D40002" stroke-width="2.25" stroke-linecap="round"/></svg><svg fill="none" viewBox="0 0 31 31" id="icon-pen" xmlns="http://www.w3.org/2000/svg"><path d="M2 23c0 3.6 3 4.5 4.5 4.5 8.25 0 7.5-12 15.75-12C26 15.5 29 18.522 29 22.25A6.75 6.75 0 0122.25 29m-15-11.25l12-12L15.5 2l-12 12-.75 4.5 4.5-.75z" stroke="#D40002" stroke-width="2.25" stroke-linecap="round"/></svg><svg fill="none" viewBox="0 0 22 23" id="icon-phone" xmlns="http://www.w3.org/2000/svg"><path d="M17.155 9.169h-1.538c0-.65-.244-1.273-.676-1.732a2.243 2.243 0 00-1.63-.719V5.085a3.739 3.739 0 012.717 1.197 4.222 4.222 0 011.127 2.887z" fill="#D40002"/><path d="M20.231 9.169h-1.538c-.002-1.516-.57-2.97-1.578-4.042-1.01-1.072-2.378-1.675-3.805-1.676V1.817c1.835.002 3.594.777 4.892 2.156 1.297 1.378 2.027 3.247 2.029 5.196zM18.693 22.24h-.13C3.452 21.316 1.306 7.771 1.006 3.639c-.047-.648.15-1.29.548-1.783A2.264 2.264 0 013.314 1h4.052c.308 0 .61.098.864.281.255.184.452.444.566.748l1.17 3.056c.112.296.14.622.08.936-.06.313-.206.601-.42.828L7.99 8.605a7.817 7.817 0 001.993 4.08 7.068 7.068 0 003.836 2.129l1.668-1.757c.217-.223.49-.374.787-.434.297-.06.604-.025.882.1l2.9 1.233c.281.125.521.336.69.607.168.27.257.588.255.912v4.314a2.53 2.53 0 01-.676 1.733 2.24 2.24 0 01-1.63.718zM3.313 2.633a.73.73 0 00-.294.061.767.767 0 00-.25.176.861.861 0 00-.225.645c.354 4.836 2.623 16.273 16.103 17.09a.742.742 0 00.556-.205.837.837 0 00.258-.562l.001-.05v-4.314l-2.899-1.233-2.207 2.328-.369-.049c-6.69-.89-7.597-7.997-7.597-8.07l-.047-.393 2.184-2.344-1.153-3.08h-4.06z" fill="#D40002"/><path d="M17.155 9.169h-1.538c0-.65-.244-1.273-.676-1.732a2.243 2.243 0 00-1.63-.719V5.085a3.739 3.739 0 012.717 1.197 4.222 4.222 0 011.127 2.887z" stroke="#D40002" stroke-width=".2"/><path d="M20.231 9.169h-1.538c-.002-1.516-.57-2.97-1.578-4.042-1.01-1.072-2.378-1.675-3.805-1.676V1.817c1.835.002 3.594.777 4.892 2.156 1.297 1.378 2.027 3.247 2.029 5.196zM18.693 22.24h-.13C3.452 21.316 1.306 7.771 1.006 3.639c-.047-.648.15-1.29.548-1.783A2.264 2.264 0 013.314 1h4.052c.308 0 .61.098.864.281.255.184.452.444.566.748l1.17 3.056c.112.296.14.622.08.936-.06.313-.206.601-.42.828L7.99 8.605a7.817 7.817 0 001.993 4.08 7.068 7.068 0 003.836 2.129l1.668-1.757c.217-.223.49-.374.787-.434.297-.06.604-.025.882.1l2.9 1.233c.281.125.521.336.69.607.168.27.257.588.255.912v4.314a2.53 2.53 0 01-.676 1.733 2.24 2.24 0 01-1.63.718zM3.313 2.633a.73.73 0 00-.294.061.767.767 0 00-.25.176.861.861 0 00-.225.645c.354 4.836 2.623 16.273 16.103 17.09a.742.742 0 00.556-.205.837.837 0 00.258-.562l.001-.05v-4.314l-2.899-1.233-2.207 2.328-.369-.049c-6.69-.89-7.597-7.997-7.597-8.07l-.047-.393 2.184-2.344-1.153-3.08h-4.06z" stroke="#D40002" stroke-width=".2"/></svg><svg fill="none" viewBox="0 0 16 22" id="icon-point" xmlns="http://www.w3.org/2000/svg"><path d="M15.812 8.918c.011 2.64-.863 5.005-2.18 7.21-1.194 2.01-2.687 3.77-4.413 5.313-.542.49-.852.514-1.35.068-2.444-2.194-4.446-4.742-5.707-7.872-.863-2.114-1.273-4.308-.797-6.604.675-3.302 3.684-5.758 6.958-5.861 3.606-.103 6.991 2.65 7.489 6.638.044.366 0 .743 0 1.108zm-1.338-.103c-.045-.411-.078-.822-.144-1.234-.52-2.959-3.264-5.267-6.46-4.913-2.357.275-4.414 2.034-5.045 4.41-.453 1.692-.21 3.348.288 4.97.962 3.108 2.854 5.576 5.133 7.759.232.228.398.148.597-.046 1.36-1.314 2.577-2.742 3.562-4.376 1.217-2.01 2.002-4.17 2.069-6.57z" fill="#D40002"/><path d="M8.5 22c-.233 0-.465-.126-.73-.355-2.71-2.422-4.591-5.027-5.775-7.93C1.033 11.295.767 9.1 1.199 6.999 1.873 3.684 4.938 1.102 8.31.999a7.363 7.363 0 015.023 1.828c1.46 1.257 2.389 3.017 2.643 4.96.034.262.022.525.011.787 0 .115-.01.229-.01.343.01 2.4-.709 4.787-2.202 7.301-1.162 1.954-2.655 3.748-4.447 5.347-.31.297-.575.434-.83.434zm.022-20.658h-.2c-3.23.103-6.15 2.56-6.803 5.724-.409 2.034-.154 4.16.797 6.513 1.15 2.868 3.009 5.415 5.686 7.803.431.377.641.366 1.128-.068 1.759-1.577 3.241-3.348 4.38-5.267 1.46-2.457 2.169-4.788 2.158-7.118 0-.115 0-.24.01-.366.012-.251.023-.491-.01-.731-.487-3.68-3.595-6.49-7.146-6.49zM8.51 20.114c-.111 0-.244-.046-.388-.183-2.666-2.57-4.314-5.061-5.177-7.838-.608-1.942-.697-3.553-.298-5.061.641-2.422 2.732-4.239 5.188-4.513 3.163-.354 6.084 1.862 6.648 5.05.055.286.077.571.11.845.012.126.023.263.045.389v.023c-.066 2.25-.752 4.421-2.102 6.65-.918 1.53-2.09 2.97-3.595 4.41-.077.08-.232.228-.431.228zm0-17.298c-.21 0-.42.011-.631.034-2.323.263-4.292 1.977-4.9 4.262-.388 1.451-.288 2.993.287 4.867.84 2.72 2.467 5.165 5.089 7.69.132.137.188.125.365-.046 1.482-1.417 2.633-2.845 3.54-4.342 1.305-2.17 1.98-4.284 2.046-6.467-.011-.125-.033-.251-.044-.377-.033-.274-.056-.56-.11-.822-.488-2.788-2.9-4.799-5.642-4.799z" fill="#D40002"/><path d="M11.863 8.758c0 1.954-1.471 3.462-3.363 3.462-1.87 0-3.33-1.52-3.33-3.462 0-1.954 1.46-3.462 3.363-3.462 1.87.012 3.33 1.531 3.33 3.462zm-1.394.012c.011-1.086-.896-2.023-1.958-2.023-1.05 0-1.925.892-1.947 1.988-.033 1.074.874 2.034 1.936 2.046 1.04.01 1.958-.926 1.97-2.011z" fill="#D40002"/><path d="M8.5 12.392c-1.969 0-3.496-1.6-3.496-3.634 0-.994.365-1.908 1.018-2.582a3.47 3.47 0 012.511-1.051h.011c1.958 0 3.496 1.6 3.496 3.622 0 .982-.365 1.908-1.018 2.582A3.479 3.479 0 018.5 12.392zm.033-6.913c-.874 0-1.681.331-2.279.948-.586.606-.918 1.44-.918 2.343 0 1.84 1.394 3.279 3.164 3.29.874 0 1.681-.343 2.279-.948.597-.617.918-1.44.918-2.342 0-1.851-1.383-3.29-3.164-3.29zm-.01 5.473h-.034a2.15 2.15 0 01-1.516-.697 2.111 2.111 0 01-.586-1.531c.033-1.188.985-2.148 2.113-2.16.542 0 1.095.24 1.493.652.399.411.63.982.63 1.542 0 .571-.242 1.143-.652 1.554-.387.411-.918.64-1.449.64zm0-4.033c-.012 0-.012 0 0 0-.963 0-1.76.822-1.793 1.828-.011.468.166.925.498 1.28.343.365.807.582 1.272.594h.022c.443 0 .885-.195 1.217-.537.354-.355.553-.835.553-1.314 0-.469-.188-.949-.53-1.303a1.691 1.691 0 00-1.24-.548z" fill="#D40002"/></svg><svg fill="none" viewBox="0 0 112 113" id="icon-sent" xmlns="http://www.w3.org/2000/svg"><path d="M48.25 75.46c-.386-.313-.82-.608-1.181-.97-4.954-4.94-9.877-9.912-14.86-14.823-1.103-1.084-1.205-1.904-.024-2.965a56.026 56.026 0 003.832-3.826c1.013-1.102 1.808-.982 2.802.048 2.405 2.489 4.881 4.905 7.328 7.352 2.139 2.133 2.139 2.139 4.362-.079 7.34-7.339 14.679-14.684 22.018-22.017 2.121-2.121 2.133-2.115 4.26.006 1.067 1.06 2.079 2.18 3.206 3.175 1.187 1.055 1.084 1.874-.024 2.959-4.67 4.585-9.274 9.237-13.902 13.865-5.32 5.32-10.635 10.641-15.962 15.95-.512.518-.958 1.169-1.855 1.325zM58.222 100.937c0 2.784.012 5.574-.006 8.357-.006 1.495-.482 2.845-2.181 2.875-1.682.03-2.326-1.302-2.338-2.778a857.395 857.395 0 01.012-17.161c.018-1.434.614-2.82 2.338-2.76 1.705.06 2.163 1.392 2.163 2.892.018 2.857.012 5.713.012 8.575zM58.222 11.197c0 2.856.012 5.712 0 8.568-.006 1.53-.524 2.718-2.29 2.712-1.65 0-2.211-1.2-2.223-2.573a902.448 902.448 0 01.006-17.131c.018-1.434.596-2.814 2.32-2.772 1.705.042 2.175 1.362 2.181 2.862.012 2.772.006 5.556.006 8.334zM11.222 58.215c-2.778 0-5.562.006-8.34-.006-1.494 0-2.82-.464-2.88-2.163-.06-1.724 1.32-2.32 2.754-2.338a811.134 811.134 0 0117.13-.012c1.489.012 2.706.663 2.592 2.434-.103 1.627-1.272 2.079-2.694 2.085-2.85.012-5.706 0-8.562 0zM100.817 58.215c-2.856 0-5.712.012-8.568-.006-1.513-.012-2.778-.548-2.778-2.26 0-1.596 1.29-2.205 2.633-2.223a792.951 792.951 0 0117.354-.012c1.392.012 2.531.657 2.495 2.302-.036 1.62-1.121 2.187-2.573 2.193-2.856.018-5.707.006-8.563.006zM96.43 93.977c-.023.922-.487 1.567-1.307 1.928-1.006.452-1.928.187-2.687-.554-1.935-1.886-3.839-3.796-5.749-5.7-2.175-2.175-4.362-4.333-6.501-6.538-1.013-1.043-1.7-2.284-.398-3.525 1.217-1.163 2.482-.753 3.573.331 3.983 3.971 7.96 7.948 11.93 11.925.591.59 1.074 1.254 1.14 2.133zM31.992 80.365c-.012.995-.627 1.663-1.271 2.308-3.778 3.778-7.556 7.55-11.329 11.328-1.168 1.17-2.542 1.959-3.928.603-1.489-1.458-.368-2.724.747-3.838 3.88-3.881 7.767-7.767 11.654-11.648.85-.844 1.79-1.428 3.018-.807.82.415 1.121 1.156 1.11 2.054zM80.348 31.985c-.892.012-1.627-.301-2.049-1.127-.518-1.012-.21-1.922.525-2.675 1.94-1.988 3.91-3.953 5.875-5.917 2.073-2.073 4.145-4.14 6.218-6.213 1.09-1.09 2.32-1.952 3.688-.596 1.211 1.205.675 2.56-.35 3.603-4 4.074-8.056 8.099-12.093 12.13-.488.482-1.09.79-1.814.795zM32.878 30.545c.012 1.103-.35 1.736-1.042 2.151-.874.518-1.778.422-2.531-.18-.874-.7-1.663-1.513-2.459-2.308-3.03-3.02-6.055-6.044-9.08-9.075-.476-.476-.964-.958-1.368-1.488-.814-1.073-1.018-2.23.048-3.242 1.085-1.03 2.211-.76 3.188.21 4.151 4.128 8.29 8.274 12.425 12.42.482.488.831 1.06.819 1.512z" fill="#D40002"/><path d="M74.92 15.674c-.766 2.482-1.622 5.525-2.664 8.496-.368 1.042-1.356 1.693-2.573 1.169-1.073-.458-1.706-1.356-1.38-2.543a229.9 229.9 0 012.555-8.665c.391-1.241 1.362-1.79 2.657-1.53 1.38.277 1.374 1.398 1.404 3.073zM44.58 22.808c.018.982-.308 1.796-1.278 2.157-1.054.392-2.036.067-2.512-.904-1.453-2.958-2.706-6.013-3.64-9.177-.277-.94.223-1.801 1.175-2.181.892-.355 1.766-.235 2.47.524.573.633 3.773 8.695 3.785 9.581zM15.205 75.533c-.814-.073-1.398-.488-1.778-1.2-.398-.74-.422-1.536.211-2.072 2.657-2.236 5.712-3.82 8.876-5.194.753-.326 1.47.126 1.964.753s.693 1.313.307 2.09c-.524 1.055-8.375 5.677-9.58 5.623zM43.103 89.199c-1.066 2.507-2.223 5.429-3.567 8.267-.53 1.127-1.747 1.097-2.778.663-1.072-.452-1.343-1.428-.94-2.447a209.619 209.619 0 013.369-8.08c.464-1.048 1.362-1.633 2.573-1.163 1.036.392 1.47 1.217 1.343 2.76zM74.4 98.34c-1.066.078-1.704-.609-2.12-1.567-1.019-2.338-2.073-4.664-3.001-7.044-.494-1.26-.548-2.64.958-3.278 1.404-.596 2.29.326 2.832 1.507 1.127 2.452 2.284 4.898 3.254 7.417.687 1.772-.145 2.947-1.922 2.965zM95.93 36.065c1.35 0 2.08.464 2.429 1.404.367 1.006-.09 1.831-.904 2.313-2.651 1.561-5.483 2.76-8.394 3.736-.964.326-1.801-.102-2.205-1.06-.374-.88-.44-1.959.41-2.47 2.814-1.7 5.863-2.93 8.664-3.923zM22.297 45.013c-2.585-.916-5.568-1.694-8.22-3.284-.807-.488-1.126-1.428-.674-2.38.47-.995 1.332-1.55 2.386-1.2 2.694.904 5.369 1.868 7.996 2.947.958.392 1.44 1.344 1.109 2.434-.325 1.073-1.187 1.465-2.597 1.483zM95.786 74.255c-2.5-1.06-5.339-2.054-7.9-3.61-.964-.584-.952-1.65-.446-2.614.47-.898 1.302-1.374 2.254-.989a152.076 152.076 0 017.622 3.29c1.121.525 1.278 1.628.904 2.718-.337.976-1.127 1.338-2.434 1.205z" fill="#E98283"/></svg><svg fill="none" viewBox="0 0 32 31" id="icon-star" xmlns="http://www.w3.org/2000/svg"><path d="M16.195 2l3.75 10.5h10.444l-8.194 6 3 10.5-9-6.373-9 6.373 3-10.5L2 12.5h10.444L16.194 2z" stroke="#D40002" stroke-width="2.25" stroke-linecap="round" stroke-linejoin="round"/></svg><svg fill="none" viewBox="0 0 27 18" id="icon-wordpress" xmlns="http://www.w3.org/2000/svg"><path d="M9.634 11.868c.167-.16.185-.321.234-.467 1.258-3.632 2.513-7.267 3.771-10.9.074-.215.102-.457.429-.494.405-.046.564.142.68.488 1.208 3.594 2.429 7.184 3.647 10.775.058.171.09.355.213.504.169-.007.17-.148.205-.249a2951.46 2951.46 0 002.825-8.155c.141-.409.23-.83.216-1.268-.02-.566-.256-.89-.805-1.09-.434-.157-.893-.17-1.345-.206-.283-.023-.409-.136-.407-.414.002-.288.149-.386.427-.386 2.278.004 4.555.003 6.832 0 .264 0 .436.068.444.37.009.305-.134.421-.43.43-.24.009-.481.04-.72.067-.99.11-1.729.58-2.203 1.443-.387.705-.666 1.452-.925 2.207-1.471 4.292-2.94 8.586-4.41 12.879-.046.136-.098.27-.15.404-.055.141-.167.192-.316.193-.15 0-.263-.05-.319-.19-.054-.133-.1-.269-.146-.405L13.6 6.095c-.046-.135-.1-.266-.159-.423-.218.091-.215.282-.265.426-1.293 3.774-2.58 7.549-3.867 11.323-.034.099-.067.2-.102.297-.057.156-.139.277-.338.282-.215.005-.313-.112-.372-.289-.224-.67-.452-1.338-.675-2.008-1.3-3.894-2.598-7.788-3.9-11.682-.212-.633-.46-1.252-.803-1.832C2.644 1.382 1.93.944.978.864.778.848.579.808.378.802.078.792-.005.627 0 .365.008.092.16.008.415.008c2.76.002 5.52.002 8.28-.001.272 0 .43.086.434.379.003.274-.113.397-.4.42-.413.031-.83.049-1.23.168-.645.193-.922.552-.937 1.203-.012.463.09.907.235 1.343.898 2.678 1.797 5.355 2.699 8.03.032.097.08.188.138.318z" fill="#D40002"/></svg></svg>